STARTFONT 2.1
COMMENT
COMMENT Converted from OpenType font "Chivo-Regular.ttf" by "otf2bdf 3.0".
COMMENT
FONT -FreeType-Chivo-Medium-R-Normal--50-360-100-100-P-239-ISO10646-1
SIZE 36 100 100
FONTBOUNDINGBOX 70 71 -8 -16
STARTPROPERTIES 19
FOUNDRY "FreeType"
FAMILY_NAME "Chivo"
WEIGHT_NAME "Medium"
SLANT "R"
SETWIDTH_NAME "Normal"
ADD_STYLE_NAME ""
PIXEL_SIZE 50
POINT_SIZE 360
RESOLUTION_X 100
RESOLUTION_Y 100
SPACING "P"
AVERAGE_WIDTH 239
CHARSET_REGISTRY "ISO10646"
CHARSET_ENCODING "1"
FONT_ASCENT 47
FONT_DESCENT 12
COPYRIGHT "Copyright 2019 The Chivo Project Authors (https://github.com/Omnibus-Type/Chivo)"
_OTF_FONTFILE "Chivo-Regular.ttf"
_OTF_PSNAME "Chivo-Regular"
ENDPROPERTIES
CHARS 644
STARTCHAR 0020
ENCODING 32
SWIDTH 220 0
DWIDTH 11 0
BBX 0 0 0 0
BITMAP
ENDCHAR
STARTCHAR 0021
ENCODING 33
SWIDTH 280 0
DWIDTH 14 0
BBX 6 34 4 0
BITMAP
FC
FC
FC
FC
FC
FC
FC
FC
FC
7C
7C
7C
78
78
78
78
78
78
78
78
78
78
78
78
78
00
00
00
00
FC
FC
FC
FC
FC
ENDCHAR
STARTCHAR 0022
ENCODING 34
SWIDTH 380 0
DWIDTH 19 0
BBX 12 14 4 20
BITMAP
F1F0
F1F0
F1F0
F1F0
F1F0
F1F0
F1F0
F1F0
F0F0
E0E0
E0E0
E0E0
60E0
6060
ENDCHAR
STARTCHAR 0023
ENCODING 35
SWIDTH 640 0
DWIDTH 32 0
BBX 30 35 1 0
BITMAP
000F01E0
001E01E0
001E03C0
001E03C0
001E03C0
003C03C0
003C0380
003C0780
003C0780
003C0780
00780780
3FFFFFFC
3FFFFFFC
3FFFFFFC
00700F00
00F00E00
00F01E00
00F01E00
00F01E00
01E01E00
01E03C00
01E03C00
FFFFFFF0
FFFFFFF0
FFFFFFF0
FFFFFFF0
03C07800
03807800
07807800
0780F000
0780F000
0780F000
0F00F000
0F00E000
0F01E000
ENDCHAR
STARTCHAR 0024
ENCODING 36
SWIDTH 560 0
DWIDTH 28 0
BBX 26 41 1 -3
BITMAP
001E0000
001E0000
001E0000
000C0000
001F0000
01FFF000
07FFFC00
1FFFFE00
1FE0FF00
3F003F00
3E000F80
7C000F80
7C000F80
7C000F80
7E000000
3F000000
3FC00000
1FF80000
1FFF8000
07FFF000
01FFFC00
007FFF00
0007FF00
00007F80
00001F80
00000FC0
000007C0
F80007C0
780007C0
780007C0
7C000F80
7E001F80
3F807F00
1FFFFF00
0FFFFE00
07FFF800
00FFC000
000C0000
001C0000
001E0000
001E0000
ENDCHAR
STARTCHAR 0025
ENCODING 37
SWIDTH 700 0
DWIDTH 35 0
BBX 32 34 2 0
BITMAP
1F8000F0
7FC001E0
FFE001C0
F0F003C0
E0700780
E0700700
E0700F00
E0700E00
E0701E00
E0703C00
E0703800
E0707800
E070F000
F0F0E000
7FE1E000
7FC1C000
1F83C000
000783F8
000707FC
000F0F1E
000E1E0E
001E1C0E
003C1C0F
00381C0F
00781C0F
00701C0F
00F01C0F
01E01C0F
01C01C0F
03C01E0E
03800E1E
07800FFE
0F0007FC
1E0001F0
ENDCHAR
STARTCHAR 0026
ENCODING 38
SWIDTH 680 0
DWIDTH 34 0
BBX 29 35 3 0
BITMAP
007E0000
03FE0000
0FFE0000
1FFE0000
3FC20000
3F000000
7E000000
7C000000
7C000F00
7C000F00
7C000F00
7C000F00
7E000F00
3E001F00
1F801F00
0FFFFFF8
07FFFFF8
03FFFFF8
0FFFFFF8
3FE01F00
7F001F00
7E001F00
FC001F00
F8001F00
F8001F00
F8001F00
F8001F00
FC001F00
7C001F00
7E001F00
3F801F00
3FFFFF00
0FFFFF00
07FFFF00
00FFFF00
ENDCHAR
STARTCHAR 0027
ENCODING 39
SWIDTH 240 0
DWIDTH 12 0
BBX 4 14 4 20
BITMAP
F0
F0
F0
F0
F0
F0
F0
F0
F0
E0
E0
E0
60
60
ENDCHAR
STARTCHAR 0028
ENCODING 40
SWIDTH 300 0
DWIDTH 15 0
BBX 11 42 2 -8
BITMAP
01E0
01C0
0380
0780
0700
0F00
1E00
1E00
1E00
3C00
3C00
7C00
7C00
7800
7800
7800
F800
F800
F800
F800
F800
F800
F800
F800
F800
F800
7800
7800
7800
7C00
3C00
3C00
3E00
1E00
1E00
0F00
0F00
0700
0780
0380
01C0
00E0
ENDCHAR
STARTCHAR 0029
ENCODING 41
SWIDTH 300 0
DWIDTH 15 0
BBX 11 42 1 -8
BITMAP
F000
7000
3800
3C00
1C00
1E00
0F00
0F00
0F00
0780
0780
07C0
03C0
03C0
03C0
03E0
03E0
03E0
01E0
01E0
01E0
01E0
01E0
03E0
03E0
03E0
03C0
03C0
03C0
07C0
0780
0780
0780
0F00
0F00
1E00
1E00
1C00
3C00
3800
7000
E000
ENDCHAR
STARTCHAR 002A
ENCODING 42
SWIDTH 480 0
DWIDTH 24 0
BBX 20 20 2 16
BITMAP
00F000
00F000
00F000
00F000
00F000
40F020
F060F0
FE67F0
FFFFF0
1FFFC0
01F800
01F800
03FC00
079C00
0F9E00
0F0F00
1E0F80
3E07C0
0C0300
000200
ENDCHAR
STARTCHAR 002B
ENCODING 43
SWIDTH 620 0
DWIDTH 31 0
BBX 25 26 3 0
BITMAP
003C0000
003C0000
003C0000
003C0000
003C0000
003C0000
003C0000
003C0000
003C0000
003C0000
003C0000
FFFFFF80
FFFFFF80
FFFFFF80
FFFFFF80
003C0000
003C0000
003C0000
003C0000
003C0000
003C0000
003C0000
003C0000
003C0000
003C0000
003C0000
ENDCHAR
STARTCHAR 002C
ENCODING 44
SWIDTH 260 0
DWIDTH 13 0
BBX 5 13 4 -7
BITMAP
F8
F8
F8
F8
F8
F8
38
38
38
38
70
F0
E0
ENDCHAR
STARTCHAR 002D
ENCODING 45
SWIDTH 380 0
DWIDTH 19 0
BBX 13 5 3 11
BITMAP
FFF8
FFF8
FFF8
FFF8
FFF8
ENDCHAR
STARTCHAR 002E
ENCODING 46
SWIDTH 260 0
DWIDTH 13 0
BBX 5 5 4 0
BITMAP
F8
F8
F8
F8
F8
ENDCHAR
STARTCHAR 002F
ENCODING 47
SWIDTH 620 0
DWIDTH 31 0
BBX 28 43 1 -9
BITMAP
000000F0
000001E0
000001E0
000003C0
000007C0
00000780
00000F80
00000F00
00001E00
00001E00
00003C00
00007C00
00007800
0000F800
0000F000
0001E000
0001E000
0003C000
0007C000
00078000
000F8000
000F0000
001E0000
001E0000
003C0000
007C0000
00780000
00F80000
00F00000
01E00000
01E00000
03C00000
07C00000
07800000
0F800000
0F000000
1E000000
1E000000
3C000000
7C000000
78000000
F8000000
F0000000
ENDCHAR
STARTCHAR 0030
ENCODING 48
SWIDTH 620 0
DWIDTH 31 0
BBX 24 36 3 -1
BITMAP
007E00
03FFC0
07FFF0
0FFFF8
1FC3FC
3F00FE
3E003E
7C003F
7C001F
7C001F
FC001F
FC001F
FC001F
FC001F
FC001F
FC001F
FC001F
FC001F
FC001F
FC001F
FC001F
FC001F
FC001F
FC001F
FC001F
7C001F
7C001F
7C001F
7E003E
3F007E
3F80FC
1FFFFC
0FFFF8
07FFE0
01FFC0
001800
ENDCHAR
STARTCHAR 0031
ENCODING 49
SWIDTH 620 0
DWIDTH 31 0
BBX 24 35 4 0
BITMAP
000E00
007E00
03FE00
FFFE00
FFFE00
FFFE00
FFFE00
007E00
007E00
007E00
007E00
007E00
007E00
007E00
007E00
007E00
007E00
007E00
007E00
007E00
007E00
007E00
007E00
007E00
007E00
007E00
007E00
007E00
007E00
007E00
007E00
FFFFFF
FFFFFF
FFFFFF
FFFFFF
ENDCHAR
STARTCHAR 0032
ENCODING 50
SWIDTH 620 0
DWIDTH 31 0
BBX 24 35 3 0
BITMAP
003F00
01FFE0
07FFF8
0FFFFC
1FE7FC
3F007E
3E003E
7C003F
7C001F
7C001F
78001F
78001F
78001F
00003F
00003E
00007E
0000FC
0001FC
0007F8
000FF0
001FC0
007F80
00FF00
03FC00
07F800
0FE000
1FC000
3F0000
7E0000
7E0000
7C0000
FFFFFF
FFFFFF
FFFFFF
FFFFFF
ENDCHAR
STARTCHAR 0033
ENCODING 51
SWIDTH 620 0
DWIDTH 31 0
BBX 25 36 3 -1
BITMAP
007F0000
03FFE000
0FFFF800
1FFFFC00
3FE3FC00
3F007E00
7E003E00
7C003F00
7C001F00
78001F00
00001F00
00001F00
00003E00
00007E00
0000FC00
0003F800
00FFF000
00FFE000
00FFF800
0003FC00
00007E00
00003F00
00001F00
00001F00
00000F80
F8000F80
F8001F80
F8001F00
FC001F00
7C003F00
7F00FE00
3FFFFC00
1FFFF800
0FFFF000
03FFC000
00180000
ENDCHAR
STARTCHAR 0034
ENCODING 52
SWIDTH 620 0
DWIDTH 31 0
BBX 26 35 2 0
BITMAP
001F0000
003E0000
003E0000
003E0000
007C0000
007C0C00
00F81C00
00F81C00
00F83C00
01F03C00
01F07C00
03E07C00
03E07C00
07C07C00
07C07C00
0F807C00
0F007C00
1F007C00
1E007C00
3E007C00
7C007C00
78007C00
FFFFFFC0
FFFFFFC0
FFFFFFC0
FFFFFFC0
00007C00
00007C00
00007C00
00007C00
00007C00
00007C00
00007C00
00007C00
00007C00
ENDCHAR
STARTCHAR 0035
ENCODING 53
SWIDTH 620 0
DWIDTH 31 0
BBX 23 35 4 -1
BITMAP
3FFFFC
3FFFFC
3FFFFC
3FFFFC
3C0000
3C0000
3C0000
3C0000
3C0000
7C0000
7C0000
7C0000
7CFF80
7DFFE0
7FFFF0
7FFFF8
7F01FC
7E00FC
7C007E
00003E
00003E
00003E
00003E
F0003E
F0003E
F8003E
F8003E
FC007E
7C00FC
7F01F8
3FFFF8
1FFFF0
0FFFC0
03FF80
003000
ENDCHAR
STARTCHAR 0036
ENCODING 54
SWIDTH 620 0
DWIDTH 31 0
BBX 24 36 4 -1
BITMAP
007E00
03FFC0
0FFFE0
1FFFF0
3FC7F8
7F00FC
7C007C
FC007C
F8003E
F8003E
F8003E
F80000
F80000
F81C00
F8FFC0
F9FFF0
FFFFF8
FF81FC
FE00FC
FC007E
FC003E
F8003E
F8003F
F8001F
F8001F
F8003F
F8003E
F8003E
7C007E
7E007C
3F00FC
3FEFF8
1FFFF0
0FFFE0
03FF80
003000
ENDCHAR
STARTCHAR 0037
ENCODING 55
SWIDTH 620 0
DWIDTH 31 0
BBX 24 34 4 0
BITMAP
FFFFFF
FFFFFF
FFFFFF
FFFFFE
00007C
0000F8
0000F0
0001F0
0003E0
0007C0
0007C0
000F80
000F80
001F00
003E00
003E00
007C00
007C00
00FC00
00F800
00F800
01F800
01F000
01F000
03F000
03E000
03E000
03E000
07E000
07E000
07E000
07E000
07E000
07E000
ENDCHAR
STARTCHAR 0038
ENCODING 56
SWIDTH 620 0
DWIDTH 31 0
BBX 25 36 3 -1
BITMAP
007F0000
03FFE000
07FFF000
0FFFF800
1F81FC00
3F007C00
3E003E00
3E003E00
7C003E00
7C001E00
7C001E00
3C003E00
3E003E00
3E007E00
1F00FC00
0FE3F800
07FFF000
03FFE000
0FFFF800
1FC1FC00
3F007E00
7E003F00
7C001F00
FC001F00
FC001F00
F8001F80
FC001F00
FC001F00
7C001F00
7E003F00
7F007E00
3FE3FE00
1FFFFC00
0FFFF000
03FFC000
00180000
ENDCHAR
STARTCHAR 0039
ENCODING 57
SWIDTH 620 0
DWIDTH 31 0
BBX 23 36 4 -1
BITMAP
007E00
03FF80
0FFFE0
1FFFF0
3F83F8
7E00FC
7C007C
FC007E
F8003E
F8003E
F8003E
F8003E
F8003E
F8003E
F8003E
FC007E
7C007E
7E00FE
3FC7FE
1FFFBE
0FFF3E
03FC3E
00003E
00003E
F8003E
F8003E
F8003E
78003E
7C007E
7E00FC
3F01FC
3FFFF8
1FFFF0
07FFE0
03FF80
001000
ENDCHAR
STARTCHAR 003A
ENCODING 58
SWIDTH 260 0
DWIDTH 13 0
BBX 5 25 4 0
BITMAP
F8
F8
F8
F8
F8
00
00
00
00
00
00
00
00
00
00
00
00
00
00
00
F8
F8
F8
F8
F8
ENDCHAR
STARTCHAR 003B
ENCODING 59
SWIDTH 260 0
DWIDTH 13 0
BBX 5 32 4 -7
BITMAP
F8
F8
F8
F8
F8
00
00
00
00
00
00
00
00
00
00
00
00
00
00
F8
F8
F8
F8
F8
F8
38
38
38
38
70
F0
E0
ENDCHAR
STARTCHAR 003C
ENCODING 60
SWIDTH 620 0
DWIDTH 31 0
BBX 26 25 2 0
BITMAP
000000C0
000007C0
00001FC0
0000FFC0
0003FF80
001FFC00
00FFF000
03FF8000
1FFC0000
7FF00000
FF800000
FE000000
F8000000
FF000000
FFC00000
3FF80000
0FFE0000
01FFC000
007FF800
000FFE00
0001FFC0
00007FC0
00000FC0
000003C0
00000040
ENDCHAR
STARTCHAR 003D
ENCODING 61
SWIDTH 600 0
DWIDTH 30 0
BBX 25 15 3 5
BITMAP
FFFFFF80
FFFFFF80
FFFFFF80
FFFFFF80
00000000
00000000
00000000
00000000
00000000
00000000
00000000
FFFFFF80
FFFFFF80
FFFFFF80
FFFFFF80
ENDCHAR
STARTCHAR 003E
ENCODING 62
SWIDTH 620 0
DWIDTH 31 0
BBX 26 25 3 0
BITMAP
C0000000
F8000000
FE000000
FFC00000
7FF00000
1FFE0000
03FF8000
007FF000
001FFE00
0003FF80
00007FC0
00001FC0
000007C0
00003FC0
0000FFC0
0007FF00
003FF800
00FFE000
07FF0000
3FFC0000
FFE00000
FF800000
FC000000
E0000000
80000000
ENDCHAR
STARTCHAR 003F
ENCODING 63
SWIDTH 520 0
DWIDTH 26 0
BBX 22 35 2 0
BITMAP
00FE00
07FFC0
0FFFE0
1FFFF0
3F03F8
7E01F8
7C00FC
F800FC
F8007C
F8007C
F8007C
F800FC
0000FC
0001F8
0003F8
0007F0
000FE0
001FC0
003F80
003E00
007E00
007C00
007C00
007C00
007C00
007C00
000000
000000
000000
000000
007C00
007C00
007C00
007C00
007C00
ENDCHAR
STARTCHAR 0040
ENCODING 64
SWIDTH 900 0
DWIDTH 45 0
BBX 41 43 2 -8
BITMAP
00007F800000
000FFFF80000
003FFFFF0000
00FE003F8000
01F00007E000
03C00001F000
07800000F800
0F0000003800
1E0000003C00
1C00FF801E00
3807FFF00E00
380FFFF80E00
701FF7FC0700
703F007C0700
703E007E0700
E03E003E0700
E03E003E0380
E000003E0380
E000003E0380
E000003E0380
E0007FFE0380
E007FFFE0380
E01FFFFE0380
E03FC03E0380
E03F003E0700
E07E003E0700
E07C003E0700
E07C003E0700
E07C007E0E00
707C00FE0E00
707E01FE1C00
707F03FE3C00
383FFFBFF800
381FFF1FF000
3C0FFC0FC000
1E00C0000000
0F0000000000
078000000000
07C000000000
01F800600000
00FFFFE00000
003FFFE00000
0003FF000000
ENDCHAR
STARTCHAR 0041
ENCODING 65
SWIDTH 680 0
DWIDTH 34 0
BBX 33 34 0 0
BITMAP
0007F00000
0007F00000
0007F80000
000FF80000
000FFC0000
000FFC0000
001F7C0000
001F7E0000
003E3E0000
003E3F0000
003E1F0000
007C1F0000
007C1F8000
00FC0F8000
00F80FC000
00F80FC000
01F007C000
01F007E000
03F003E000
03E003E000
03E003F000
07E001F000
07FFFFF800
07FFFFF800
0FFFFFF800
0FFFFFFC00
1F80007C00
1F00007E00
1F00007E00
3F00003E00
3E00003F00
7E00003F00
7C00001F00
FC00001F80
ENDCHAR
STARTCHAR 0042
ENCODING 66
SWIDTH 660 0
DWIDTH 33 0
BBX 25 34 5 0
BITMAP
FFFFE000
FFFFF800
FFFFFC00
FFFFFE00
F8007E00
F8003F00
F8003F00
F8001F00
F8001F00
F8001F00
F8003F00
F8003E00
F8007E00
F800FC00
FFFFF800
FFFFE000
FFFFE000
FFFFF800
FFFFFC00
F8007E00
F8003F00
F8001F00
F8001F80
F8001F80
F8001F80
F8001F80
F8001F00
F8003F00
F8007F00
F800FE00
FFFFFE00
FFFFFC00
FFFFF000
FFFFC000
ENDCHAR
STARTCHAR 0043
ENCODING 67
SWIDTH 680 0
DWIDTH 34 0
BBX 28 36 3 -1
BITMAP
001FC000
00FFF800
03FFFE00
07FFFF00
0FF9FF80
1FC01FC0
3F000FC0
3E0007E0
7E0003E0
7E0003E0
7C0003E0
7C0001F0
FC0001F0
FC0001F0
FC000000
FC000000
FC000000
FC000000
FC000000
FC000000
FC000000
FC000000
FC0001F0
FC0001F0
7C0001F0
7C0003E0
7E0003E0
7E0003E0
3F0007E0
3F800FC0
1FC01F80
0FFFFF80
07FFFF00
03FFFC00
00FFF000
00060000
ENDCHAR
STARTCHAR 0044
ENCODING 68
SWIDTH 680 0
DWIDTH 34 0
BBX 26 34 5 0
BITMAP
FFFF8000
FFFFF000
FFFFF800
FFFFFC00
F801FE00
F8007F00
F8003F00
F8001F80
F8001F80
F8000F80
F8000F80
F8000FC0
F8000FC0
F8000FC0
F8000FC0
F8000FC0
F8000FC0
F8000FC0
F8000FC0
F8000FC0
F8000FC0
F8000FC0
F8000F80
F8000F80
F8001F80
F8001F80
F8003F00
F8003F00
F800FE00
F803FC00
FFFFF800
FFFFF000
FFFFE000
FFFF0000
ENDCHAR
STARTCHAR 0045
ENCODING 69
SWIDTH 600 0
DWIDTH 30 0
BBX 23 34 5 0
BITMAP
FFFFFC
FFFFFC
FFFFFC
FFFFFC
F80000
F80000
F80000
F80000
F80000
F80000
F80000
F80000
F80000
F80000
FFFFF0
FFFFF0
FFFFF0
FFFFF0
FFFFF0
F80000
F80000
F80000
F80000
F80000
F80000
F80000
F80000
F80000
F80000
F80000
FFFFFC
FFFFFC
FFFFFC
FFFFFE
ENDCHAR
STARTCHAR 0046
ENCODING 70
SWIDTH 560 0
DWIDTH 28 0
BBX 21 34 5 0
BITMAP
FFFFF8
FFFFF8
FFFFF8
FFFFF8
F80000
F80000
F80000
F80000
F80000
F80000
F80000
F80000
F80000
F80000
F80000
FFFFE0
FFFFE0
FFFFE0
FFFFE0
F80000
F80000
F80000
F80000
F80000
F80000
F80000
F80000
F80000
F80000
F80000
F80000
F80000
F80000
F80000
ENDCHAR
STARTCHAR 0047
ENCODING 71
SWIDTH 680 0
DWIDTH 34 0
BBX 28 36 3 -1
BITMAP
001FC000
01FFF800
03FFFE00
0FFFFF00
0FF9FF80
1FC01FC0
3F000FC0
3E0007E0
7E0003E0
7E0003E0
7C0003F0
7C0001F0
FC0001F0
FC000000
FC000000
FC000000
FC000000
FC07FFF0
FC07FFF0
FC07FFF0
FC07FFF0
FC0001F0
FC0001F0
FC0001F0
7C0001F0
7C0003F0
7E0003F0
7E0003F0
3F0007F0
3F800FF0
1FC01FF0
0FFFFEF0
07FFFCF0
03FFF870
00FFE070
000C0000
ENDCHAR
STARTCHAR 0048
ENCODING 72
SWIDTH 700 0
DWIDTH 35 0
BBX 25 34 5 0
BITMAP
F8000F80
F8000F80
F8000F80
F8000F80
F8000F80
F8000F80
F8000F80
F8000F80
F8000F80
F8000F80
F8000F80
F8000F80
F8000F80
F8000F80
FFFFFF80
FFFFFF80
FFFFFF80
FFFFFF80
FFFFFF80
F8000F80
F8000F80
F8000F80
F8000F80
F8000F80
F8000F80
F8000F80
F8000F80
F8000F80
F8000F80
F8000F80
F8000F80
F8000F80
F8000F80
F8000F80
ENDCHAR
STARTCHAR 0049
ENCODING 73
SWIDTH 400 0
DWIDTH 20 0
BBX 13 34 3 0
BITMAP
FFF8
FFF8
FFF8
FFF8
0F80
0F80
0F80
0F80
0F80
0F80
0F80
0F80
0F80
0F80
0F80
0F80
0F80
0F80
0F80
0F80
0F80
0F80
0F80
0F80
0F80
0F80
0F80
0F80
0F80
0F80
FFF8
FFF8
FFF8
FFF8
ENDCHAR
STARTCHAR 004A
ENCODING 74
SWIDTH 540 0
DWIDTH 27 0
BBX 20 35 2 -1
BITMAP
0001F0
0001F0
0001F0
0001F0
0001F0
0001F0
0001F0
0001F0
0001F0
0001F0
0001F0
0001F0
0001F0
0001F0
0001F0
0001F0
0001F0
0001F0
0001F0
0001F0
0001F0
0001F0
0001F0
0001F0
F801F0
F801F0
F801F0
F801F0
FC03F0
FE07E0
7FFFE0
3FFFC0
1FFF80
0FFE00
006000
ENDCHAR
STARTCHAR 004B
ENCODING 75
SWIDTH 640 0
DWIDTH 32 0
BBX 26 34 5 0
BITMAP
F8001FC0
F8001F00
F8003F00
F8007E00
F800FC00
F801F800
F803F000
F803E000
F807E000
F80FC000
F81F8000
F83F0000
F87E0000
F8FC0000
F8FC0000
F9FE0000
FBFE0000
FFFF0000
FFFF0000
FF9F8000
FF0FC000
FE0FC000
FE07E000
FC03F000
F803F000
F801F800
F800FC00
F800FC00
F8007E00
F8007F00
F8003F00
F8001F80
F8001F80
F8000FC0
ENDCHAR
STARTCHAR 004C
ENCODING 76
SWIDTH 540 0
DWIDTH 27 0
BBX 21 34 5 0
BITMAP
F80000
F80000
F80000
F80000
F80000
F80000
F80000
F80000
F80000
F80000
F80000
F80000
F80000
F80000
F80000
F80000
F80000
F80000
F80000
F80000
F80000
F80000
F80000
F80000
F80000
F80000
F80000
F80000
F80000
F80000
FFFFF0
FFFFF8
FFFFF8
FFFFF8
ENDCHAR
STARTCHAR 004D
ENCODING 77
SWIDTH 960 0
DWIDTH 48 0
BBX 38 34 5 0
BITMAP
FF000007FC
FF800007FC
FF80000FFC
FFC0000FFC
FFC0000FFC
FFC0001FFC
F7E0001F7C
F7E0003F7C
F3F0003E7C
F3F0003E7C
F3F0007E7C
F1F8007C7C
F1F800FC7C
F0FC00F87C
F0FC00F87C
F0FC01F87C
F07E01F07C
F07E03F07C
F03F03E07C
F03F03E07C
F03F07E07C
F01F87C07C
F01F8FC07C
F00FCFC07C
F00FCF807C
F00FDF807C
F007FF007C
F007FF007C
F007FF007C
F003FE007C
F003FE007C
F001FC007C
F001FC007C
F001FC007C
ENDCHAR
STARTCHAR 004E
ENCODING 78
SWIDTH 700 0
DWIDTH 35 0
BBX 25 34 5 0
BITMAP
F8000F80
F8000F80
FC000F80
FE000F80
FE000F80
FF000F80
FF800F80
FF800F80
FFC00F80
F7E00F80
F7E00F80
F3F00F80
F3F00F80
F1F80F80
F0FC0F80
F0FC0F80
F07E0F80
F03F0F80
F03F0F80
F01F8F80
F00FCF80
F00FCF80
F007EF80
F003FF80
F003FF80
F001FF80
F000FF80
F000FF80
F0007F80
F0003F80
F0003F80
F0001F80
F0000F80
F0000F80
ENDCHAR
STARTCHAR 004F
ENCODING 79
SWIDTH 700 0
DWIDTH 35 0
BBX 29 36 3 -1
BITMAP
001FC000
00FFF800
03FFFE00
07FFFF00
0FFDFF80
1FC01FC0
3F800FE0
3F0007E0
7E0003F0
7E0003F0
7C0001F0
7C0001F0
FC0001F8
FC0001F8
FC0001F8
FC0001F8
FC0001F8
FC0001F8
FC0001F8
FC0001F8
FC0001F8
FC0001F8
FC0001F8
FC0001F8
7C0001F0
7C0001F0
7E0003F0
7E0003E0
3F0007E0
3F800FE0
1FC01FC0
0FFFFF80
07FFFF00
03FFFE00
00FFF800
00070000
ENDCHAR
STARTCHAR 0050
ENCODING 80
SWIDTH 640 0
DWIDTH 32 0
BBX 25 34 5 0
BITMAP
FFFFE000
FFFFF800
FFFFFC00
FFFFFE00
F800FF00
F8003F00
F8001F00
F8001F80
F8001F80
F8001F80
F8001F80
F8001F80
F8001F00
F8003F00
F8007E00
FFFFFE00
FFFFFC00
FFFFF800
FFFFE000
FFFF0000
F8000000
F8000000
F8000000
F8000000
F8000000
F8000000
F8000000
F8000000
F8000000
F8000000
F8000000
F8000000
F8000000
F8000000
ENDCHAR
STARTCHAR 0051
ENCODING 81
SWIDTH 700 0
DWIDTH 35 0
BBX 29 42 3 -7
BITMAP
001FC000
00FFF800
03FFFE00
07FFFF00
0FFDFF80
1FC01FC0
3F800FE0
3F0007E0
7E0003F0
7E0003F0
7C0001F0
7C0001F0
FC0001F8
FC0001F8
FC0001F8
FC0001F8
FC0001F8
FC0001F8
FC0001F8
FC0001F8
FC0001F8
FC0001F8
FC0001F8
FC0001F8
7C0001F0
7C0001F0
7E0003F0
7E0003E0
3F0007E0
3F800FC0
1FC01FC0
0FFFFF80
07FFFF00
03FFFC00
00FFF000
000FC000
0007C000
0007E010
0003F8F0
0003FFF0
0001FFF0
00007FC0
ENDCHAR
STARTCHAR 0052
ENCODING 82
SWIDTH 680 0
DWIDTH 34 0
BBX 27 34 5 0
BITMAP
FFFFF000
FFFFF800
FFFFFC00
FFFFFE00
F8007F00
F8003F00
F8001F80
F8001F80
F8001F80
F8001F80
F8001F00
F8001F00
F8003F00
F8003E00
F8007C00
FFFFF800
FFFFF000
FFFFE000
FFFFF800
F807FC00
F800FE00
F8007E00
F8003F00
F8003F00
F8001F00
F8001F00
F8001F00
F8001F00
F8001F00
F8001F00
F8001F80
F8001F80
F8000FE0
F80007E0
ENDCHAR
STARTCHAR 0053
ENCODING 83
SWIDTH 640 0
DWIDTH 32 0
BBX 26 36 3 -1
BITMAP
003F0000
03FFF000
0FFFFC00
1FFFFE00
3FF3FF00
7F003F00
7E001F80
7C000F80
FC000F80
FC000F80
FC000000
7E000000
7F000000
7FC00000
3FF80000
1FFF8000
0FFFF000
03FFFC00
00FFFE00
000FFF00
0001FF80
00003F80
00001FC0
00000FC0
F8000FC0
F80007C0
F80007C0
F8000FC0
F8000FC0
FC001F80
7F003F80
3FFFFF00
1FFFFE00
0FFFF800
03FFE000
00080000
ENDCHAR
STARTCHAR 0054
ENCODING 84
SWIDTH 580 0
DWIDTH 29 0
BBX 27 34 1 0
BITMAP
FFFFFFE0
FFFFFFE0
FFFFFFE0
FFFFFFE0
001F0000
001F0000
001F0000
001F0000
001F0000
001F0000
001F0000
001F0000
001F0000
001F0000
001F0000
001F0000
001F0000
001F0000
001F0000
001F0000
001F0000
001F0000
001F0000
001F0000
001F0000
001F0000
001F0000
001F0000
001F0000
001F0000
001F0000
001F0000
001F0000
001F0000
ENDCHAR
STARTCHAR 0055
ENCODING 85
SWIDTH 680 0
DWIDTH 34 0
BBX 26 35 4 -1
BITMAP
FC000FC0
FC000FC0
FC000FC0
FC000FC0
FC000FC0
FC000FC0
FC000FC0
FC000FC0
FC000FC0
FC000FC0
FC000FC0
FC000FC0
FC000FC0
FC000FC0
FC000FC0
FC000FC0
FC000FC0
FC000FC0
FC000FC0
FC000FC0
FC000FC0
FC000FC0
FC000FC0
FC000FC0
FC000FC0
FC000FC0
7C000F80
7E001F80
7F003F80
3F807F00
1FFFFE00
0FFFFC00
07FFF800
01FFE000
000C0000
ENDCHAR
STARTCHAR 0056
ENCODING 86
SWIDTH 620 0
DWIDTH 31 0
BBX 30 34 1 0
BITMAP
F80000FC
FC0000F8
7C0001F8
7C0001F0
7E0001F0
3E0003E0
3F0003E0
3F0003E0
1F0007C0
1F8007C0
1F8007C0
0F800F80
0FC00F80
0FC00F80
07C01F00
07E01F00
07E03F00
03E03E00
03F03E00
01F07E00
01F07C00
01F87C00
00F8F800
00FCF800
00FCF800
007DF000
007FF000
007FF000
003FE000
003FE000
003FE000
001FC000
001FC000
001FC000
ENDCHAR
STARTCHAR 0057
ENCODING 87
SWIDTH 960 0
DWIDTH 48 0
BBX 45 34 1 0
BITMAP
FC000FC000F8
7C000FC000F8
7E000FC001F0
7E001FE001F0
3E001FE001F0
3F001FE001F0
3F001FF003E0
1F003FF003E0
1F003FF003E0
1F803FF007C0
1F807DF807C0
0F807CF807C0
0F807CF807C0
0FC078FC0F80
07C0F8FC0F80
07C0F87C0F80
07E0F87C0F00
07E1F07E1F00
03E1F03E1F00
03E1F03E1F00
03F1F03F3E00
01F3E03F3E00
01F3E01F3E00
01FBE01F3C00
01FFC01FFC00
00FFC00FFC00
00FFC00FFC00
00FFC00FF800
007F800FF800
007F8007F800
007F8007F000
007F0007F000
003F0003F000
003F0003F000
ENDCHAR
STARTCHAR 0058
ENCODING 88
SWIDTH 640 0
DWIDTH 32 0
BBX 31 34 1 0
BITMAP
7F0001F8
3F0001F0
1F8003F0
1FC007E0
0FC007C0
07E00FC0
07F01F80
03F01F00
01F83F00
01FC7E00
00FCFC00
007EFC00
007FF800
003FF000
001FE000
001FE000
001FE000
001FE000
003FF000
007FF800
007DF800
00FCFC00
01F87E00
01F07F00
03F03F00
07E01F80
07C01FC0
0FC00FC0
1F8007E0
1F0007F0
3F0003F0
7E0001F8
7C0001FC
FC0000FE
ENDCHAR
STARTCHAR 0059
ENCODING 89
SWIDTH 600 0
DWIDTH 30 0
BBX 30 34 0 0
BITMAP
FE0000FC
7E0001F0
3F0001F0
3F0003E0
1F8007E0
0F8007C0
0FC00FC0
07E00F80
07E01F80
03F01F00
03F03E00
01F87E00
00F87C00
00FCFC00
007CF800
007FF800
003FF000
003FE000
001FE000
000FC000
000FC000
000FC000
000FC000
000FC000
000FC000
000FC000
000FC000
000FC000
000FC000
000FC000
000FC000
000FC000
000FC000
000FC000
ENDCHAR
STARTCHAR 005A
ENCODING 90
SWIDTH 600 0
DWIDTH 30 0
BBX 26 34 2 0
BITMAP
7FFFFFC0
7FFFFFC0
7FFFFF80
7FFFFF00
00003F00
00007E00
0000FE00
0000FC00
0001F800
0003F800
0003F000
0007E000
000FE000
000FC000
001F8000
001F8000
003F0000
007E0000
007E0000
00FC0000
01F80000
01F80000
03F00000
07F00000
07E00000
0FC00000
1FC00000
1F800000
3F000000
7F000000
7FFFFFC0
FFFFFFC0
FFFFFFC0
FFFFFFC0
ENDCHAR
STARTCHAR 005B
ENCODING 91
SWIDTH 300 0
DWIDTH 15 0
BBX 8 42 4 -8
BITMAP
FF
FF
F0
F0
F0
F0
F0
F0
F0
F0
F0
F0
F0
F0
F0
F0
F0
F0
F0
F0
F0
F0
F0
F0
F0
F0
F0
F0
F0
F0
F0
F0
F0
F0
F0
F0
F0
F0
F0
FF
FF
FF
ENDCHAR
STARTCHAR 005C
ENCODING 92
SWIDTH 620 0
DWIDTH 31 0
BBX 28 43 1 -9
BITMAP
F0000000
78000000
7C000000
3C000000
3E000000
1E000000
0F000000
0F000000
07800000
07C00000
03C00000
03E00000
01E00000
00F00000
00F00000
00780000
007C0000
003C0000
003E0000
001E0000
000F0000
000F0000
00078000
0007C000
0003C000
0003E000
0001E000
0000F000
0000F000
00007800
00007C00
00003C00
00003E00
00001E00
00000F00
00000F00
00000780
000007C0
000003C0
000003E0
000001E0
000000F0
000000F0
ENDCHAR
STARTCHAR 005D
ENCODING 93
SWIDTH 300 0
DWIDTH 15 0
BBX 8 42 2 -8
BITMAP
FF
FF
0F
0F
0F
0F
0F
0F
0F
0F
0F
0F
0F
0F
0F
0F
0F
0F
0F
0F
0F
0F
0F
0F
0F
0F
0F
0F
0F
0F
0F
0F
0F
0F
0F
0F
0F
0F
0F
FF
FF
FF
ENDCHAR
STARTCHAR 005E
ENCODING 94
SWIDTH 600 0
DWIDTH 30 0
BBX 25 26 2 0
BITMAP
003F0000
003F0000
007F0000
007F8000
007F8000
00FFC000
00F3C000
00F3C000
01F3E000
01E1E000
03E1E000
03C0F000
03C0F000
07C0F800
07807800
0F807800
0F007C00
0F003C00
1F003E00
1E001E00
1E001E00
3E001F00
3C000F00
7C000F00
78000F80
F8000780
ENDCHAR
STARTCHAR 005F
ENCODING 95
SWIDTH 700 0
DWIDTH 35 0
BBX 25 4 5 -7
BITMAP
FFFFFF80
FFFFFF80
FFFFFF80
FFFFFF80
ENDCHAR
STARTCHAR 0060
ENCODING 96
SWIDTH 580 0
DWIDTH 29 0
BBX 9 9 10 29
BITMAP
F800
7C00
3C00
3E00
1E00
0F00
0F00
0780
0780
ENDCHAR
STARTCHAR 0061
ENCODING 97
SWIDTH 600 0
DWIDTH 30 0
BBX 26 27 2 -1
BITMAP
01FF8000
07FFE000
1FFFF800
3FE7F800
3F00FC00
7E007C00
7C007C00
7C007C00
00007C00
00007C00
00007C00
00FFFC00
07FFFC00
1FFFFC00
3FC07C00
7E007C00
7C007C00
FC007C00
FC007C00
FC007C00
FC00FC00
7C01FC00
7F07BE40
7FFF3FC0
3FFE3FC0
0FF81FC0
00800200
ENDCHAR
STARTCHAR 0062
ENCODING 98
SWIDTH 580 0
DWIDTH 29 0
BBX 23 37 4 -1
BITMAP
F80000
F80000
F80000
F80000
F80000
F80000
F80000
F80000
F80000
F80000
F87F00
F9FFC0
FBFFE0
FFFFF0
FF01F8
FE00F8
FC00FC
FC007C
F8007C
F8007C
F8007E
F8007E
F8007E
F8007E
F8007E
F8007C
F8007C
F8007C
F8007C
FC00FC
FC00F8
FE01F8
EF83F0
E7FFE0
C3FFC0
C1FF80
000800
ENDCHAR
STARTCHAR 0063
ENCODING 99
SWIDTH 560 0
DWIDTH 28 0
BBX 22 27 3 -1
BITMAP
00FF00
07FFC0
0FFFE0
1FFFF0
3F01F8
3E00F8
7C007C
7C007C
F8003C
F8003C
F80000
F80000
F80000
F80000
F80000
F80000
F8003C
F8003C
FC003C
7C007C
7E0078
3E00F8
1F83F0
1FFFE0
07FFC0
03FF00
003000
ENDCHAR
STARTCHAR 0064
ENCODING 100
SWIDTH 600 0
DWIDTH 30 0
BBX 23 37 3 -1
BITMAP
00003E
00003E
00003E
00003E
00003E
00003E
00003E
00003E
00003E
00003E
01F83E
07FE3E
1FFFBE
1FFFBE
3F01FE
7E00FE
7C00FE
FC007E
F8007E
F8007E
F8003E
F8003E
F8003E
F8003E
F8003E
F8003E
F8007E
F8007E
FC007E
7C007E
7C00FE
3E01FE
3F83FE
1FFFBE
0FFF3E
03FE1E
002000
ENDCHAR
STARTCHAR 0065
ENCODING 101
SWIDTH 580 0
DWIDTH 29 0
BBX 23 27 3 -1
BITMAP
00FF00
07FFC0
0FFFE0
1FFFF0
3F01F8
7E00FC
7C007C
7C007C
F8003C
F8003E
F8003E
FFFFFE
FFFFFE
FFFFFE
F80000
F80000
F8003E
F8003E
FC003C
7C007C
7E007C
3F00F8
3F83F8
1FFFF0
0FFFE0
03FF80
003000
ENDCHAR
STARTCHAR 0066
ENCODING 102
SWIDTH 360 0
DWIDTH 18 0
BBX 14 36 2 0
BITMAP
03FC
07FC
0FFC
0FC4
1F80
1F00
1F00
1F00
1F00
1F00
FFFC
FFFC
FFFC
FFFC
1F00
1F00
1F00
1F00
1F00
1F00
1F00
1F00
1F00
1F00
1F00
1F00
1F00
1F00
1F00
1F00
1F00
1F00
1F00
1F00
1F00
1F00
ENDCHAR
STARTCHAR 0067
ENCODING 103
SWIDTH 580 0
DWIDTH 29 0
BBX 26 39 2 -9
BITMAP
000003C0
000007C0
00000780
00000F80
00FFBF00
03FFFE00
07FFF800
0FC1FC00
1F007C00
1F003E00
3E003E00
3E003E00
3E003E00
3E003E00
3F003E00
1F007C00
0FC1FC00
0FFFF800
07FFE000
1FFF8000
3E000000
3C000000
7C000000
7C000000
7E000000
3FFFE000
1FFFFE00
0FFFFF00
3FFFFF80
7E001F80
780007C0
F80007C0
F00007C0
F80007C0
F8000FC0
FC001F80
7FFFFF00
3FFFFF00
1FFFFC00
ENDCHAR
STARTCHAR 0068
ENCODING 104
SWIDTH 600 0
DWIDTH 30 0
BBX 22 36 4 0
BITMAP
F80000
F80000
F80000
F80000
F80000
F80000
F80000
F80000
F80000
F80000
F83F00
F9FFC0
FBFFE0
FFFFF0
FF03F8
FE00F8
FC00FC
FC007C
F8007C
F8007C
F8007C
F8007C
F8007C
F8007C
F8007C
F8007C
F8007C
F8007C
F8007C
F8007C
F8007C
F8007C
F8007C
F8007C
F8007C
F8007C
ENDCHAR
STARTCHAR 0069
ENCODING 105
SWIDTH 280 0
DWIDTH 14 0
BBX 6 36 4 0
BITMAP
FC
FC
FC
FC
00
00
00
00
00
00
F8
F8
F8
F8
F8
F8
F8
F8
F8
F8
F8
F8
F8
F8
F8
F8
F8
F8
F8
F8
F8
F8
F8
F8
F8
F8
ENDCHAR
STARTCHAR 006A
ENCODING 106
SWIDTH 280 0
DWIDTH 14 0
BBX 12 45 -2 -9
BITMAP
03F0
03F0
03F0
03F0
0000
0000
0000
0000
0000
0000
03E0
03E0
03E0
03E0
03E0
03E0
03E0
03E0
03E0
03E0
03E0
03E0
03E0
03E0
03E0
03E0
03E0
03E0
03E0
03E0
03E0
03E0
03E0
03E0
03E0
03E0
03E0
03E0
03E0
03E0
03E0
C7E0
FFE0
FFC0
7F00
ENDCHAR
STARTCHAR 006B
ENCODING 107
SWIDTH 560 0
DWIDTH 28 0
BBX 23 36 4 0
BITMAP
F80000
F80000
F80000
F80000
F80000
F80000
F80000
F80000
F80000
F80000
F8007E
F800FC
F801F8
F803F0
F807E0
F80FC0
F80F80
F81F80
F83F00
F87E00
F8FC00
F9F800
F9F800
FBF800
FFFC00
FFFE00
FF3F00
FE3F80
FC1F80
F80FC0
F807E0
F803F0
F803F8
F801F8
F800FC
F8007E
ENDCHAR
STARTCHAR 006C
ENCODING 108
SWIDTH 260 0
DWIDTH 13 0
BBX 5 36 4 0
BITMAP
F8
F8
F8
F8
F8
F8
F8
F8
F8
F8
F8
F8
F8
F8
F8
F8
F8
F8
F8
F8
F8
F8
F8
F8
F8
F8
F8
F8
F8
F8
F8
F8
F8
F8
F8
F8
ENDCHAR
STARTCHAR 006D
ENCODING 109
SWIDTH 880 0
DWIDTH 44 0
BBX 35 26 4 0
BITMAP
F07E00FC00
F1FF83FF00
F3FFC7FF80
F7FFEFFFC0
FF07FE0FE0
FE03FC07E0
FC01F803E0
F801F803E0
F801F003E0
F801F003E0
F801F003E0
F801F003E0
F801F003E0
F801F003E0
F801F003E0
F801F003E0
F801F003E0
F801F003E0
F801F003E0
F801F003E0
F801F003E0
F801F003E0
F801F003E0
F801F003E0
F801F003E0
F801F003E0
ENDCHAR
STARTCHAR 006E
ENCODING 110
SWIDTH 600 0
DWIDTH 30 0
BBX 22 26 4 0
BITMAP
F07F00
F1FFC0
F3FFE0
F7FFF0
FF03F8
FE00F8
FC00F8
FC00FC
F8007C
F8007C
F8007C
F8007C
F8007C
F8007C
F8007C
F8007C
F8007C
F8007C
F8007C
F8007C
F8007C
F8007C
F8007C
F8007C
F8007C
F8007C
ENDCHAR
STARTCHAR 006F
ENCODING 111
SWIDTH 580 0
DWIDTH 29 0
BBX 24 27 3 -1
BITMAP
00FF00
07FFC0
0FFFE0
1FFFF0
3F01F8
3E00FC
7C007C
7C003E
F8003E
F8003E
F8003E
F8003F
F8003F
F8003F
F8003F
F8003F
F8003E
F8003E
7C003E
7C007E
7E007C
3F00F8
1F83F8
0FFFF0
07FFE0
01FF80
001000
ENDCHAR
STARTCHAR 0070
ENCODING 112
SWIDTH 580 0
DWIDTH 29 0
BBX 23 35 4 -9
BITMAP
F07F00
F1FFC0
F3FFE0
F7FFF0
FF01F8
FE00F8
FC00FC
FC007C
F8007C
F8007C
F8007C
F8007E
F8007E
F8007E
F8007E
F8007E
F8007C
F8007C
F8007C
FC00FC
FC00F8
FE01F8
FF87F0
FFFFE0
FBFFC0
F8FF80
F80800
F80000
F80000
F80000
F80000
F80000
F80000
F80000
F80000
ENDCHAR
STARTCHAR 0071
ENCODING 113
SWIDTH 600 0
DWIDTH 30 0
BBX 23 35 3 -9
BITMAP
01FC06
07FF0E
0FFF8E
1FFFDE
3F01FE
7E00FE
7C00FE
7C007E
F8007E
F8007E
F8007E
F8003E
F8003E
F8003E
F8003E
F8003E
F8007E
F8007E
FC007E
7C007E
7E00FE
3E01FE
3F87FE
1FFFBE
0FFF3E
03FC3E
00403E
00003E
00003E
00003E
00003E
00003E
00003E
00003E
00003E
ENDCHAR
STARTCHAR 0072
ENCODING 114
SWIDTH 500 0
DWIDTH 25 0
BBX 19 26 4 0
BITMAP
F0FE00
F1FF00
F3FF80
F7FFC0
FF07E0
FC03E0
FC03E0
F801E0
F801E0
F801E0
F80000
F80000
F80000
F80000
F80000
F80000
F80000
F80000
F80000
F80000
F80000
F80000
F80000
F80000
F80000
F80000
ENDCHAR
STARTCHAR 0073
ENCODING 115
SWIDTH 540 0
DWIDTH 27 0
BBX 23 27 2 -1
BITMAP
01FF00
07FFC0
1FFFF0
3FFFF8
3E00F8
7C007C
7C007C
7C003C
7C0000
7F0000
3FE000
3FFF00
0FFFE0
07FFF8
007FF8
0003FC
0000FC
00003E
F8003E
F8003E
78003C
7C007C
7F01FC
3FFFF8
1FFFF0
07FFC0
003800
ENDCHAR
STARTCHAR 0074
ENCODING 116
SWIDTH 380 0
DWIDTH 19 0
BBX 14 35 2 -1
BITMAP
0700
0700
0F00
0F00
0F00
0F00
1F00
1F00
FFFC
FFFC
FFFC
FFFC
1F00
1F00
1F00
1F00
1F00
1F00
1F00
1F00
1F00
1F00
1F00
1F00
1F00
1F00
1F00
1F00
1F00
1F00
1F84
1FFC
0FFC
07FC
0040
ENDCHAR
STARTCHAR 0075
ENCODING 117
SWIDTH 620 0
DWIDTH 31 0
BBX 25 27 4 -1
BITMAP
F800FC00
F800FC00
F800FC00
F800FC00
F800FC00
F800FC00
F800FC00
F800FC00
F800FC00
F800FC00
F800FC00
F800FC00
F800FC00
F800FC00
F800FC00
F800FC00
F800FC00
F800FC00
F800FC00
F800FC00
FC01FC00
FC03FC00
7F9FFC80
7FFF7F80
3FFE7F80
0FF83F80
00800400
ENDCHAR
STARTCHAR 0076
ENCODING 118
SWIDTH 520 0
DWIDTH 26 0
BBX 25 26 1 0
BITMAP
F8000F80
FC001F00
7C001F00
7C001E00
7E003E00
3E003E00
3E007C00
1F007C00
1F007800
1F80F800
0F80F800
0F80F000
0FC1F000
07C1F000
07C3E000
03E3E000
03E3C000
03E7C000
01F7C000
01F78000
01FF8000
00FF8000
00FF0000
007F0000
007E0000
007E0000
ENDCHAR
STARTCHAR 0077
ENCODING 119
SWIDTH 820 0
DWIDTH 41 0
BBX 39 26 1 0
BITMAP
F8007C003E
FC007E003E
7C00FE003C
7C00FE007C
7E00FF007C
3E00FF0078
3E01FF00F8
3E01FF80F8
1F01EF80F0
1F03EF81F0
1F03E7C1F0
0F83C7C1F0
0F87C7C3E0
0F87C3E3E0
07C783E3E0
07CF83E7C0
07CF81F7C0
03EF01F7C0
03FF01F780
03FF00FF80
01FE00FF80
01FE00FF00
01FE007F00
00FC007F00
00FC007E00
00FC003E00
ENDCHAR
STARTCHAR 0078
ENCODING 120
SWIDTH 540 0
DWIDTH 27 0
BBX 25 26 1 0
BITMAP
7E001F00
3E003F00
3F007E00
1F807C00
0F80F800
0FC1F800
07E1F000
03E3E000
03F7E000
01FFC000
00FF8000
007F8000
007F0000
007F0000
00FF8000
01FFC000
01F7C000
03E7E000
07E3F000
07C1F000
0F81F800
1F80FC00
1F007C00
3E007E00
7E003F00
FC001F80
ENDCHAR
STARTCHAR 0079
ENCODING 121
SWIDTH 520 0
DWIDTH 26 0
BBX 24 35 1 -9
BITMAP
F8001F
FC001F
7C001F
7C003E
7E003E
3E003C
3E007C
1F007C
1F0078
1F80F8
0F80F8
0F81F0
07C1F0
07C1E0
07C3E0
03E3E0
03E3C0
01F7C0
01F780
01FF80
00FF80
00FF00
007F00
007E00
007E00
003E00
003C00
007C00
007800
00F800
01F000
3FF000
3FE000
3FC000
3F8000
ENDCHAR
STARTCHAR 007A
ENCODING 122
SWIDTH 480 0
DWIDTH 24 0
BBX 20 26 2 0
BITMAP
7FFFE0
7FFFE0
7FFFE0
7FFFC0
000FC0
000F80
001F80
003F00
003E00
007E00
00FC00
00FC00
01F800
01F000
03F000
07E000
07C000
0FC000
0F8000
1F8000
3F0000
3E0000
7FFFF0
FFFFF0
FFFFF0
FFFFF0
ENDCHAR
STARTCHAR 007B
ENCODING 123
SWIDTH 320 0
DWIDTH 16 0
BBX 12 42 2 -7
BITMAP
03F0
07F0
0F80
0F00
0F00
0F00
0F00
0F00
0F00
0F00
0F00
0F00
0E00
0E00
0E00
0E00
1E00
1E00
3E00
FC00
E000
F800
FC00
3E00
1E00
0E00
0E00
0E00
0E00
0E00
0F00
0F00
0F00
0F00
0F00
0F00
0F00
0F00
0F00
0FE0
07F0
01F0
ENDCHAR
STARTCHAR 007C
ENCODING 124
SWIDTH 240 0
DWIDTH 12 0
BBX 4 46 4 -10
BITMAP
F0
F0
F0
F0
F0
F0
F0
F0
F0
F0
F0
F0
F0
F0
F0
F0
F0
F0
F0
F0
F0
F0
F0
F0
F0
F0
F0
F0
F0
F0
F0
F0
F0
F0
F0
F0
F0
F0
F0
F0
F0
F0
F0
F0
F0
F0
ENDCHAR
STARTCHAR 007D
ENCODING 125
SWIDTH 320 0
DWIDTH 16 0
BBX 12 42 2 -7
BITMAP
F800
FC00
3E00
1F00
0F00
0F00
0F00
0F00
0F00
0F00
0F00
0F00
0F00
0F00
0F00
0F00
0F00
0F00
07C0
07F0
00F0
03F0
07F0
0F80
0F00
0F00
0F00
0F00
0F00
0F00
0F00
0F00
0F00
0F00
0F00
0F00
0F00
1F00
1E00
FE00
FC00
F000
ENDCHAR
STARTCHAR 007E
ENCODING 126
SWIDTH 680 0
DWIDTH 34 0
BBX 28 8 3 11
BITMAP
03C00010
0FF80030
3FFE00F0
7FFFC3F0
FE7FFFE0
F007FFC0
C001FF80
80003C00
ENDCHAR
STARTCHAR 00A0
ENCODING 160
SWIDTH 220 0
DWIDTH 11 0
BBX 0 0 0 0
BITMAP
ENDCHAR
STARTCHAR 00A1
ENCODING 161
SWIDTH 260 0
DWIDTH 13 0
BBX 6 35 4 -9
BITMAP
F8
F8
F8
F8
F8
F8
00
00
00
78
78
78
78
78
78
78
78
78
F8
F8
F8
F8
F8
F8
F8
F8
F8
F8
F8
FC
FC
FC
FC
FC
FC
ENDCHAR
STARTCHAR 00A2
ENCODING 162
SWIDTH 540 0
DWIDTH 27 0
BBX 23 35 2 0
BITMAP
003C00
003C00
003800
003800
003800
01FF80
07FFE0
0FFFF0
1FC3F8
3F00F8
3E007C
7C007C
7C003C
7C003C
F8003E
F80000
F80000
F80000
F80000
F80000
F80000
F8003E
7C003C
7C003C
7C007C
3E007C
3F00F8
1FE7F0
0FFFF0
03FFC0
00FF00
003800
003800
003800
003C00
ENDCHAR
STARTCHAR 00A3
ENCODING 163
SWIDTH 620 0
DWIDTH 31 0
BBX 26 35 3 0
BITMAP
000FE000
007FFC00
00FFFE00
01FFFF00
03F83F80
03E01F80
07E00FC0
07C007C0
07C007C0
07C007C0
07C00000
07C00000
07C00000
07C00000
07C00000
07C00000
FFFFF000
FFFFF000
FFFFF000
FFFFF000
07C00000
07C00000
07C00000
07C00000
07C00000
07800000
07800000
07800000
07800000
07800000
07800000
FFFFFF80
FFFFFF80
FFFFFF80
FFFFFF80
ENDCHAR
STARTCHAR 00A4
ENCODING 164
SWIDTH 620 0
DWIDTH 31 0
BBX 25 26 3 4
BITMAP
20000200
60FF8300
F3FFE780
FFFFFF80
7FC1FF00
3F007E00
3E003E00
7C001F00
78000F00
70000F00
F0000780
F0000780
F0000780
F0000780
F0000780
F0000780
F0000700
78000F00
78001F00
3C001E00
1E007C00
3F80FE00
7FFFFF00
F3FFEF80
71FF8700
20080200
ENDCHAR
STARTCHAR 00A5
ENCODING 165
SWIDTH 660 0
DWIDTH 33 0
BBX 30 34 1 0
BITMAP
FE0000FC
7E0001F0
3F0001F0
3F0003E0
1F8007E0
0F8007C0
0FC00FC0
07E00F80
07E01F00
03F01F00
03F03E00
01F87E00
3FF87FF0
3FFCFFF0
3FFCFFF0
007FF800
003FF000
003FE000
001FE000
3FFFFFF0
3FFFFFF0
3FFFFFF0
000FC000
000FC000
000FC000
000FC000
000FC000
000FC000
000FC000
000FC000
000FC000
000FC000
000FC000
000FC000
ENDCHAR
STARTCHAR 00A6
ENCODING 166
SWIDTH 240 0
DWIDTH 12 0
BBX 4 46 4 -10
BITMAP
F0
F0
F0
F0
F0
F0
F0
F0
F0
F0
F0
F0
F0
F0
F0
F0
F0
F0
00
00
00
00
00
00
00
00
00
00
F0
F0
F0
F0
F0
F0
F0
F0
F0
F0
F0
F0
F0
F0
F0
F0
F0
F0
ENDCHAR
STARTCHAR 00A7
ENCODING 167
SWIDTH 540 0
DWIDTH 27 0
BBX 22 44 2 -9
BITMAP
00FE00
07FFC0
1FFFE0
3FFFF0
3E01F8
7C00F8
7C0078
7C007C
7C0000
7C0000
7E0000
3F0000
1FC000
1FF000
07FC00
0FFF00
3EFFC0
3C1FF0
7807F8
7801F8
F800FC
F8007C
F8003C
FC003C
7E003C
7F803C
3FE078
0FF8F8
07FFF0
01FFC0
007FE0
000FF0
0003F0
0001F8
0000F8
00007C
78007C
7C007C
7C0078
7E00F8
3F87F0
1FFFF0
0FFFC0
03FF00
ENDCHAR
STARTCHAR 00A8
ENCODING 168
SWIDTH 580 0
DWIDTH 29 0
BBX 16 4 7 31
BITMAP
F81F
F81F
F81F
F81F
ENDCHAR
STARTCHAR 00A9
ENCODING 169
SWIDTH 780 0
DWIDTH 39 0
BBX 35 36 2 -1
BITMAP
0003F80000
001FFF0000
007C07C000
01E000F000
0380003800
0700001C00
0C00000E00
1801F00700
380FFE0300
301FFF0180
703E0F81C0
603C0380C0
607803C0C0
C07801C0E0
C07801C060
C07801C060
C078000060
C078000060
C078000060
C078000060
C07801C060
C07801C060
C07801C0E0
60780380C0
603C0780C0
701F1F0180
301FFF0180
1807FC0300
1C00400700
0E00000E00
0700001C00
0380007800
00F001E000
007FBFC000
001FFE0000
0000400000
ENDCHAR
STARTCHAR 00AA
ENCODING 170
SWIDTH 420 0
DWIDTH 21 0
BBX 15 16 3 19
BITMAP
0FC0
3FF0
7FF8
F078
F038
0038
0038
1FF8
7FF8
F838
E038
E038
E078
F0FA
FFBE
3F1E
ENDCHAR
STARTCHAR 00AB
ENCODING 171
SWIDTH 460 0
DWIDTH 23 0
BBX 18 18 2 8
BITMAP
0381C0
070180
070380
0E0700
1E0F00
1C0E00
3C1E00
783C00
783C00
F07800
783C00
381E00
1C0E00
1E0F00
0E0700
070380
070380
0381C0
ENDCHAR
STARTCHAR 00AC
ENCODING 172
SWIDTH 620 0
DWIDTH 31 0
BBX 26 14 2 9
BITMAP
FFFFFFC0
FFFFFFC0
FFFFFFC0
FFFFFFC0
FFFFFFC0
000007C0
000007C0
000007C0
000007C0
000007C0
000007C0
000007C0
000007C0
000007C0
ENDCHAR
STARTCHAR 00AD
ENCODING 173
SWIDTH 380 0
DWIDTH 19 0
BBX 13 5 3 11
BITMAP
FFF8
FFF8
FFF8
FFF8
FFF8
ENDCHAR
STARTCHAR 00AE
ENCODING 174
SWIDTH 780 0
DWIDTH 39 0
BBX 35 36 2 -1
BITMAP
0003F80000
001FFF0000
007C07C000
01E000F000
0380003800
0700001C00
0C00000E00
1800000700
383FFE0300
303FFF0180
703C0F81C0
603C0780C0
603C0380C0
C03C0380E0
C03C038060
C03C078060
C03C1F0060
C03FFE0060
C03FFE0060
C03C1F0060
C03C078060
C03C078060
C03C0780E0
603C0380C0
603C0380C0
703C038180
303C03C180
183C03E300
1C00000700
0E00000E00
0700001C00
0380007800
00F001E000
007FBFC000
001FFE0000
0000400000
ENDCHAR
STARTCHAR 00AF
ENCODING 175
SWIDTH 580 0
DWIDTH 29 0
BBX 16 3 7 31
BITMAP
FFFF
FFFF
FFFF
ENDCHAR
STARTCHAR 00B0
ENCODING 176
SWIDTH 380 0
DWIDTH 19 0
BBX 15 15 2 20
BITMAP
07C0
1FF0
3FF8
7C7C
701C
F01E
E00E
E00E
E00E
E00E
701C
783C
3FF8
1FF0
0FE0
ENDCHAR
STARTCHAR 00B1
ENCODING 177
SWIDTH 620 0
DWIDTH 31 0
BBX 25 26 3 0
BITMAP
003C0000
003C0000
003C0000
003C0000
003C0000
003C0000
003C0000
003C0000
FFFFFF80
FFFFFF80
FFFFFF80
FFFFFF80
003C0000
003C0000
003C0000
003C0000
003C0000
003C0000
003C0000
00000000
00000000
00000000
FFFFFF80
FFFFFF80
FFFFFF80
FFFFFF80
ENDCHAR
STARTCHAR 00B2
ENCODING 178
SWIDTH 380 0
DWIDTH 19 0
BBX 13 19 3 21
BITMAP
1FC0
3FE0
7DF0
F078
E078
E038
E038
0078
0070
01F0
03E0
0780
1F00
3C00
7800
F000
FFF8
FFF8
FFF8
ENDCHAR
STARTCHAR 00B3
ENCODING 179
SWIDTH 360 0
DWIDTH 18 0
BBX 14 19 2 21
BITMAP
0FC0
3FF0
7FF8
7078
7038
6038
0038
0078
0FF0
0FE0
0FF0
0038
003C
E01C
E03C
F038
7878
7FF0
1FE0
ENDCHAR
STARTCHAR 00B4
ENCODING 180
SWIDTH 580 0
DWIDTH 29 0
BBX 9 9 10 29
BITMAP
0F80
0F00
1F00
1E00
3E00
3C00
7800
7800
F000
ENDCHAR
STARTCHAR 00B5
ENCODING 181
SWIDTH 620 0
DWIDTH 31 0
BBX 25 34 4 -8
BITMAP
F800F800
F800F800
F800F800
F800F800
F800F800
F800F800
F800F800
F800F800
F800F800
F800F800
F800F800
F800F800
F800F800
F800F800
F800F800
F800F800
F800F800
F800F800
F800F800
F800F800
FC01F800
FE03F800
FFDFFC80
FFFF7F80
FFFE7F80
FBF83F80
F8000400
F8000000
F8000000
F8000000
F8000000
F8000000
F8000000
F8000000
ENDCHAR
STARTCHAR 00B6
ENCODING 182
SWIDTH 540 0
DWIDTH 27 0
BBX 23 42 2 -8
BITMAP
01FFFE
07FFFE
1FFFFE
3FF8F0
3FF8F0
7FF8F0
7FF8F0
FFF8F0
FFF8F0
FFF8F0
FFF8F0
FFF8F0
FFF8F0
FFF8F0
7FF8F0
7FF8F0
3FF8F0
3FF8F0
1FF8F0
0FF8F0
03F8F0
0038F0
0038F0
0038F0
0038F0
0038F0
0038F0
0038F0
0038F0
0038F0
0038F0
0038F0
0038F0
0038F0
0038F0
0038F0
0038F0
0038F0
0038F0
0038F0
0038F0
0038F0
ENDCHAR
STARTCHAR 00B7
ENCODING 183
SWIDTH 260 0
DWIDTH 13 0
BBX 5 5 4 12
BITMAP
F8
F8
F8
F8
F8
ENDCHAR
STARTCHAR 00B8
ENCODING 184
SWIDTH 580 0
DWIDTH 29 0
BBX 11 9 9 -10
BITMAP
0C00
0FC0
0FC0
00E0
00E0
00E0
41E0
7FC0
FF80
ENDCHAR
STARTCHAR 00B9
ENCODING 185
SWIDTH 340 0
DWIDTH 17 0
BBX 12 19 2 21
BITMAP
0300
1F00
FF00
FF00
0700
0700
0700
0700
0700
0700
0700
0700
0700
0700
0700
0700
FFF0
FFF0
FFF0
ENDCHAR
STARTCHAR 00BA
ENCODING 186
SWIDTH 400 0
DWIDTH 20 0
BBX 14 16 3 19
BITMAP
0F80
3FE0
7FF0
7078
F03C
E03C
E01C
E01C
E01C
E01C
E03C
F03C
F038
7CF8
3FF0
0FC0
ENDCHAR
STARTCHAR 00BB
ENCODING 187
SWIDTH 460 0
DWIDTH 23 0
BBX 18 18 2 8
BITMAP
E03000
703800
381C00
381C00
1C0E00
1E0F00
0E0700
0F0780
0783C0
0783C0
0F0380
0F0780
1E0F00
1C0E00
381E00
381C00
703800
E03000
ENDCHAR
STARTCHAR 00BC
ENCODING 188
SWIDTH 860 0
DWIDTH 43 0
BBX 38 35 2 0
BITMAP
0300000200
1F00001C00
FF00001C00
FF00003800
0700007000
0700007000
070000E000
070000E000
070001C000
0700038000
0700038000
0700070000
0700070000
07000E0000
07001C0000
07001C0000
FFF0380380
FFF0380380
FFF0700700
0000E00730
0000E00E30
0001C00E30
0003801C70
0003801C70
0007003870
0007003870
000E007070
001C006070
001C00FFFC
003800FFFC
0038000070
0070000070
00E0000070
00E0000070
01C0000070
ENDCHAR
STARTCHAR 00BD
ENCODING 189
SWIDTH 880 0
DWIDTH 44 0
BBX 39 35 2 0
BITMAP
0300000200
1F00001C00
FF00001C00
FF00003800
0700007000
0700007000
070000E000
070000E000
070001C000
0700038000
0700038000
0700070000
0700070000
07000E0000
07001C0000
07001C0000
FFF03807F0
FFF0381FF8
FFF0701FFC
0000E0381C
0000E0381E
0001C0381E
000380381E
000380001C
000700003C
0007000078
000E0000F0
001C0003E0
001C0007C0
0038000F00
0038001E00
0070003C00
00E0003FFE
00E0007FFE
01C0007FFE
ENDCHAR
STARTCHAR 00BE
ENCODING 190
SWIDTH 880 0
DWIDTH 44 0
BBX 40 35 2 0
BITMAP
0FC0000000
3FF0000700
7FF8000E00
7078001C00
7038001C00
6038003800
0038007000
0078007000
0FF000E000
0FE000E000
0FF001C000
0038038000
003C038000
E01C070000
E03C070000
F0380E0000
78781C01C0
7FF01C01C0
1FE0380380
0000700388
0000700798
0000E00718
0000E00738
0001C00E38
0003800E38
0003801C38
0007003838
0007003838
000E003FFF
001C003FFF
001C000038
0038000038
0038000038
0070000038
00E0000038
ENDCHAR
STARTCHAR 00BF
ENCODING 191
SWIDTH 520 0
DWIDTH 26 0
BBX 22 35 2 -9
BITMAP
00F800
00F800
00F800
00F800
00F800
00F800
000000
000000
000000
000000
00F800
00F800
00F800
00F800
00F800
01F800
03F000
07F000
0FE000
1FC000
3F0000
7F0000
7E0000
7C007C
FC007C
FC007C
FC007C
FC007C
7C007C
7E00F8
7F01F8
3FFFF0
1FFFE0
0FFFC0
03FF00
ENDCHAR
STARTCHAR 00C0
ENCODING 192
SWIDTH 680 0
DWIDTH 34 0
BBX 33 45 0 0
BITMAP
007C000000
003E000000
001E000000
000F000000
000F800000
0007C00000
0003E00000
0000000000
0000000000
0000000000
0000000000
0007F00000
0007F00000
0007F80000
000FF80000
000FFC0000
000FFC0000
001F7C0000
001F7E0000
003E3E0000
003E3F0000
003E1F0000
007C1F0000
007C1F8000
00FC0F8000
00F80FC000
00F80FC000
01F007C000
01F007E000
03F003E000
03E003E000
03E003F000
07E001F000
07FFFFF800
07FFFFF800
0FFFFFF800
0FFFFFFC00
1F80007C00
1F00007E00
1F00007E00
3F00003E00
3E00003F00
7E00003F00
7C00001F00
FC00001F80
ENDCHAR
STARTCHAR 00C1
ENCODING 193
SWIDTH 680 0
DWIDTH 34 0
BBX 33 45 0 0
BITMAP
00000F8000
00001F0000
00001E0000
00003C0000
00007C0000
0000F80000
0001F00000
0000000000
0000000000
0000000000
0000000000
0007F00000
0007F00000
0007F80000
000FF80000
000FFC0000
000FFC0000
001F7C0000
001F7E0000
003E3E0000
003E3F0000
003E1F0000
007C1F0000
007C1F8000
00FC0F8000
00F80FC000
00F80FC000
01F007C000
01F007E000
03F003E000
03E003E000
03E003F000
07E001F000
07FFFFF800
07FFFFF800
0FFFFFF800
0FFFFFFC00
1F80007C00
1F00007E00
1F00007E00
3F00003E00
3E00003F00
7E00003F00
7C00001F00
FC00001F80
ENDCHAR
STARTCHAR 00C2
ENCODING 194
SWIDTH 680 0
DWIDTH 34 0
BBX 33 44 0 0
BITMAP
0007F00000
0007F80000
000F7C0000
001E3E0000
003C1F0000
00F80F8000
0000000000
0000000000
0000000000
0000000000
0007F00000
0007F00000
0007F80000
000FF80000
000FFC0000
000FFC0000
001F7C0000
001F7E0000
003E3E0000
003E3F0000
003E1F0000
007C1F0000
007C1F8000
00FC0F8000
00F80FC000
00F80FC000
01F007C000
01F007E000
03F003E000
03E003E000
03E003F000
07E001F000
07FFFFF800
07FFFFF800
0FFFFFF800
0FFFFFFC00
1F80007C00
1F00007E00
1F00007E00
3F00003E00
3E00003F00
7E00003F00
7C00001F00
FC00001F80
ENDCHAR
STARTCHAR 00C3
ENCODING 195
SWIDTH 680 0
DWIDTH 34 0
BBX 33 44 0 0
BITMAP
001F01C000
007FC38000
007FFF8000
00FFFF0000
00E0FF0000
00E01C0000
0000000000
0000000000
0000000000
0000000000
0007F00000
0007F00000
0007F80000
000FF80000
000FFC0000
000FFC0000
001F7C0000
001F7E0000
003E3E0000
003E3F0000
003E1F0000
007C1F0000
007C1F8000
00FC0F8000
00F80FC000
00F80FC000
01F007C000
01F007E000
03F003E000
03E003E000
03E003F000
07E001F000
07FFFFF800
07FFFFF800
0FFFFFF800
0FFFFFFC00
1F80007C00
1F00007E00
1F00007E00
3F00003E00
3E00003F00
7E00003F00
7C00001F00
FC00001F80
ENDCHAR
STARTCHAR 00C4
ENCODING 196
SWIDTH 680 0
DWIDTH 34 0
BBX 33 43 0 0
BITMAP
007C0F8000
007C0F8000
007C0F8000
007C0F8000
0000000000
0000000000
0000000000
0000000000
0000000000
0007F00000
0007F00000
0007F80000
000FF80000
000FFC0000
000FFC0000
001F7C0000
001F7E0000
003E3E0000
003E3F0000
003E1F0000
007C1F0000
007C1F8000
00FC0F8000
00F80FC000
00F80FC000
01F007C000
01F007E000
03F003E000
03E003E000
03E003F000
07E001F000
07FFFFF800
07FFFFF800
0FFFFFF800
0FFFFFFC00
1F80007C00
1F00007E00
1F00007E00
3F00003E00
3E00003F00
7E00003F00
7C00001F00
FC00001F80
ENDCHAR
STARTCHAR 00C5
ENCODING 197
SWIDTH 680 0
DWIDTH 34 0
BBX 33 47 0 0
BITMAP
0000800000
0003F00000
0007F80000
000E380000
000C1C0000
000C1C0000
000C1C0000
000E380000
0007F80000
0007F00000
0000C00000
0000000000
0000000000
0007F00000
0007F00000
0007F80000
000FF80000
000FFC0000
000FFC0000
001F7C0000
001F7E0000
003E3E0000
003E3F0000
003E1F0000
007C1F0000
007C1F8000
00FC0F8000
00F80FC000
00F80FC000
01F007C000
01F007E000
03F003E000
03E003E000
03E003F000
07E001F000
07FFFFF800
07FFFFF800
0FFFFFF800
0FFFFFFC00
1F80007C00
1F00007E00
1F00007E00
3F00003E00
3E00003F00
7E00003F00
7C00001F00
FC00001F80
ENDCHAR
STARTCHAR 00C6
ENCODING 198
SWIDTH 980 0
DWIDTH 49 0
BBX 47 34 0 0
BITMAP
00003FFFFFFE
00003FFFFFFE
00007FFFFFFC
0000FFFFFFFC
0000FFC00000
0001FFC00000
0001F7C00000
0003E7C00000
0003E7E00000
0007C7E00000
0007C3E00000
000F83E00000
000F83F00000
001F03F00000
001F01FFFFF8
003E01FFFFF8
003E01FFFFF8
007C00FFFFF8
007C00FFFFF8
00F800F80000
01F800FC0000
01F0007C0000
03FFFFFC0000
03FFFFFC0000
07FFFFFE0000
07FFFFFE0000
0FC0003E0000
0F80003E0000
1F80003F0000
1F00001F0000
3F00001FFFFE
3E00001FFFFE
7E00001FFFFE
FC00000FFFFE
ENDCHAR
STARTCHAR 00C7
ENCODING 199
SWIDTH 680 0
DWIDTH 34 0
BBX 28 45 3 -10
BITMAP
001FC000
00FFF800
03FFFE00
07FFFF00
0FF9FF80
1FC01FC0
3F000FC0
3E0007E0
7E0003E0
7E0003E0
7C0003E0
7C0001F0
FC0001F0
FC0001F0
FC000000
FC000000
FC000000
FC000000
FC000000
FC000000
FC000000
FC000000
FC0001F0
FC0001F0
7C0001F0
7C0003E0
7E0003E0
7E0003E0
3F0007E0
3F800FC0
1FC01F80
0FFFFF80
07FFFF00
03FFFC00
00FFF000
00060000
000C0000
000FC000
000FE000
0000E000
0000E000
0000E000
0041E000
007FC000
007F8000
ENDCHAR
STARTCHAR 00C8
ENCODING 200
SWIDTH 600 0
DWIDTH 30 0
BBX 23 45 5 0
BITMAP
1F0000
0F8000
07C000
03C000
01E000
01F000
00F800
000000
000000
000000
000000
FFFFFC
FFFFFC
FFFFFC
FFFFFC
F80000
F80000
F80000
F80000
F80000
F80000
F80000
F80000
F80000
F80000
FFFFF0
FFFFF0
FFFFF0
FFFFF0
FFFFF0
F80000
F80000
F80000
F80000
F80000
F80000
F80000
F80000
F80000
F80000
F80000
FFFFFC
FFFFFC
FFFFFC
FFFFFE
ENDCHAR
STARTCHAR 00C9
ENCODING 201
SWIDTH 600 0
DWIDTH 30 0
BBX 23 45 5 0
BITMAP
0003E0
0007C0
000780
000F80
001F00
003E00
003C00
004000
000000
000000
000000
FFFFFC
FFFFFC
FFFFFC
FFFFFC
F80000
F80000
F80000
F80000
F80000
F80000
F80000
F80000
F80000
F80000
FFFFF0
FFFFF0
FFFFF0
FFFFF0
FFFFF0
F80000
F80000
F80000
F80000
F80000
F80000
F80000
F80000
F80000
F80000
F80000
FFFFFC
FFFFFC
FFFFFC
FFFFFE
ENDCHAR
STARTCHAR 00CA
ENCODING 202
SWIDTH 600 0
DWIDTH 30 0
BBX 23 44 5 0
BITMAP
00FC00
01FE00
03DF00
078F80
0F07C0
3E03E0
000000
000000
000000
000000
FFFFFC
FFFFFC
FFFFFC
FFFFFC
F80000
F80000
F80000
F80000
F80000
F80000
F80000
F80000
F80000
F80000
FFFFF0
FFFFF0
FFFFF0
FFFFF0
FFFFF0
F80000
F80000
F80000
F80000
F80000
F80000
F80000
F80000
F80000
F80000
F80000
FFFFFC
FFFFFC
FFFFFC
FFFFFE
ENDCHAR
STARTCHAR 00CB
ENCODING 203
SWIDTH 600 0
DWIDTH 30 0
BBX 23 43 5 0
BITMAP
1F03E0
1F03E0
1F03E0
1F03E0
000000
000000
000000
000000
000000
FFFFFC
FFFFFC
FFFFFC
FFFFFC
F80000
F80000
F80000
F80000
F80000
F80000
F80000
F80000
F80000
F80000
FFFFF0
FFFFF0
FFFFF0
FFFFF0
FFFFF0
F80000
F80000
F80000
F80000
F80000
F80000
F80000
F80000
F80000
F80000
F80000
FFFFFC
FFFFFC
FFFFFC
FFFFFE
ENDCHAR
STARTCHAR 00CC
ENCODING 204
SWIDTH 400 0
DWIDTH 20 0
BBX 14 45 2 0
BITMAP
F800
7C00
3E00
1E00
0F00
0F80
07C0
0000
0000
0000
0000
7FFC
7FFC
7FFC
7FFC
07C0
07C0
07C0
07C0
07C0
07C0
07C0
07C0
07C0
07C0
07C0
07C0
07C0
07C0
07C0
07C0
07C0
07C0
07C0
07C0
07C0
07C0
07C0
07C0
07C0
07C0
7FFC
7FFC
7FFC
7FFC
ENDCHAR
STARTCHAR 00CD
ENCODING 205
SWIDTH 400 0
DWIDTH 20 0
BBX 15 45 3 0
BITMAP
003E
007C
0078
00F8
01F0
03E0
07C0
0000
0000
0000
0000
FFF8
FFF8
FFF8
FFF8
0F80
0F80
0F80
0F80
0F80
0F80
0F80
0F80
0F80
0F80
0F80
0F80
0F80
0F80
0F80
0F80
0F80
0F80
0F80
0F80
0F80
0F80
0F80
0F80
0F80
0F80
FFF8
FFF8
FFF8
FFF8
ENDCHAR
STARTCHAR 00CE
ENCODING 206
SWIDTH 400 0
DWIDTH 20 0
BBX 17 44 1 0
BITMAP
03F000
07F800
0F7C00
1E3E00
3C1F00
F80F80
000000
000000
000000
000000
3FFE00
3FFE00
3FFE00
3FFE00
03E000
03E000
03E000
03E000
03E000
03E000
03E000
03E000
03E000
03E000
03E000
03E000
03E000
03E000
03E000
03E000
03E000
03E000
03E000
03E000
03E000
03E000
03E000
03E000
03E000
03E000
3FFE00
3FFE00
3FFE00
3FFE00
ENDCHAR
STARTCHAR 00CF
ENCODING 207
SWIDTH 400 0
DWIDTH 20 0
BBX 16 43 2 0
BITMAP
F81F
F81F
F81F
F81F
0000
0000
0000
0000
0000
7FFC
7FFC
7FFC
7FFC
07C0
07C0
07C0
07C0
07C0
07C0
07C0
07C0
07C0
07C0
07C0
07C0
07C0
07C0
07C0
07C0
07C0
07C0
07C0
07C0
07C0
07C0
07C0
07C0
07C0
07C0
7FFC
7FFC
7FFC
7FFC
ENDCHAR
STARTCHAR 00D0
ENCODING 208
SWIDTH 680 0
DWIDTH 34 0
BBX 30 34 1 0
BITMAP
0FFFF800
0FFFFF00
0FFFFF80
0FFFFFC0
0F801FE0
0F8007F0
0F8003F0
0F8001F8
0F8001F8
0F8000F8
0F8000F8
0F8000FC
0F8000FC
0F8000FC
0F8000FC
FFFF80FC
FFFF80FC
FFFF80FC
0F8000FC
0F8000FC
0F8000FC
0F8000FC
0F8000F8
0F8000F8
0F8001F8
0F8001F8
0F8003F0
0F8003F0
0F800FE0
0F803FC0
0FFFFF80
0FFFFF00
0FFFFE00
0FFFF000
ENDCHAR
STARTCHAR 00D1
ENCODING 209
SWIDTH 700 0
DWIDTH 35 0
BBX 25 44 5 0
BITMAP
03F03800
07FC3800
0FFFF800
0FFFF000
0E0FE000
1C03C000
00000000
00000000
00000000
00000000
F8000F80
F8000F80
FC000F80
FE000F80
FE000F80
FF000F80
FF800F80
FF800F80
FFC00F80
F7E00F80
F7E00F80
F3F00F80
F3F00F80
F1F80F80
F0FC0F80
F0FC0F80
F07E0F80
F03F0F80
F03F0F80
F01F8F80
F00FCF80
F00FCF80
F007EF80
F003FF80
F003FF80
F001FF80
F000FF80
F000FF80
F0007F80
F0003F80
F0003F80
F0001F80
F0000F80
F0000F80
ENDCHAR
STARTCHAR 00D2
ENCODING 210
SWIDTH 700 0
DWIDTH 35 0
BBX 29 46 3 -1
BITMAP
01F00000
00F80000
00F80000
007C0000
003E0000
001F0000
000F0000
00008000
00000000
00000000
001FC000
00FFF800
03FFFE00
07FFFF00
0FFDFF80
1FC01FC0
3F800FE0
3F0007E0
7E0003F0
7E0003F0
7C0001F0
7C0001F0
FC0001F8
FC0001F8
FC0001F8
FC0001F8
FC0001F8
FC0001F8
FC0001F8
FC0001F8
FC0001F8
FC0001F8
FC0001F8
FC0001F8
7C0001F0
7C0001F0
7E0003F0
7E0003E0
3F0007E0
3F800FE0
1FC01FC0
0FFFFF80
07FFFF00
03FFFE00
00FFF800
00070000
ENDCHAR
STARTCHAR 00D3
ENCODING 211
SWIDTH 700 0
DWIDTH 35 0
BBX 29 46 3 -1
BITMAP
00003E00
00007C00
0000F800
0000F000
0001E000
0003C000
0007C000
00000000
00000000
00000000
001FC000
00FFF800
03FFFE00
07FFFF00
0FFDFF80
1FC01FC0
3F800FE0
3F0007E0
7E0003F0
7E0003F0
7C0001F0
7C0001F0
FC0001F8
FC0001F8
FC0001F8
FC0001F8
FC0001F8
FC0001F8
FC0001F8
FC0001F8
FC0001F8
FC0001F8
FC0001F8
FC0001F8
7C0001F0
7C0001F0
7E0003F0
7E0003E0
3F0007E0
3F800FE0
1FC01FC0
0FFFFF80
07FFFF00
03FFFE00
00FFF800
00070000
ENDCHAR
STARTCHAR 00D4
ENCODING 212
SWIDTH 700 0
DWIDTH 35 0
BBX 29 45 3 -1
BITMAP
001FC000
003FE000
007DF000
00F8F800
01F07800
03E03E00
00000000
00000000
00000000
001FC000
00FFF800
03FFFE00
07FFFF00
0FFDFF80
1FC01FC0
3F800FE0
3F0007E0
7E0003F0
7E0003F0
7C0001F0
7C0001F0
FC0001F8
FC0001F8
FC0001F8
FC0001F8
FC0001F8
FC0001F8
FC0001F8
FC0001F8
FC0001F8
FC0001F8
FC0001F8
FC0001F8
7C0001F0
7C0001F0
7E0003F0
7E0003E0
3F0007E0
3F800FE0
1FC01FC0
0FFFFF80
07FFFF00
03FFFE00
00FFF800
00070000
ENDCHAR
STARTCHAR 00D5
ENCODING 213
SWIDTH 700 0
DWIDTH 35 0
BBX 29 45 3 -1
BITMAP
007C0600
01FF0E00
03FFFE00
03FFFC00
0383F800
0300F000
00000000
00000000
00000000
001FC000
00FFF800
03FFFE00
07FFFF00
0FFDFF80
1FC01FC0
3F800FE0
3F0007E0
7E0003F0
7E0003F0
7C0001F0
7C0001F0
FC0001F8
FC0001F8
FC0001F8
FC0001F8
FC0001F8
FC0001F8
FC0001F8
FC0001F8
FC0001F8
FC0001F8
FC0001F8
FC0001F8
7C0001F0
7C0001F0
7E0003F0
7E0003E0
3F0007E0
3F800FE0
1FC01FC0
0FFFFF80
07FFFF00
03FFFE00
00FFF800
00070000
ENDCHAR
STARTCHAR 00D6
ENCODING 214
SWIDTH 700 0
DWIDTH 35 0
BBX 29 44 3 -1
BITMAP
01E03C00
01E03C00
01E03C00
01E03C00
00000000
00000000
00000000
00000000
001FC000
00FFF800
03FFFE00
07FFFF00
0FFDFF80
1FC01FC0
3F800FE0
3F0007E0
7E0003F0
7E0003F0
7C0001F0
7C0001F0
FC0001F8
FC0001F8
FC0001F8
FC0001F8
FC0001F8
FC0001F8
FC0001F8
FC0001F8
FC0001F8
FC0001F8
FC0001F8
FC0001F8
7C0001F0
7C0001F0
7E0003F0
7E0003E0
3F0007E0
3F800FE0
1FC01FC0
0FFFFF80
07FFFF00
03FFFE00
00FFF800
00070000
ENDCHAR
STARTCHAR 00D7
ENCODING 215
SWIDTH 620 0
DWIDTH 31 0
BBX 21 21 5 2
BITMAP
300060
7800F0
FC01F8
7E03F0
3F07E0
1F8FC0
0FDF80
07FF00
03FE00
01FC00
01FC00
03FE00
07FF00
0FDF00
1F8F80
3F07C0
7E03E0
FC01F8
7800F0
300060
200040
ENDCHAR
STARTCHAR 00D8
ENCODING 216
SWIDTH 700 0
DWIDTH 35 0
BBX 29 41 3 -4
BITMAP
00000070
000000F0
001FC0E0
00FFF9C0
03FFFFC0
07FFFF80
0FFDFF80
1FC01FC0
3F800FE0
3F001FE0
7E001FF0
7E003FF0
7C0039F0
7C0071F0
FC00F1F8
FC00E1F8
FC01E1F8
FC01C1F8
FC0381F8
FC0781F8
FC0701F8
FC0F01F8
FC0E01F8
FC1C01F8
FC3C01F8
FC3801F8
7C7001F0
7C7001F0
7EE003F0
7FE003E0
3FC007E0
3F800FE0
1FC01FC0
0FFFFF80
0FFFFF00
0FFFFE00
1CFFF800
1C070000
38000000
78000000
F0000000
ENDCHAR
STARTCHAR 00D9
ENCODING 217
SWIDTH 680 0
DWIDTH 34 0
BBX 26 46 4 -1
BITMAP
07C00000
03E00000
01F00000
00F80000
00780000
003C0000
001E0000
00000000
00000000
00000000
00000000
FC000FC0
FC000FC0
FC000FC0
FC000FC0
FC000FC0
FC000FC0
FC000FC0
FC000FC0
FC000FC0
FC000FC0
FC000FC0
FC000FC0
FC000FC0
FC000FC0
FC000FC0
FC000FC0
FC000FC0
FC000FC0
FC000FC0
FC000FC0
FC000FC0
FC000FC0
FC000FC0
FC000FC0
FC000FC0
FC000FC0
7C000F80
7E001F80
7F003F80
3F807F00
1FFFFE00
0FFFFC00
07FFF800
01FFE000
000C0000
ENDCHAR
STARTCHAR 00DA
ENCODING 218
SWIDTH 680 0
DWIDTH 34 0
BBX 26 46 4 -1
BITMAP
0000F800
0000F800
0001F000
0003E000
0007C000
00078000
000F0000
00100000
00000000
00000000
00000000
FC000FC0
FC000FC0
FC000FC0
FC000FC0
FC000FC0
FC000FC0
FC000FC0
FC000FC0
FC000FC0
FC000FC0
FC000FC0
FC000FC0
FC000FC0
FC000FC0
FC000FC0
FC000FC0
FC000FC0
FC000FC0
FC000FC0
FC000FC0
FC000FC0
FC000FC0
FC000FC0
FC000FC0
FC000FC0
FC000FC0
7C000F80
7E001F80
7F003F80
3F807F00
1FFFFE00
0FFFFC00
07FFF800
01FFE000
000C0000
ENDCHAR
STARTCHAR 00DB
ENCODING 219
SWIDTH 680 0
DWIDTH 34 0
BBX 26 45 4 -1
BITMAP
003F0000
007F8000
00FBC000
01F1E000
03E0F000
07C07800
00000000
00000000
00000000
00000000
FC000FC0
FC000FC0
FC000FC0
FC000FC0
FC000FC0
FC000FC0
FC000FC0
FC000FC0
FC000FC0
FC000FC0
FC000FC0
FC000FC0
FC000FC0
FC000FC0
FC000FC0
FC000FC0
FC000FC0
FC000FC0
FC000FC0
FC000FC0
FC000FC0
FC000FC0
FC000FC0
FC000FC0
FC000FC0
FC000FC0
7C000F80
7E001F80
7F003F80
3F807F00
1FFFFE00
0FFFFC00
07FFF800
01FFE000
000C0000
ENDCHAR
STARTCHAR 00DC
ENCODING 220
SWIDTH 680 0
DWIDTH 34 0
BBX 26 44 4 -1
BITMAP
07C0F800
07C0F800
07C0F800
07C0F800
00000000
00000000
00000000
00000000
00000000
FC000FC0
FC000FC0
FC000FC0
FC000FC0
FC000FC0
FC000FC0
FC000FC0
FC000FC0
FC000FC0
FC000FC0
FC000FC0
FC000FC0
FC000FC0
FC000FC0
FC000FC0
FC000FC0
FC000FC0
FC000FC0
FC000FC0
FC000FC0
FC000FC0
FC000FC0
FC000FC0
FC000FC0
FC000FC0
FC000FC0
7C000F80
7E001F80
7F003F80
3F807F00
1FFFFE00
0FFFFC00
07FFF800
01FFE000
000C0000
ENDCHAR
STARTCHAR 00DD
ENCODING 221
SWIDTH 600 0
DWIDTH 30 0
BBX 30 45 0 0
BITMAP
00003E00
00003E00
00007C00
0000F800
0000F000
0001E000
0003C000
00040000
00000000
00000000
80000004
7E0000F8
7E0001F0
3F0001F0
3F0003E0
1F8007E0
0F8007C0
0FC00FC0
07E00F80
07E01F80
03F01F00
03F03E00
01F87E00
00F87C00
00FCFC00
007CF800
007FF800
003FF000
003FE000
001FE000
000FC000
000FC000
000FC000
000FC000
000FC000
000FC000
000FC000
000FC000
000FC000
000FC000
000FC000
000FC000
000FC000
000FC000
000FC000
ENDCHAR
STARTCHAR 00DE
ENCODING 222
SWIDTH 640 0
DWIDTH 32 0
BBX 25 34 5 0
BITMAP
F8000000
F8000000
F8000000
F8000000
F8000000
F8000000
FFFFC000
FFFFF800
FFFFFC00
FFFFFE00
F800FE00
F8003F00
F8001F00
F8001F00
F8001F80
F8001F80
F8001F80
F8001F80
F8001F00
F8003F00
F8007E00
F803FE00
FFFFFC00
FFFFF800
FFFFF000
FFFF8000
F8000000
F8000000
F8000000
F8000000
F8000000
F8000000
F8000000
F8000000
ENDCHAR
STARTCHAR 00DF
ENCODING 223
SWIDTH 620 0
DWIDTH 31 0
BBX 26 39 3 -3
BITMAP
007FE000
01FFF800
03FFFC00
07FFFE00
0FE07F00
0F803F00
1F001F00
1F000F80
1F000F80
1F000F80
FF000F80
FF001F00
FF001F00
FF003E00
3F00FE00
3F3FF800
3F3FF000
3F3FF800
3F3FFE00
3F007F00
3F001F00
3F000F80
3F000F80
3F0007C0
3F0007C0
3F0007C0
3F0007C0
3F000FC0
3F000F80
3F001F80
3F003F80
3F007F00
3F3FFE00
3F3FFC00
3F3FF800
3F3FC000
3F000000
3F000000
3F000000
ENDCHAR
STARTCHAR 00E0
ENCODING 224
SWIDTH 600 0
DWIDTH 30 0
BBX 26 39 2 -1
BITMAP
07C00000
03C00000
03E00000
01E00000
00F00000
00F00000
00780000
00780000
003C0000
00000000
00000000
00000000
01FF8000
07FFE000
1FFFF800
3FE7F800
3F00FC00
7E007C00
7C007C00
7C007C00
00007C00
00007C00
00007C00
00FFFC00
07FFFC00
1FFFFC00
3FC07C00
7E007C00
7C007C00
FC007C00
FC007C00
FC007C00
FC00FC00
7C01FC00
7F07BE40
7FFF3FC0
3FFE3FC0
0FF81FC0
00800200
ENDCHAR
STARTCHAR 00E1
ENCODING 225
SWIDTH 600 0
DWIDTH 30 0
BBX 26 39 2 -1
BITMAP
0003E000
0007C000
00078000
000F8000
000F0000
001E0000
001E0000
003C0000
003C0000
00000000
00000000
00000000
01FF8000
07FFE000
1FFFF800
3FE7F800
3F00FC00
7E007C00
7C007C00
7C007C00
00007C00
00007C00
00007C00
00FFFC00
07FFFC00
1FFFFC00
3FC07C00
7E007C00
7C007C00
FC007C00
FC007C00
FC007C00
FC00FC00
7C01FC00
7F07BE40
7FFF3FC0
3FFE3FC0
0FF81FC0
00800200
ENDCHAR
STARTCHAR 00E2
ENCODING 226
SWIDTH 600 0
DWIDTH 30 0
BBX 26 39 2 -1
BITMAP
007C0000
007E0000
00FF0000
01EF8000
03E78000
03C3C000
0781E000
0F01F000
1F00F000
00000000
00000000
00000000
01FF8000
07FFE000
1FFFF800
3FE7F800
3F00FC00
7E007C00
7C007C00
7C007C00
00007C00
00007C00
00007C00
00FFFC00
07FFFC00
1FFFFC00
3FC07C00
7E007C00
7C007C00
FC007C00
FC007C00
FC007C00
FC00FC00
7C01FC00
7F07BE40
7FFF3FC0
3FFE3FC0
0FF81FC0
00800200
ENDCHAR
STARTCHAR 00E3
ENCODING 227
SWIDTH 600 0
DWIDTH 30 0
BBX 26 38 2 -1
BITMAP
00803800
07F03800
0FFC7800
0FFFF000
1C3FF000
1C1FE000
18038000
00000000
00000000
00000000
00000000
01FF8000
07FFE000
1FFFF800
3FE7F800
3F00FC00
7E007C00
7C007C00
7C007C00
00007C00
00007C00
00007C00
00FFFC00
07FFFC00
1FFFFC00
3FC07C00
7E007C00
7C007C00
FC007C00
FC007C00
FC007C00
FC00FC00
7C01FC00
7F07BE40
7FFF3FC0
3FFE3FC0
0FF81FC0
00800200
ENDCHAR
STARTCHAR 00E4
ENCODING 228
SWIDTH 600 0
DWIDTH 30 0
BBX 26 36 2 -1
BITMAP
0F81F000
0F81F000
0F81F000
0F81F000
00000000
00000000
00000000
00000000
00000000
01FF8000
07FFE000
1FFFF800
3FE7F800
3F00FC00
7E007C00
7C007C00
7C007C00
00007C00
00007C00
00007C00
00FFFC00
07FFFC00
1FFFFC00
3FC07C00
7E007C00
7C007C00
FC007C00
FC007C00
FC007C00
FC00FC00
7C01FC00
7F07BE40
7FFF3FC0
3FFE3FC0
0FF81FC0
00800200
ENDCHAR
STARTCHAR 00E5
ENCODING 229
SWIDTH 600 0
DWIDTH 30 0
BBX 26 40 2 -1
BITMAP
003C0000
00FE0000
01FF0000
01C38000
01838000
01838000
01C38000
01E70000
00FE0000
007C0000
00000000
00000000
00000000
01FF8000
07FFE000
1FFFF800
3FE7F800
3F00FC00
7E007C00
7C007C00
7C007C00
00007C00
00007C00
00007C00
00FFFC00
07FFFC00
1FFFFC00
3FC07C00
7E007C00
7C007C00
FC007C00
FC007C00
FC007C00
FC00FC00
7C01FC00
7F07BE40
7FFF3FC0
3FFE3FC0
0FF81FC0
00800200
ENDCHAR
STARTCHAR 00E6
ENCODING 230
SWIDTH 900 0
DWIDTH 45 0
BBX 40 27 2 -1
BITMAP
01FF807F80
07FFE1FFE0
1FFFF3FFF8
3FE7FFFFFC
3F00FFC07E
7E007F803E
7C007F003F
7C007E001F
00007E001F
00007E001F
00007E001F
00FFFFFFFF
07FFFFFFFF
1FFFFFFFFF
3FC07E0000
7E007E0000
7C007E001F
FC007E001F
FC007E001F
FC007F001F
FC00FF003E
7C01EF803E
7F07C7E0FC
7FFF87FFFC
3FFF01FFF0
0FFC00FFE0
0080000C00
ENDCHAR
STARTCHAR 00E7
ENCODING 231
SWIDTH 560 0
DWIDTH 28 0
BBX 22 36 3 -10
BITMAP
00FF00
07FFC0
0FFFE0
1FFFF0
3F01F8
3E00F8
7C007C
7C007C
F8003C
F8003C
F80000
F80000
F80000
F80000
F80000
F80000
F8003C
F8003C
FC003C
7C007C
7E0078
3E00F8
1F83F0
1FFFE0
07FFC0
03FF00
003000
003000
003F00
003F00
000380
000380
000380
010780
01FF00
03FE00
ENDCHAR
STARTCHAR 00E8
ENCODING 232
SWIDTH 580 0
DWIDTH 29 0
BBX 23 39 3 -1
BITMAP
07C000
03C000
03E000
01E000
00F000
00F000
007800
007800
003C00
000000
000000
000000
00FF00
07FFC0
0FFFE0
1FFFF0
3F01F8
7E00FC
7C007C
7C007C
F8003C
F8003E
F8003E
FFFFFE
FFFFFE
FFFFFE
F80000
F80000
F8003E
F8003E
FC003C
7C007C
7E007C
3F00F8
3F83F8
1FFFF0
0FFFE0
03FF80
003000
ENDCHAR
STARTCHAR 00E9
ENCODING 233
SWIDTH 580 0
DWIDTH 29 0
BBX 23 39 3 -1
BITMAP
0003E0
0007C0
000780
000F80
000F00
001E00
001E00
003C00
003C00
000000
000000
000000
00FF00
07FFC0
0FFFE0
1FFFF0
3F01F8
7E00FC
7C007C
7C007C
F8003C
F8003E
F8003E
FFFFFE
FFFFFE
FFFFFE
F80000
F80000
F8003E
F8003E
FC003C
7C007C
7E007C
3F00F8
3F83F8
1FFFF0
0FFFE0
03FF80
003000
ENDCHAR
STARTCHAR 00EA
ENCODING 234
SWIDTH 580 0
DWIDTH 29 0
BBX 23 39 3 -1
BITMAP
007C00
007E00
00FF00
01EF00
03E780
03C3C0
0783E0
0F01E0
1F00F0
000000
000000
000000
00FF00
07FFC0
0FFFE0
1FFFF0
3F01F8
7E00FC
7C007C
7C007C
F8003C
F8003E
F8003E
FFFFFE
FFFFFE
FFFFFE
F80000
F80000
F8003E
F8003E
FC003C
7C007C
7E007C
3F00F8
3F83F8
1FFFF0
0FFFE0
03FF80
003000
ENDCHAR
STARTCHAR 00EB
ENCODING 235
SWIDTH 580 0
DWIDTH 29 0
BBX 23 36 3 -1
BITMAP
0F81F0
0F81F0
0F81F0
0F81F0
000000
000000
000000
000000
000000
00FF00
07FFC0
0FFFE0
1FFFF0
3F01F8
7E00FC
7C007C
7C007C
F8003C
F8003E
F8003E
FFFFFE
FFFFFE
FFFFFE
F80000
F80000
F8003E
F8003E
FC003C
7C007C
7E007C
3F00F8
3F83F8
1FFFF0
0FFFE0
03FF80
003000
ENDCHAR
STARTCHAR 00EC
ENCODING 236
SWIDTH 260 0
DWIDTH 13 0
BBX 9 38 0 0
BITMAP
F800
7800
7C00
3C00
3E00
1E00
0F00
0F00
0780
0000
0000
0000
0F80
0F80
0F80
0F80
0F80
0F80
0F80
0F80
0F80
0F80
0F80
0F80
0F80
0F80
0F80
0F80
0F80
0F80
0F80
0F80
0F80
0F80
0F80
0F80
0F80
0F80
ENDCHAR
STARTCHAR 00ED
ENCODING 237
SWIDTH 260 0
DWIDTH 13 0
BBX 10 38 4 0
BITMAP
07C0
0F80
0F00
1F00
1E00
3C00
3C00
7800
7000
0000
0000
0000
F800
F800
F800
F800
F800
F800
F800
F800
F800
F800
F800
F800
F800
F800
F800
F800
F800
F800
F800
F800
F800
F800
F800
F800
F800
F800
ENDCHAR
STARTCHAR 00EE
ENCODING 238
SWIDTH 260 0
DWIDTH 13 0
BBX 14 38 0 0
BITMAP
0780
0FC0
1FC0
1FE0
3DE0
38F0
7878
F078
F03C
0000
0000
0000
0F80
0F80
0F80
0F80
0F80
0F80
0F80
0F80
0F80
0F80
0F80
0F80
0F80
0F80
0F80
0F80
0F80
0F80
0F80
0F80
0F80
0F80
0F80
0F80
0F80
0F80
ENDCHAR
STARTCHAR 00EF
ENCODING 239
SWIDTH 260 0
DWIDTH 13 0
BBX 14 35 0 0
BITMAP
F87C
F87C
F87C
F87C
0000
0000
0000
0000
0000
0F80
0F80
0F80
0F80
0F80
0F80
0F80
0F80
0F80
0F80
0F80
0F80
0F80
0F80
0F80
0F80
0F80
0F80
0F80
0F80
0F80
0F80
0F80
0F80
0F80
0F80
ENDCHAR
STARTCHAR 00F0
ENCODING 240
SWIDTH 580 0
DWIDTH 29 0
BBX 24 37 3 -1
BITMAP
1F0100
0FC780
07FF00
01FC00
03FC00
0FFE00
1E3F00
081F80
000FC0
0007E0
01FFE0
07FFF0
0FFFF8
1FEFF8
3F01FC
3E00FC
7C007E
7C003E
F8003E
F8003E
F8003E
F8003F
F8003F
F8003F
F8003F
F8003F
F8003E
F8003E
7C003E
7C007E
7E007C
3F00F8
1F83F8
0FFFF0
07FFE0
03FF80
001800
ENDCHAR
STARTCHAR 00F1
ENCODING 241
SWIDTH 600 0
DWIDTH 30 0
BBX 22 37 4 0
BITMAP
010070
0FE070
1FF0E0
3FFFE0
387FE0
383FC0
300700
000000
000000
000000
000000
F07F00
F1FFC0
F3FFE0
F7FFF0
FF03F8
FE00F8
FC00F8
FC00FC
F8007C
F8007C
F8007C
F8007C
F8007C
F8007C
F8007C
F8007C
F8007C
F8007C
F8007C
F8007C
F8007C
F8007C
F8007C
F8007C
F8007C
F8007C
ENDCHAR
STARTCHAR 00F2
ENCODING 242
SWIDTH 580 0
DWIDTH 29 0
BBX 24 39 3 -1
BITMAP
07C000
03C000
03E000
01E000
00F000
00F000
007800
007800
003C00
000000
000000
000000
00FF00
07FFC0
0FFFE0
1FFFF0
3F01F8
3E00FC
7C007C
7C003E
F8003E
F8003E
F8003E
F8003F
F8003F
F8003F
F8003F
F8003F
F8003E
F8003E
7C003E
7C007E
7E007C
3F00F8
1F83F8
0FFFF0
07FFE0
01FF80
001000
ENDCHAR
STARTCHAR 00F3
ENCODING 243
SWIDTH 580 0
DWIDTH 29 0
BBX 24 39 3 -1
BITMAP
0003E0
0007C0
000780
000F80
000F00
001E00
001E00
003C00
003C00
000000
000000
000000
00FF00
07FFC0
0FFFE0
1FFFF0
3F01F8
3E00FC
7C007C
7C003E
F8003E
F8003E
F8003E
F8003F
F8003F
F8003F
F8003F
F8003F
F8003E
F8003E
7C003E
7C007E
7E007C
3F00F8
1F83F8
0FFFF0
07FFE0
01FF80
001000
ENDCHAR
STARTCHAR 00F4
ENCODING 244
SWIDTH 580 0
DWIDTH 29 0
BBX 24 39 3 -1
BITMAP
007C00
007E00
00FF00
01EF00
03E780
03C3C0
0783E0
0F01E0
1F00F0
000000
000000
000000
00FF00
07FFC0
0FFFE0
1FFFF0
3F01F8
3E00FC
7C007C
7C003E
F8003E
F8003E
F8003E
F8003F
F8003F
F8003F
F8003F
F8003F
F8003E
F8003E
7C003E
7C007E
7E007C
3F00F8
1F83F8
0FFFF0
07FFE0
01FF80
001000
ENDCHAR
STARTCHAR 00F5
ENCODING 245
SWIDTH 580 0
DWIDTH 29 0
BBX 24 38 3 -1
BITMAP
008038
07F038
0FF870
1FFFF0
1C3FF0
1C1FE0
180380
000000
000000
000000
000000
00FF00
07FFC0
0FFFE0
1FFFF0
3F01F8
3E00FC
7C007C
7C003E
F8003E
F8003E
F8003E
F8003F
F8003F
F8003F
F8003F
F8003F
F8003E
F8003E
7C003E
7C007E
7E007C
3F00F8
1F83F8
0FFFF0
07FFE0
01FF80
001000
ENDCHAR
STARTCHAR 00F6
ENCODING 246
SWIDTH 580 0
DWIDTH 29 0
BBX 24 36 3 -1
BITMAP
0F81F0
0F81F0
0F81F0
0F81F0
000000
000000
000000
000000
000000
00FF00
07FFC0
0FFFE0
1FFFF0
3F01F8
3E00FC
7C007C
7C003E
F8003E
F8003E
F8003E
F8003F
F8003F
F8003F
F8003F
F8003F
F8003E
F8003E
7C003E
7C007E
7E007C
3F00F8
1F83F8
0FFFF0
07FFE0
01FF80
001000
ENDCHAR
STARTCHAR 00F7
ENCODING 247
SWIDTH 620 0
DWIDTH 31 0
BBX 25 20 3 3
BITMAP
003E0000
003E0000
003E0000
003E0000
003E0000
00000000
00000000
00000000
FFFFFF80
FFFFFF80
FFFFFF80
FFFFFF80
00000000
00000000
00000000
00000000
003E0000
003E0000
003E0000
003E0000
ENDCHAR
STARTCHAR 00F8
ENCODING 248
SWIDTH 580 0
DWIDTH 29 0
BBX 24 32 3 -3
BITMAP
00000E
00001C
00003C
00FF38
07FFF0
0FFFF0
1FFFF0
3F01F8
3E01FC
7C03FC
7C07BE
F8073E
F80E3E
F80E3E
F81C3F
F8383F
F8383F
F8703F
F8F03F
F8E03E
F9C03E
7DC03E
7F807E
7F007C
3F00F8
1F83F8
1FFFF0
1FFFE0
39FF80
381000
700000
E00000
ENDCHAR
STARTCHAR 00F9
ENCODING 249
SWIDTH 620 0
DWIDTH 31 0
BBX 25 39 4 -1
BITMAP
0F800000
0F800000
07C00000
03C00000
03E00000
01E00000
00E00000
00F00000
00700000
00000000
00000000
00000000
F800FC00
F800FC00
F800FC00
F800FC00
F800FC00
F800FC00
F800FC00
F800FC00
F800FC00
F800FC00
F800FC00
F800FC00
F800FC00
F800FC00
F800FC00
F800FC00
F800FC00
F800FC00
F800FC00
F800FC00
FC01FC00
FC03FC00
7F9FFC80
7FFF7F80
3FFE7F80
0FF83F80
00800400
ENDCHAR
STARTCHAR 00FA
ENCODING 250
SWIDTH 620 0
DWIDTH 31 0
BBX 25 39 4 -1
BITMAP
000F8000
000F8000
001F0000
001E0000
001E0000
003C0000
003C0000
00780000
00700000
00000000
00000000
00000000
F800FC00
F800FC00
F800FC00
F800FC00
F800FC00
F800FC00
F800FC00
F800FC00
F800FC00
F800FC00
F800FC00
F800FC00
F800FC00
F800FC00
F800FC00
F800FC00
F800FC00
F800FC00
F800FC00
F800FC00
FC01FC00
FC03FC00
7F9FFC80
7FFF7F80
3FFE7F80
0FF83F80
00800400
ENDCHAR
STARTCHAR 00FB
ENCODING 251
SWIDTH 620 0
DWIDTH 31 0
BBX 25 39 4 -1
BITMAP
00F80000
01FC0000
01FC0000
03DE0000
078F0000
0F8F8000
0F078000
1E03C000
3C01E000
00000000
00000000
00000000
F800FC00
F800FC00
F800FC00
F800FC00
F800FC00
F800FC00
F800FC00
F800FC00
F800FC00
F800FC00
F800FC00
F800FC00
F800FC00
F800FC00
F800FC00
F800FC00
F800FC00
F800FC00
F800FC00
F800FC00
FC01FC00
FC03FC00
7F9FFC80
7FFF7F80
3FFE7F80
0FF83F80
00800400
ENDCHAR
STARTCHAR 00FC
ENCODING 252
SWIDTH 620 0
DWIDTH 31 0
BBX 25 36 4 -1
BITMAP
1E03C000
1E03C000
1E03C000
1E03C000
00000000
00000000
00000000
00000000
00000000
F800FC00
F800FC00
F800FC00
F800FC00
F800FC00
F800FC00
F800FC00
F800FC00
F800FC00
F800FC00
F800FC00
F800FC00
F800FC00
F800FC00
F800FC00
F800FC00
F800FC00
F800FC00
F800FC00
F800FC00
FC01FC00
FC03FC00
7F9FFC80
7FFF7F80
3FFE7F80
0FF83F80
00800400
ENDCHAR
STARTCHAR 00FD
ENCODING 253
SWIDTH 520 0
DWIDTH 26 0
BBX 24 47 1 -9
BITMAP
0003E0
0003C0
0007C0
000780
000F80
000F00
001E00
001E00
003C00
000000
000000
000000
F8001F
FC001F
7C001F
7C003E
7E003E
3E003C
3E007C
1F007C
1F0078
1F80F8
0F80F8
0F81F0
07C1F0
07C1E0
07C3E0
03E3E0
03E3C0
01F7C0
01F780
01FF80
00FF80
00FF00
007F00
007E00
007E00
003E00
003C00
007C00
007800
00F800
01F000
3FF000
3FE000
3FC000
3F8000
ENDCHAR
STARTCHAR 00FE
ENCODING 254
SWIDTH 600 0
DWIDTH 30 0
BBX 23 45 4 -9
BITMAP
F80000
F80000
F80000
F80000
F80000
F80000
F80000
F80000
F80000
F80000
F87F00
F9FFC0
FBFFE0
FFFFF0
FF01F8
FE00F8
FC00FC
FC007C
F8007C
F8007C
F8007E
F8007E
F8007E
F8007E
F8007E
F8007E
F8007C
F8007C
F8007C
FC00FC
FC00F8
FE01F8
FF87F0
FBFFE0
F9FFC0
F8FF80
F80800
F80000
F80000
F80000
F80000
F80000
F80000
F80000
F80000
ENDCHAR
STARTCHAR 00FF
ENCODING 255
SWIDTH 520 0
DWIDTH 26 0
BBX 24 44 1 -9
BITMAP
0F81F0
0F81F0
0F81F0
0F81F0
000000
000000
000000
000000
000000
F8001F
FC001F
7C001F
7C003E
7E003E
3E003C
3E007C
1F007C
1F0078
1F80F8
0F80F8
0F81F0
07C1F0
07C1E0
07C3E0
03E3E0
03E3C0
01F7C0
01F780
01FF80
00FF80
00FF00
007F00
007E00
007E00
003E00
003C00
007C00
007800
00F800
01F000
3FF000
3FE000
3FC000
3F8000
ENDCHAR
STARTCHAR 0100
ENCODING 256
SWIDTH 680 0
DWIDTH 34 0
BBX 33 42 0 0
BITMAP
007FFF8000
007FFF8000
007FFF8000
0000000000
0000000000
0000000000
0000000000
0000000000
0007F00000
0007F00000
0007F80000
000FF80000
000FFC0000
000FFC0000
001F7C0000
001F7E0000
003E3E0000
003E3F0000
003E1F0000
007C1F0000
007C1F8000
00FC0F8000
00F80FC000
00F80FC000
01F007C000
01F007E000
03F003E000
03E003E000
03E003F000
07E001F000
07FFFFF800
07FFFFF800
0FFFFFF800
0FFFFFFC00
1F80007C00
1F00007E00
1F00007E00
3F00003E00
3E00003F00
7E00003F00
7C00001F00
FC00001F80
ENDCHAR
STARTCHAR 0101
ENCODING 257
SWIDTH 600 0
DWIDTH 30 0
BBX 26 35 2 -1
BITMAP
0FFFF000
0FFFF000
0FFFF000
00000000
00000000
00000000
00000000
00000000
01FF8000
07FFE000
1FFFF800
3FE7F800
3F00FC00
7E007C00
7C007C00
7C007C00
00007C00
00007C00
00007C00
00FFFC00
07FFFC00
1FFFFC00
3FC07C00
7E007C00
7C007C00
FC007C00
FC007C00
FC007C00
FC00FC00
7C01FC00
7F07BE40
7FFF3FC0
3FFE3FC0
0FF81FC0
00800200
ENDCHAR
STARTCHAR 0102
ENCODING 258
SWIDTH 680 0
DWIDTH 34 0
BBX 33 44 0 0
BITMAP
0070078000
0078070000
007C1F0000
003FFE0000
001FFC0000
0007F00000
0000000000
0000000000
0000000000
0000000000
0007F00000
0007F00000
0007F80000
000FF80000
000FFC0000
000FFC0000
001F7C0000
001F7E0000
003E3E0000
003E3F0000
003E1F0000
007C1F0000
007C1F8000
00FC0F8000
00F80FC000
00F80FC000
01F007C000
01F007E000
03F003E000
03E003E000
03E003F000
07E001F000
07FFFFF800
07FFFFF800
0FFFFFF800
0FFFFFFC00
1F80007C00
1F00007E00
1F00007E00
3F00003E00
3E00003F00
7E00003F00
7C00001F00
FC00001F80
ENDCHAR
STARTCHAR 0103
ENCODING 259
SWIDTH 600 0
DWIDTH 30 0
BBX 26 38 2 -1
BITMAP
1E007000
0E007000
0F00F000
0F01E000
07FFE000
03FFC000
01FF0000
00000000
00000000
00000000
00000000
01FF8000
07FFE000
1FFFF800
3FE7F800
3F00FC00
7E007C00
7C007C00
7C007C00
00007C00
00007C00
00007C00
00FFFC00
07FFFC00
1FFFFC00
3FC07C00
7E007C00
7C007C00
FC007C00
FC007C00
FC007C00
FC00FC00
7C01FC00
7F07BE40
7FFF3FC0
3FFE3FC0
0FF81FC0
00800200
ENDCHAR
STARTCHAR 0104
ENCODING 260
SWIDTH 680 0
DWIDTH 34 0
BBX 34 41 0 -7
BITMAP
0007F00000
0007F00000
0007F80000
000FF80000
000FFC0000
000FFC0000
001F7C0000
001F7E0000
003E3E0000
003E3F0000
003E1F0000
007C1F0000
007C1F8000
00FC0F8000
00F80FC000
00F80FC000
01F007C000
01F007E000
03F003E000
03E003E000
03E003F000
07E001F000
07FFFFF800
07FFFFF800
0FFFFFF800
0FFFFFFC00
1F80007C00
1F00007E00
1F00007E00
3F00003E00
3E00003F00
7E00003F00
7C00001F00
7C00001F80
8000001C00
0000003800
0000007000
0000007000
0000007840
0000003FC0
0000001F80
ENDCHAR
STARTCHAR 0105
ENCODING 261
SWIDTH 600 0
DWIDTH 30 0
BBX 29 33 2 -7
BITMAP
01FF8000
07FFE000
1FFFF800
3FE7F800
3F00FC00
7E007C00
7C007C00
7C007C00
00007C00
00007C00
00007C00
00FFFC00
07FFFC00
1FFFFC00
3FC07C00
7E007C00
7C007C00
FC007C00
FC007C00
FC007C00
FC00FC00
7C01FC00
7F07BE40
7FFF3FC0
3FFE3FC0
0FF81FC0
00800700
00000E00
00000E00
00000E00
00000F10
00000FF8
000007F0
ENDCHAR
STARTCHAR 0106
ENCODING 262
SWIDTH 680 0
DWIDTH 34 0
BBX 28 46 3 -1
BITMAP
00007C00
00007C00
0000F800
0001F000
0003E000
0003C000
00078000
00080000
00000000
00000000
001FC000
00FFF800
03FFFE00
07FFFF00
0FF9FF80
1FC01FC0
3F000FC0
3E0007E0
7E0003E0
7E0003E0
7C0003E0
7C0001F0
FC0001F0
FC0001F0
FC000000
FC000000
FC000000
FC000000
FC000000
FC000000
FC000000
FC000000
FC0001F0
FC0001F0
7C0001F0
7C0003E0
7E0003E0
7E0003E0
3F0007E0
3F800FC0
1FC01F80
0FFFFF80
07FFFF00
03FFFC00
00FFF000
00060000
ENDCHAR
STARTCHAR 0107
ENCODING 263
SWIDTH 560 0
DWIDTH 28 0
BBX 22 39 3 -1
BITMAP
0007C0
0007C0
000F80
000F00
001F00
001E00
003C00
003C00
003800
000000
000000
000000
00FF00
07FFC0
0FFFE0
1FFFF0
3F01F8
3E00F8
7C007C
7C007C
F8003C
F8003C
F80000
F80000
F80000
F80000
F80000
F80000
F8003C
F8003C
FC003C
7C007C
7E0078
3E00F8
1F83F0
1FFFE0
07FFC0
03FF00
003000
ENDCHAR
STARTCHAR 0108
ENCODING 264
SWIDTH 680 0
DWIDTH 34 0
BBX 28 45 3 -1
BITMAP
001F8000
003FC000
0079E000
00F0F000
01F07800
03E07C00
00000000
00000000
00000000
001FC000
00FFF800
03FFFE00
07FFFF00
0FF9FF80
1FC01FC0
3F000FC0
3E0007E0
7E0003E0
7E0003E0
7C0003E0
7C0001F0
FC0001F0
FC0001F0
FC000000
FC000000
FC000000
FC000000
FC000000
FC000000
FC000000
FC000000
FC0001F0
FC0001F0
7C0001F0
7C0003E0
7E0003E0
7E0003E0
3F0007E0
3F800FC0
1FC01F80
0FFFFF80
07FFFF00
03FFFC00
00FFF000
00060000
ENDCHAR
STARTCHAR 0109
ENCODING 265
SWIDTH 560 0
DWIDTH 28 0
BBX 22 39 3 -1
BITMAP
007C00
00FE00
01FE00
01EF00
03C780
07C7C0
0F83C0
0F01E0
1E00F0
000000
000000
000000
00FF00
07FFC0
0FFFE0
1FFFF0
3F01F8
3E00F8
7C007C
7C007C
F8003C
F8003C
F80000
F80000
F80000
F80000
F80000
F80000
F8003C
F8003C
FC003C
7C007C
7E0078
3E00F8
1F83F0
1FFFE0
07FFC0
03FF00
003000
ENDCHAR
STARTCHAR 010A
ENCODING 266
SWIDTH 680 0
DWIDTH 34 0
BBX 28 44 3 -1
BITMAP
000F0000
000F0000
000F0000
000F0000
00000000
00000000
00000000
00000000
001FC000
00FFF800
03FFFE00
07FFFF00
0FF9FF80
1FC01FC0
3F000FC0
3E0007E0
7E0003E0
7E0003E0
7C0003E0
7C0001F0
FC0001F0
FC0001F0
FC000000
FC000000
FC000000
FC000000
FC000000
FC000000
FC000000
FC000000
FC0001F0
FC0001F0
7C0001F0
7C0003E0
7E0003E0
7E0003E0
3F0007E0
3F800FC0
1FC01F80
0FFFFF80
07FFFF00
03FFFC00
00FFF000
00060000
ENDCHAR
STARTCHAR 010B
ENCODING 267
SWIDTH 560 0
DWIDTH 28 0
BBX 22 37 3 -1
BITMAP
007C00
007C00
007C00
007C00
007C00
000000
000000
000000
000000
000000
00FF00
07FFC0
0FFFE0
1FFFF0
3F01F8
3E00F8
7C007C
7C007C
F8003C
F8003C
F80000
F80000
F80000
F80000
F80000
F80000
F8003C
F8003C
FC003C
7C007C
7E0078
3E00F8
1F83F0
1FFFE0
07FFC0
03FF00
003000
ENDCHAR
STARTCHAR 010C
ENCODING 268
SWIDTH 680 0
DWIDTH 34 0
BBX 28 45 3 -1
BITMAP
07E07E00
01F0F800
00F9F000
007FE000
003FC000
001F8000
00000000
00000000
00000000
001FC000
00FFF800
03FFFE00
07FFFF00
0FF9FF80
1FC01FC0
3F000FC0
3E0007E0
7E0003E0
7E0003E0
7C0003E0
7C0001F0
FC0001F0
FC0001F0
FC000000
FC000000
FC000000
FC000000
FC000000
FC000000
FC000000
FC000000
FC0001F0
FC0001F0
7C0001F0
7C0003E0
7E0003E0
7E0003E0
3F0007E0
3F800FC0
1FC01F80
0FFFFF80
07FFFF00
03FFFC00
00FFF000
00060000
ENDCHAR
STARTCHAR 010D
ENCODING 269
SWIDTH 560 0
DWIDTH 28 0
BBX 22 39 3 -1
BITMAP
1E01F0
0F01E0
0783C0
07C780
03CF80
01EF00
00FE00
00FC00
007C00
000000
000000
000000
00FF00
07FFC0
0FFFE0
1FFFF0
3F01F8
3E00F8
7C007C
7C007C
F8003C
F8003C
F80000
F80000
F80000
F80000
F80000
F80000
F8003C
F8003C
FC003C
7C007C
7E0078
3E00F8
1F83F0
1FFFE0
07FFC0
03FF00
003000
ENDCHAR
STARTCHAR 010E
ENCODING 270
SWIDTH 680 0
DWIDTH 34 0
BBX 26 44 5 0
BITMAP
3F03F000
0F87C000
07CF8000
03FF0000
01FE0000
00FC0000
00000000
00000000
00000000
00000000
FFFF8000
FFFFF000
FFFFF800
FFFFFC00
F801FE00
F8007F00
F8003F00
F8001F80
F8001F80
F8000F80
F8000F80
F8000FC0
F8000FC0
F8000FC0
F8000FC0
F8000FC0
F8000FC0
F8000FC0
F8000FC0
F8000FC0
F8000FC0
F8000FC0
F8000F80
F8000F80
F8001F80
F8001F80
F8003F00
F8003F00
F800FE00
F803FC00
FFFFF800
FFFFF000
FFFFE000
FFFF0000
ENDCHAR
STARTCHAR 010F
ENCODING 271
SWIDTH 640 0
DWIDTH 32 0
BBX 31 37 3 -1
BITMAP
00003E00
00003E00
00003E7E
00003E7E
00003E7E
00003E7E
00003E7E
00003E0E
00003E1C
00003E1C
01F83E1C
07FE3E18
1FFFBE38
1FFFBE00
3F01FE00
7E00FE00
7C00FE00
FC007E00
F8007E00
F8007E00
F8003E00
F8003E00
F8003E00
F8003E00
F8003E00
F8003E00
F8007E00
F8007E00
FC007E00
7C007E00
7C00FE00
3E01FE00
3F83FE00
1FFFBE00
0FFF3E00
03FE1E00
00200000
ENDCHAR
STARTCHAR 0110
ENCODING 272
SWIDTH 680 0
DWIDTH 34 0
BBX 30 34 1 0
BITMAP
0FFFF800
0FFFFF00
0FFFFF80
0FFFFFC0
0F801FE0
0F8007F0
0F8003F0
0F8001F8
0F8001F8
0F8000F8
0F8000F8
0F8000FC
0F8000FC
0F8000FC
0F8000FC
FFFF80FC
FFFF80FC
FFFF80FC
0F8000FC
0F8000FC
0F8000FC
0F8000FC
0F8000F8
0F8000F8
0F8001F8
0F8001F8
0F8003F0
0F8003F0
0F800FE0
0F803FC0
0FFFFF80
0FFFFF00
0FFFFE00
0FFFF000
ENDCHAR
STARTCHAR 0111
ENCODING 273
SWIDTH 600 0
DWIDTH 30 0
BBX 26 37 3 -1
BITMAP
00003E00
00003E00
00003E00
00003E00
007FFFC0
007FFFC0
007FFFC0
00003E00
00003E00
00003E00
01F83E00
07FE3E00
1FFFBE00
1FFFBE00
3F01FE00
7E00FE00
7C00FE00
FC007E00
F8007E00
F8007E00
F8003E00
F8003E00
F8003E00
F8003E00
F8003E00
F8003E00
F8007E00
F8007E00
FC007E00
7C007E00
7C00FE00
3E01FE00
3F83FE00
1FFFBE00
0FFF3E00
03FE1E00
00200000
ENDCHAR
STARTCHAR 0112
ENCODING 274
SWIDTH 600 0
DWIDTH 30 0
BBX 23 42 5 0
BITMAP
1FFFE0
1FFFE0
1FFFE0
000000
000000
000000
000000
000000
FFFFFC
FFFFFC
FFFFFC
FFFFFC
F80000
F80000
F80000
F80000
F80000
F80000
F80000
F80000
F80000
F80000
FFFFF0
FFFFF0
FFFFF0
FFFFF0
FFFFF0
F80000
F80000
F80000
F80000
F80000
F80000
F80000
F80000
F80000
F80000
F80000
FFFFFC
FFFFFC
FFFFFC
FFFFFE
ENDCHAR
STARTCHAR 0113
ENCODING 275
SWIDTH 580 0
DWIDTH 29 0
BBX 23 35 3 -1
BITMAP
0FFFF0
0FFFF0
0FFFF0
000000
000000
000000
000000
000000
00FF00
07FFC0
0FFFE0
1FFFF0
3F01F8
7E00FC
7C007C
7C007C
F8003C
F8003E
F8003E
FFFFFE
FFFFFE
FFFFFE
F80000
F80000
F8003E
F8003E
FC003C
7C007C
7E007C
3F00F8
3F83F8
1FFFF0
0FFFE0
03FF80
003000
ENDCHAR
STARTCHAR 0114
ENCODING 276
SWIDTH 600 0
DWIDTH 30 0
BBX 23 44 5 0
BITMAP
1C01E0
1E01C0
0F07C0
0FFF80
07FF00
01FC00
000000
000000
000000
000000
FFFFFC
FFFFFC
FFFFFC
FFFFFC
F80000
F80000
F80000
F80000
F80000
F80000
F80000
F80000
F80000
F80000
FFFFF0
FFFFF0
FFFFF0
FFFFF0
FFFFF0
F80000
F80000
F80000
F80000
F80000
F80000
F80000
F80000
F80000
F80000
F80000
FFFFFC
FFFFFC
FFFFFC
FFFFFE
ENDCHAR
STARTCHAR 0115
ENCODING 277
SWIDTH 580 0
DWIDTH 29 0
BBX 23 38 3 -1
BITMAP
1E0070
1E00F0
0F00F0
0F01E0
07FFE0
03FFC0
01FF00
000000
000000
000000
000000
00FF00
07FFC0
0FFFE0
1FFFF0
3F01F8
7E00FC
7C007C
7C007C
F8003C
F8003E
F8003E
FFFFFE
FFFFFE
FFFFFE
F80000
F80000
F8003E
F8003E
FC003C
7C007C
7E007C
3F00F8
3F83F8
1FFFF0
0FFFE0
03FF80
003000
ENDCHAR
STARTCHAR 0116
ENCODING 278
SWIDTH 600 0
DWIDTH 30 0
BBX 23 43 5 0
BITMAP
00F800
00F800
00F800
00F800
000000
000000
000000
000000
000000
FFFFFC
FFFFFC
FFFFFC
FFFFFC
F80000
F80000
F80000
F80000
F80000
F80000
F80000
F80000
F80000
F80000
FFFFF0
FFFFF0
FFFFF0
FFFFF0
FFFFF0
F80000
F80000
F80000
F80000
F80000
F80000
F80000
F80000
F80000
F80000
F80000
FFFFFC
FFFFFC
FFFFFC
FFFFFE
ENDCHAR
STARTCHAR 0117
ENCODING 279
SWIDTH 580 0
DWIDTH 29 0
BBX 23 37 3 -1
BITMAP
007C00
007C00
007C00
007C00
007C00
000000
000000
000000
000000
000000
00FF00
07FFC0
0FFFE0
1FFFF0
3F01F8
7E00FC
7C007C
7C007C
F8003C
F8003E
F8003E
FFFFFE
FFFFFE
FFFFFE
F80000
F80000
F8003E
F8003E
FC003C
7C007C
7E007C
3F00F8
3F83F8
1FFFF0
0FFFE0
03FF80
003000
ENDCHAR
STARTCHAR 0118
ENCODING 280
SWIDTH 600 0
DWIDTH 30 0
BBX 26 41 5 -7
BITMAP
FFFFFC00
FFFFFC00
FFFFFC00
FFFFFC00
F8000000
F8000000
F8000000
F8000000
F8000000
F8000000
F8000000
F8000000
F8000000
F8000000
FFFFF000
FFFFF000
FFFFF000
FFFFF000
FFFFF000
F8000000
F8000000
F8000000
F8000000
F8000000
F8000000
F8000000
F8000000
F8000000
F8000000
F8000000
FFFFFC00
FFFFFC00
FFFFFC00
FFFFFE00
00003800
00007000
0000E000
0000E000
0000F080
00007FC0
00003F00
ENDCHAR
STARTCHAR 0119
ENCODING 281
SWIDTH 580 0
DWIDTH 29 0
BBX 23 33 3 -7
BITMAP
00FF00
07FFC0
0FFFE0
1FFFF0
3F01F8
7E00FC
7C007C
7C007C
F8003C
F8003E
F8003E
FFFFFE
FFFFFE
FFFFFE
F80000
F80000
F8003E
F8003E
FC003C
7C007C
7E007C
3F00F8
3F83F8
1FFFF0
0FFFE0
03FF80
003C00
003800
003800
003800
003C40
003FE0
001FC0
ENDCHAR
STARTCHAR 011A
ENCODING 282
SWIDTH 600 0
DWIDTH 30 0
BBX 23 44 5 0
BITMAP
3E03E0
0F07C0
078F80
03DF00
01FE00
00FC00
000000
000000
000000
000000
FFFFFC
FFFFFC
FFFFFC
FFFFFC
F80000
F80000
F80000
F80000
F80000
F80000
F80000
F80000
F80000
F80000
FFFFF0
FFFFF0
FFFFF0
FFFFF0
FFFFF0
F80000
F80000
F80000
F80000
F80000
F80000
F80000
F80000
F80000
F80000
F80000
FFFFFC
FFFFFC
FFFFFC
FFFFFE
ENDCHAR
STARTCHAR 011B
ENCODING 283
SWIDTH 580 0
DWIDTH 29 0
BBX 23 39 3 -1
BITMAP
1F00F0
0F01E0
0783E0
03C3C0
01E780
01EF00
00FF00
007E00
003C00
000000
000000
000000
00FF00
07FFC0
0FFFE0
1FFFF0
3F01F8
7E00FC
7C007C
7C007C
F8003C
F8003E
F8003E
FFFFFE
FFFFFE
FFFFFE
F80000
F80000
F8003E
F8003E
FC003C
7C007C
7E007C
3F00F8
3F83F8
1FFFF0
0FFFE0
03FF80
003000
ENDCHAR
STARTCHAR 011C
ENCODING 284
SWIDTH 680 0
DWIDTH 34 0
BBX 28 45 3 -1
BITMAP
001F8000
003FC000
007DE000
00F8F000
01F07800
03E03E00
00000000
00000000
00000000
001FC000
01FFF800
03FFFE00
0FFFFF00
0FF9FF80
1FC01FC0
3F000FC0
3E0007E0
7E0003E0
7E0003E0
7C0003F0
7C0001F0
FC0001F0
FC000000
FC000000
FC000000
FC000000
FC07FFF0
FC07FFF0
FC07FFF0
FC07FFF0
FC0001F0
FC0001F0
FC0001F0
7C0001F0
7C0003F0
7E0003F0
7E0003F0
3F0007F0
3F800FF0
1FC01FF0
0FFFFEF0
07FFFCF0
03FFF870
00FFE070
000C0000
ENDCHAR
STARTCHAR 011D
ENCODING 285
SWIDTH 580 0
DWIDTH 29 0
BBX 27 45 2 -9
BITMAP
007F0000
00FF8000
01F7C000
03E3C000
07C1E000
0F80F800
00000000
000001E0
000003E0
000003C0
00FF8F80
03FFFF00
07FFFE00
0FC1FC00
1F007C00
1F003E00
3E003E00
3E003E00
3E003E00
3E003E00
3F003E00
1F007C00
0FC1FC00
0FFFF800
07FFE000
1FFF8000
3E000000
3C000000
7C000000
7C000000
7E000000
3FFFE000
1FFFFE00
0FFFFF00
3FFFFF80
7E001F80
780007C0
F80007C0
F00007C0
F80007C0
F8000FC0
FC001F80
7FFFFF00
3FFFFF00
1FFFFC00
ENDCHAR
STARTCHAR 011E
ENCODING 286
SWIDTH 680 0
DWIDTH 34 0
BBX 28 45 3 -1
BITMAP
03C01C00
03C03C00
01F07800
00FFF800
007FF000
001FC000
00000000
00000000
00000000
001FC000
01FFF800
03FFFE00
0FFFFF00
0FF9FF80
1FC01FC0
3F000FC0
3E0007E0
7E0003E0
7E0003E0
7C0003F0
7C0001F0
FC0001F0
FC000000
FC000000
FC000000
FC000000
FC07FFF0
FC07FFF0
FC07FFF0
FC07FFF0
FC0001F0
FC0001F0
FC0001F0
7C0001F0
7C0003F0
7E0003F0
7E0003F0
3F0007F0
3F800FF0
1FC01FF0
0FFFFEF0
07FFFCF0
03FFF870
00FFE070
000C0000
ENDCHAR
STARTCHAR 011F
ENCODING 287
SWIDTH 580 0
DWIDTH 29 0
BBX 26 46 2 -9
BITMAP
0F003800
0F007800
07007800
0780F000
03FFF000
01FFC000
00FF8000
000003C0
000007C0
00000780
00000F80
00FFBF00
03FFFE00
07FFF800
0FC1FC00
1F007C00
1F003E00
3E003E00
3E003E00
3E003E00
3E003E00
3F003E00
1F007C00
0FC1FC00
0FFFF800
07FFE000
1FFF8000
3E000000
3C000000
7C000000
7C000000
7E000000
3FFFE000
1FFFFE00
0FFFFF00
3FFFFF80
7E001F80
780007C0
F80007C0
F00007C0
F80007C0
F8000FC0
FC001F80
7FFFFF00
3FFFFF00
1FFFFC00
ENDCHAR
STARTCHAR 0120
ENCODING 288
SWIDTH 680 0
DWIDTH 34 0
BBX 28 44 3 -1
BITMAP
000F8000
000F8000
000F8000
000F8000
00000000
00000000
00000000
00000000
001FC000
01FFF800
03FFFE00
0FFFFF00
0FF9FF80
1FC01FC0
3F000FC0
3E0007E0
7E0003E0
7E0003E0
7C0003F0
7C0001F0
FC0001F0
FC000000
FC000000
FC000000
FC000000
FC07FFF0
FC07FFF0
FC07FFF0
FC07FFF0
FC0001F0
FC0001F0
FC0001F0
7C0001F0
7C0003F0
7E0003F0
7E0003F0
3F0007F0
3F800FF0
1FC01FF0
0FFFFEF0
07FFFCF0
03FFF870
00FFE070
000C0000
ENDCHAR
STARTCHAR 0121
ENCODING 289
SWIDTH 580 0
DWIDTH 29 0
BBX 26 45 2 -9
BITMAP
003E0000
003E0000
003E0000
003E0000
003E0000
00000000
000003C0
000007C0
00000780
00000F80
00FFBF00
03FFFE00
07FFF800
0FC1FC00
1F007C00
1F003E00
3E003E00
3E003E00
3E003E00
3E003E00
3F003E00
1F007C00
0FC1FC00
0FFFF800
07FFE000
1FFF8000
3E000000
3C000000
7C000000
7C000000
7E000000
3FFFE000
1FFFFE00
0FFFFF00
3FFFFF80
7E001F80
780007C0
F80007C0
F00007C0
F80007C0
F8000FC0
FC001F80
7FFFFF00
3FFFFF00
1FFFFC00
ENDCHAR
STARTCHAR 0122
ENCODING 290
SWIDTH 680 0
DWIDTH 34 0
BBX 28 51 3 -16
BITMAP
001FC000
01FFF800
03FFFE00
0FFFFF00
0FF9FF80
1FC01FC0
3F000FC0
3E0007E0
7E0003E0
7E0003E0
7C0003F0
7C0001F0
FC0001F0
FC000000
FC000000
FC000000
FC000000
FC07FFF0
FC07FFF0
FC07FFF0
FC07FFF0
FC0001F0
FC0001F0
FC0001F0
7C0001F0
7C0003F0
7E0003F0
7E0003F0
3F0007F0
3F800FF0
1FC01FF0
0FFFFEF0
07FFFCF0
03FFF870
00FFE070
000C0000
00000000
00000000
000F8000
000F8000
000F8000
000F8000
000F8000
000F8000
00038000
00038000
00030000
00070000
00070000
000E0000
000C0000
ENDCHAR
STARTCHAR 0123
ENCODING 291
SWIDTH 580 0
DWIDTH 29 0
BBX 26 51 2 -9
BITMAP
000E0000
001C0000
001C0000
00180000
00380000
00380000
003E0000
003E0000
003E0000
003E0000
003E0000
003E0000
000003C0
000007C0
00000780
00000F80
00FFBF00
03FFFE00
07FFF800
0FC1FC00
1F007C00
1F003E00
3E003E00
3E003E00
3E003E00
3E003E00
3F003E00
1F007C00
0FC1FC00
0FFFF800
07FFE000
1FFF8000
3E000000
3C000000
7C000000
7C000000
7E000000
3FFFE000
1FFFFE00
0FFFFF00
3FFFFF80
7E001F80
780007C0
F80007C0
F00007C0
F80007C0
F8000FC0
FC001F80
7FFFFF00
3FFFFF00
1FFFFC00
ENDCHAR
STARTCHAR 0124
ENCODING 292
SWIDTH 700 0
DWIDTH 35 0
BBX 25 44 5 0
BITMAP
007F0000
00FF0000
01F78000
03E3C000
07C1E000
0F80F800
00000000
00000000
00000000
00000000
F8000F80
F8000F80
F8000F80
F8000F80
F8000F80
F8000F80
F8000F80
F8000F80
F8000F80
F8000F80
F8000F80
F8000F80
F8000F80
F8000F80
FFFFFF80
FFFFFF80
FFFFFF80
FFFFFF80
FFFFFF80
F8000F80
F8000F80
F8000F80
F8000F80
F8000F80
F8000F80
F8000F80
F8000F80
F8000F80
F8000F80
F8000F80
F8000F80
F8000F80
F8000F80
F8000F80
ENDCHAR
STARTCHAR 0125
ENCODING 293
SWIDTH 600 0
DWIDTH 30 0
BBX 28 44 -2 0
BITMAP
07F00000
0FF80000
1F780000
3E3C0000
7C1E0000
F80F8000
00000000
00000000
03E00000
03E00000
03E00000
03E00000
03E00000
03E00000
03E00000
03E00000
03E00000
03E00000
03E0FC00
03E7FF00
03EFFF80
03FFFFC0
03FC0FE0
03F803E0
03F003F0
03F001F0
03E001F0
03E001F0
03E001F0
03E001F0
03E001F0
03E001F0
03E001F0
03E001F0
03E001F0
03E001F0
03E001F0
03E001F0
03E001F0
03E001F0
03E001F0
03E001F0
03E001F0
03E001F0
ENDCHAR
STARTCHAR 0126
ENCODING 294
SWIDTH 700 0
DWIDTH 35 0
BBX 32 34 1 0
BITMAP
0F8000F8
0F8000F8
0F8000F8
0F8000F8
0F8000F8
0F8000F8
FFFFFFFF
FFFFFFFF
FFFFFFFF
0F8000F8
0F8000F8
0F8000F8
0F8000F8
0F8000F8
0FFFFFF8
0FFFFFF8
0FFFFFF8
0FFFFFF8
0FFFFFF8
0F8000F8
0F8000F8
0F8000F8
0F8000F8
0F8000F8
0F8000F8
0F8000F8
0F8000F8
0F8000F8
0F8000F8
0F8000F8
0F8000F8
0F8000F8
0F8000F8
0F8000F8
ENDCHAR
STARTCHAR 0127
ENCODING 295
SWIDTH 600 0
DWIDTH 30 0
BBX 25 36 1 0
BITMAP
1F000000
1F000000
1F000000
1F000000
FFFF0000
FFFF0000
FFFF0000
1F000000
1F000000
1F000000
1F07E000
1F3FF800
1F7FFC00
1FFFFE00
1FE07F00
1FC01F00
1F801F80
1F800F80
1F000F80
1F000F80
1F000F80
1F000F80
1F000F80
1F000F80
1F000F80
1F000F80
1F000F80
1F000F80
1F000F80
1F000F80
1F000F80
1F000F80
1F000F80
1F000F80
1F000F80
1F000F80
ENDCHAR
STARTCHAR 0128
ENCODING 296
SWIDTH 400 0
DWIDTH 20 0
BBX 18 44 1 0
BITMAP
1F01C0
3FC380
7FFF80
FFFF80
E0FF00
E01C00
000000
000000
000000
000000
3FFE00
3FFE00
3FFE00
3FFE00
03E000
03E000
03E000
03E000
03E000
03E000
03E000
03E000
03E000
03E000
03E000
03E000
03E000
03E000
03E000
03E000
03E000
03E000
03E000
03E000
03E000
03E000
03E000
03E000
03E000
03E000
3FFE00
3FFE00
3FFE00
3FFE00
ENDCHAR
STARTCHAR 0129
ENCODING 297
SWIDTH 260 0
DWIDTH 13 0
BBX 15 37 -1 0
BITMAP
0806
3F0E
7F8E
7FFE
F3FC
E1F8
E070
0000
0000
0000
0000
07C0
07C0
07C0
07C0
07C0
07C0
07C0
07C0
07C0
07C0
07C0
07C0
07C0
07C0
07C0
07C0
07C0
07C0
07C0
07C0
07C0
07C0
07C0
07C0
07C0
07C0
ENDCHAR
STARTCHAR 012A
ENCODING 298
SWIDTH 400 0
DWIDTH 20 0
BBX 16 42 2 0
BITMAP
FFFF
FFFF
FFFF
0000
0000
0000
0000
0000
7FFC
7FFC
7FFC
7FFC
07C0
07C0
07C0
07C0
07C0
07C0
07C0
07C0
07C0
07C0
07C0
07C0
07C0
07C0
07C0
07C0
07C0
07C0
07C0
07C0
07C0
07C0
07C0
07C0
07C0
07C0
7FFC
7FFC
7FFC
7FFC
ENDCHAR
STARTCHAR 012B
ENCODING 299
SWIDTH 260 0
DWIDTH 13 0
BBX 13 34 0 0
BITMAP
FFF8
FFF8
FFF8
0000
0000
0000
0000
0000
0F80
0F80
0F80
0F80
0F80
0F80
0F80
0F80
0F80
0F80
0F80
0F80
0F80
0F80
0F80
0F80
0F80
0F80
0F80
0F80
0F80
0F80
0F80
0F80
0F80
0F80
ENDCHAR
STARTCHAR 012C
ENCODING 300
SWIDTH 400 0
DWIDTH 20 0
BBX 16 44 2 0
BITMAP
E00F
F00E
F83E
7FFC
3FF8
0FE0
0000
0000
0000
0000
7FFC
7FFC
7FFC
7FFC
07C0
07C0
07C0
07C0
07C0
07C0
07C0
07C0
07C0
07C0
07C0
07C0
07C0
07C0
07C0
07C0
07C0
07C0
07C0
07C0
07C0
07C0
07C0
07C0
07C0
07C0
7FFC
7FFC
7FFC
7FFC
ENDCHAR
STARTCHAR 012D
ENCODING 301
SWIDTH 260 0
DWIDTH 13 0
BBX 14 37 0 0
BITMAP
E03C
E03C
F038
F078
7FF8
3FF0
1FC0
0000
0000
0000
0000
0F80
0F80
0F80
0F80
0F80
0F80
0F80
0F80
0F80
0F80
0F80
0F80
0F80
0F80
0F80
0F80
0F80
0F80
0F80
0F80
0F80
0F80
0F80
0F80
0F80
0F80
ENDCHAR
STARTCHAR 012E
ENCODING 302
SWIDTH 400 0
DWIDTH 20 0
BBX 17 41 3 -7
BITMAP
FFF800
FFF800
FFF800
FFF800
0F8000
0F8000
0F8000
0F8000
0F8000
0F8000
0F8000
0F8000
0F8000
0F8000
0F8000
0F8000
0F8000
0F8000
0F8000
0F8000
0F8000
0F8000
0F8000
0F8000
0F8000
0F8000
0F8000
0F8000
0F8000
0F8000
FFF800
FFF800
FFF800
FFF800
007000
00E000
01E000
01E000
01E100
00FF80
007F00
ENDCHAR
STARTCHAR 012F
ENCODING 303
SWIDTH 280 0
DWIDTH 14 0
BBX 9 43 2 -7
BITMAP
3F00
3F00
3F00
3F00
0000
0000
0000
0000
0000
0000
3E00
3E00
3E00
3E00
3E00
3E00
3E00
3E00
3E00
3E00
3E00
3E00
3E00
3E00
3E00
3E00
3E00
3E00
3E00
3E00
3E00
3E00
3E00
3E00
3E00
3E00
3800
7000
E000
E000
F180
7F80
3F00
ENDCHAR
STARTCHAR 0130
ENCODING 304
SWIDTH 400 0
DWIDTH 20 0
BBX 13 43 3 0
BITMAP
0F80
0F80
0F80
0F80
0000
0000
0000
0000
0000
FFF8
FFF8
FFF8
FFF8
0F80
0F80
0F80
0F80
0F80
0F80
0F80
0F80
0F80
0F80
0F80
0F80
0F80
0F80
0F80
0F80
0F80
0F80
0F80
0F80
0F80
0F80
0F80
0F80
0F80
0F80
FFF8
FFF8
FFF8
FFF8
ENDCHAR
STARTCHAR 0131
ENCODING 305
SWIDTH 260 0
DWIDTH 13 0
BBX 5 26 4 0
BITMAP
F8
F8
F8
F8
F8
F8
F8
F8
F8
F8
F8
F8
F8
F8
F8
F8
F8
F8
F8
F8
F8
F8
F8
F8
F8
F8
ENDCHAR
STARTCHAR 0132
ENCODING 306
SWIDTH 920 0
DWIDTH 46 0
BBX 39 35 3 -1
BITMAP
FFF800003E
FFF800003E
FFF800003E
FFF800003E
0F8000003E
0F8000003E
0F8000003E
0F8000003E
0F8000003E
0F8000003E
0F8000003E
0F8000003E
0F8000003E
0F8000003E
0F8000003E
0F8000003E
0F8000003E
0F8000003E
0F8000003E
0F8000003E
0F8000003E
0F8000003E
0F8000003E
0F8000003E
0F803E003E
0F803E003E
0F803E007E
0F803E007E
0F801F007C
0F801F81FC
FFF80FFFF8
FFF80FFFF0
FFF807FFE0
FFF801FFC0
0000001800
ENDCHAR
STARTCHAR 0133
ENCODING 307
SWIDTH 560 0
DWIDTH 28 0
BBX 19 45 4 -9
BITMAP
FC03E0
FC03E0
FC03E0
FC03E0
000000
000000
000000
000000
000000
000000
F803E0
F803E0
F803E0
F803E0
F803E0
F803E0
F803E0
F803E0
F803E0
F803E0
F803E0
F803E0
F803E0
F803E0
F803E0
F803E0
F803E0
F803E0
F803E0
F803E0
F803E0
F803E0
F803E0
F803E0
F803E0
F803E0
0003E0
0003E0
0003E0
0003E0
0003E0
00C7E0
00FFC0
00FFC0
007F00
ENDCHAR
STARTCHAR 0134
ENCODING 308
SWIDTH 540 0
DWIDTH 27 0
BBX 26 45 2 -1
BITMAP
0003F800
0007FC00
000FBE00
001F1E00
003E0F00
007C07C0
00000000
00000000
00000000
00000000
0001F000
0001F000
0001F000
0001F000
0001F000
0001F000
0001F000
0001F000
0001F000
0001F000
0001F000
0001F000
0001F000
0001F000
0001F000
0001F000
0001F000
0001F000
0001F000
0001F000
0001F000
0001F000
0001F000
0001F000
F801F000
F801F000
F801F000
F801F000
FC03F000
FE07E000
7FFFE000
3FFFC000
1FFF8000
0FFE0000
00600000
ENDCHAR
STARTCHAR 0135
ENCODING 309
SWIDTH 280 0
DWIDTH 14 0
BBX 15 47 -2 -9
BITMAP
03C0
07E0
07E0
0FF0
1E78
1E78
3C3C
3C1C
781E
0000
0000
0000
03E0
03E0
03E0
03E0
03E0
03E0
03E0
03E0
03E0
03E0
03E0
03E0
03E0
03E0
03E0
03E0
03E0
03E0
03E0
03E0
03E0
03E0
03E0
03E0
03E0
03E0
03E0
03E0
03E0
03E0
07E0
8FC0
FFC0
FF80
FF00
ENDCHAR
STARTCHAR 0136
ENCODING 310
SWIDTH 640 0
DWIDTH 32 0
BBX 26 50 5 -16
BITMAP
F8001FC0
F8001F00
F8003F00
F8007E00
F800FC00
F801F800
F803F000
F803E000
F807E000
F80FC000
F81F8000
F83F0000
F87E0000
F8FC0000
F8FC0000
F9FE0000
FBFE0000
FFFF0000
FFFF0000
FF9F8000
FF0FC000
FE0FC000
FE07E000
FC03F000
F803F000
F801F800
F800FC00
F800FC00
F8007E00
F8007F00
F8003F00
F8001F80
F8001F80
F8000FC0
00000000
00000000
00000000
003E0000
003E0000
003E0000
003E0000
003E0000
003E0000
000C0000
000C0000
001C0000
001C0000
00180000
00380000
00700000
ENDCHAR
STARTCHAR 0137
ENCODING 311
SWIDTH 560 0
DWIDTH 28 0
BBX 23 52 4 -16
BITMAP
F80000
F80000
F80000
F80000
F80000
F80000
F80000
F80000
F80000
F80000
F8007E
F800FC
F801F8
F803F0
F807E0
F80FC0
F80F80
F81F80
F83F00
F87E00
F8FC00
F9F800
F9F800
FBF800
FFFC00
FFFE00
FF3F00
FE3F80
FC1F80
F80FC0
F807E0
F803F0
F803F8
F801F8
F800FC
F8007E
000000
000000
000000
00F800
00F800
00F800
00F800
00F800
00F800
003800
003800
003800
007000
007000
00E000
00E000
ENDCHAR
STARTCHAR 0138
ENCODING 312
SWIDTH 560 0
DWIDTH 28 0
BBX 23 26 4 0
BITMAP
F8007E
F800FC
F801F8
F803F0
F807E0
F80FC0
F80F80
F81F80
F83F00
F87E00
F8FC00
F9F800
F9F800
FBF800
FFFC00
FFFE00
FF3F00
FE3F80
FC1F80
F80FC0
F807E0
F803F0
F803F8
F801F8
F800FC
F8007E
ENDCHAR
STARTCHAR 0139
ENCODING 313
SWIDTH 540 0
DWIDTH 27 0
BBX 21 45 5 0
BITMAP
07C000
07C000
0F8000
1F0000
3E0000
3C0000
780000
800000
000000
000000
000000
F80000
F80000
F80000
F80000
F80000
F80000
F80000
F80000
F80000
F80000
F80000
F80000
F80000
F80000
F80000
F80000
F80000
F80000
F80000
F80000
F80000
F80000
F80000
F80000
F80000
F80000
F80000
F80000
F80000
F80000
FFFFF0
FFFFF8
FFFFF8
FFFFF8
ENDCHAR
STARTCHAR 013A
ENCODING 314
SWIDTH 260 0
DWIDTH 13 0
BBX 11 45 4 0
BITMAP
03E0
07C0
0F80
1F00
1E00
3C00
7800
0000
0000
F800
F800
F800
F800
F800
F800
F800
F800
F800
F800
F800
F800
F800
F800
F800
F800
F800
F800
F800
F800
F800
F800
F800
F800
F800
F800
F800
F800
F800
F800
F800
F800
F800
F800
F800
F800
ENDCHAR
STARTCHAR 013B
ENCODING 315
SWIDTH 540 0
DWIDTH 27 0
BBX 21 50 5 -16
BITMAP
F80000
F80000
F80000
F80000
F80000
F80000
F80000
F80000
F80000
F80000
F80000
F80000
F80000
F80000
F80000
F80000
F80000
F80000
F80000
F80000
F80000
F80000
F80000
F80000
F80000
F80000
F80000
F80000
F80000
F80000
FFFFF0
FFFFF8
FFFFF8
FFFFF8
000000
000000
000000
007C00
007C00
007C00
007C00
007C00
007C00
001C00
001800
003800
003800
003000
007000
00E000
ENDCHAR
STARTCHAR 013C
ENCODING 316
SWIDTH 260 0
DWIDTH 13 0
BBX 5 52 4 -16
BITMAP
F8
F8
F8
F8
F8
F8
F8
F8
F8
F8
F8
F8
F8
F8
F8
F8
F8
F8
F8
F8
F8
F8
F8
F8
F8
F8
F8
F8
F8
F8
F8
F8
F8
F8
F8
F8
00
00
00
F8
F8
F8
F8
F8
F8
38
38
38
30
70
E0
E0
ENDCHAR
STARTCHAR 013D
ENCODING 317
SWIDTH 540 0
DWIDTH 27 0
BBX 21 34 5 0
BITMAP
F800F0
F800F0
F800F0
F800F0
F800F0
F80030
F80070
F80070
F80060
F800E0
F801C0
F80000
F80000
F80000
F80000
F80000
F80000
F80000
F80000
F80000
F80000
F80000
F80000
F80000
F80000
F80000
F80000
F80000
F80000
F80000
FFFFF0
FFFFF8
FFFFF8
FFFFF8
ENDCHAR
STARTCHAR 013E
ENCODING 318
SWIDTH 340 0
DWIDTH 17 0
BBX 13 36 4 0
BITMAP
F800
F800
F8F8
F8F8
F8F8
F8F8
F8F8
F838
F838
F838
F830
F870
F8E0
F800
F800
F800
F800
F800
F800
F800
F800
F800
F800
F800
F800
F800
F800
F800
F800
F800
F800
F800
F800
F800
F800
F800
ENDCHAR
STARTCHAR 013F
ENCODING 319
SWIDTH 540 0
DWIDTH 27 0
BBX 21 34 5 0
BITMAP
F80000
F80000
F80000
F80000
F80000
F80000
F80000
F80000
F80000
F80000
F80000
F80000
F80F80
F80F80
F80F80
F80F80
F80F80
F80F80
F80000
F80000
F80000
F80000
F80000
F80000
F80000
F80000
F80000
F80000
F80000
F80000
FFFFF0
FFFFF8
FFFFF8
FFFFF8
ENDCHAR
STARTCHAR 0140
ENCODING 320
SWIDTH 320 0
DWIDTH 16 0
BBX 13 36 4 0
BITMAP
F800
F800
F800
F800
F800
F800
F800
F800
F800
F800
F800
F800
F800
F800
F8F8
F8F8
F8F8
F8F8
F8F8
F8F8
F800
F800
F800
F800
F800
F800
F800
F800
F800
F800
F800
F800
F800
F800
F800
F800
ENDCHAR
STARTCHAR 0141
ENCODING 321
SWIDTH 540 0
DWIDTH 27 0
BBX 25 34 1 0
BITMAP
0F800000
0F800000
0F800000
0F800000
0F800000
0F800000
0F800000
0F800000
0F800000
0F800000
0F820000
0F8E0000
0FBE0000
0FFE0000
0FF80000
0FE00000
3F800000
FF800000
FF800000
EF800000
8F800000
0F800000
0F800000
0F800000
0F800000
0F800000
0F800000
0F800000
0F800000
0F800000
0FFFFF00
0FFFFF80
0FFFFF80
0FFFFF80
ENDCHAR
STARTCHAR 0142
ENCODING 322
SWIDTH 260 0
DWIDTH 13 0
BBX 13 36 0 0
BITMAP
0F80
0F80
0F80
0F80
0F80
0F80
0F80
0F80
0F80
0F80
0F80
0F80
0F80
0F88
0FB8
0FF8
0FF8
0FE0
3F80
FF80
FF80
EF80
8F80
0F80
0F80
0F80
0F80
0F80
0F80
0F80
0F80
0F80
0F80
0F80
0F80
0F80
ENDCHAR
STARTCHAR 0143
ENCODING 323
SWIDTH 700 0
DWIDTH 35 0
BBX 25 45 5 0
BITMAP
0000F800
0001F000
0003E000
0007C000
00078000
000F0000
001E0000
00000000
00000000
00000000
00000000
F8000F80
F8000F80
FC000F80
FE000F80
FE000F80
FF000F80
FF800F80
FF800F80
FFC00F80
F7E00F80
F7E00F80
F3F00F80
F3F00F80
F1F80F80
F0FC0F80
F0FC0F80
F07E0F80
F03F0F80
F03F0F80
F01F8F80
F00FCF80
F00FCF80
F007EF80
F003FF80
F003FF80
F001FF80
F000FF80
F000FF80
F0007F80
F0003F80
F0003F80
F0001F80
F0000F80
F0000F80
ENDCHAR
STARTCHAR 0144
ENCODING 324
SWIDTH 600 0
DWIDTH 30 0
BBX 22 38 4 0
BITMAP
0007C0
000F80
000F00
001F00
001E00
003C00
003C00
007800
007000
000000
000000
000000
F07F00
F1FFC0
F3FFE0
F7FFF0
FF03F8
FE00F8
FC00F8
FC00FC
F8007C
F8007C
F8007C
F8007C
F8007C
F8007C
F8007C
F8007C
F8007C
F8007C
F8007C
F8007C
F8007C
F8007C
F8007C
F8007C
F8007C
F8007C
ENDCHAR
STARTCHAR 0145
ENCODING 325
SWIDTH 700 0
DWIDTH 35 0
BBX 25 50 5 -16
BITMAP
F8000F80
F8000F80
FC000F80
FE000F80
FE000F80
FF000F80
FF800F80
FF800F80
FFC00F80
F7E00F80
F7E00F80
F3F00F80
F3F00F80
F1F80F80
F0FC0F80
F0FC0F80
F07E0F80
F03F0F80
F03F0F80
F01F8F80
F00FCF80
F00FCF80
F007EF80
F003FF80
F003FF80
F001FF80
F000FF80
F000FF80
F0007F80
F0003F80
F0003F80
F0001F80
F0000F80
F0000F80
00000000
00000000
00000000
003E0000
003E0000
003E0000
003E0000
003E0000
003E0000
000E0000
000E0000
000E0000
000C0000
001C0000
00380000
00380000
ENDCHAR
STARTCHAR 0146
ENCODING 326
SWIDTH 600 0
DWIDTH 30 0
BBX 22 42 4 -16
BITMAP
F07F00
F1FFC0
F3FFE0
F7FFF0
FF03F8
FE00F8
FC00F8
FC00FC
F8007C
F8007C
F8007C
F8007C
F8007C
F8007C
F8007C
F8007C
F8007C
F8007C
F8007C
F8007C
F8007C
F8007C
F8007C
F8007C
F8007C
F8007C
000000
000000
000000
00F800
00F800
00F800
00F800
00F800
00F800
001800
001800
003800
003800
007000
007000
00E000
ENDCHAR
STARTCHAR 0147
ENCODING 327
SWIDTH 700 0
DWIDTH 35 0
BBX 25 44 5 0
BITMAP
0F80F800
07C1E000
03E3C000
01F78000
00FF0000
007E0000
00000000
00000000
00000000
00000000
F8000F80
F8000F80
FC000F80
FE000F80
FE000F80
FF000F80
FF800F80
FF800F80
FFC00F80
F7E00F80
F7E00F80
F3F00F80
F3F00F80
F1F80F80
F0FC0F80
F0FC0F80
F07E0F80
F03F0F80
F03F0F80
F01F8F80
F00FCF80
F00FCF80
F007EF80
F003FF80
F003FF80
F001FF80
F000FF80
F000FF80
F0007F80
F0003F80
F0003F80
F0001F80
F0000F80
F0000F80
ENDCHAR
STARTCHAR 0148
ENCODING 328
SWIDTH 600 0
DWIDTH 30 0
BBX 22 38 4 0
BITMAP
3E01E0
1E03C0
0F07C0
078780
07CF00
03DE00
01FE00
00FC00
00F800
000000
000000
000000
F07F00
F1FFC0
F3FFE0
F7FFF0
FF03F8
FE00F8
FC00F8
FC00FC
F8007C
F8007C
F8007C
F8007C
F8007C
F8007C
F8007C
F8007C
F8007C
F8007C
F8007C
F8007C
F8007C
F8007C
F8007C
F8007C
F8007C
F8007C
ENDCHAR
STARTCHAR 0149
ENCODING 329
SWIDTH 600 0
DWIDTH 30 0
BBX 25 38 1 0
BITMAP
78000000
78000000
78000000
78000000
78000000
18000000
38000000
30000000
70000000
60000000
80000000
00000000
1E0FE000
1E3FF800
1E7FFC00
1EFFFE00
1FE07F00
1FC01F00
1F801F00
1F801F80
1F000F80
1F000F80
1F000F80
1F000F80
1F000F80
1F000F80
1F000F80
1F000F80
1F000F80
1F000F80
1F000F80
1F000F80
1F000F80
1F000F80
1F000F80
1F000F80
1F000F80
1F000F80
ENDCHAR
STARTCHAR 014A
ENCODING 330
SWIDTH 700 0
DWIDTH 35 0
BBX 25 43 5 -9
BITMAP
F8000F80
F8000F80
FC000F80
FE000F80
FE000F80
FF000F80
FF800F80
FF800F80
FFC00F80
F7E00F80
F7E00F80
F3F00F80
F3F00F80
F1F80F80
F0FC0F80
F0FC0F80
F07E0F80
F03F0F80
F03F0F80
F01F8F80
F00FCF80
F00FCF80
F007EF80
F003FF80
F003FF80
F001FF80
F000FF80
F000FF80
F0007F80
F0003F80
F0003F80
F0001F80
F0000F80
F0000F80
00000F80
00000F80
00000F80
00000F80
00000F80
00031F80
0003FF00
0003FF00
0001FC00
ENDCHAR
STARTCHAR 014B
ENCODING 331
SWIDTH 600 0
DWIDTH 30 0
BBX 22 35 4 -9
BITMAP
F07F00
F1FFC0
F3FFE0
F7FFF0
FF03F8
FE00F8
FC00F8
FC00FC
F8007C
F8007C
F8007C
F8007C
F8007C
F8007C
F8007C
F8007C
F8007C
F8007C
F8007C
F8007C
F8007C
F8007C
F8007C
F8007C
F8007C
F8007C
00007C
00007C
00007C
00007C
0000FC
0011F8
001FF8
001FF0
001FE0
ENDCHAR
STARTCHAR 014C
ENCODING 332
SWIDTH 700 0
DWIDTH 35 0
BBX 29 43 3 -1
BITMAP
01FFFC00
01FFFC00
01FFFC00
00000000
00000000
00000000
00000000
001FC000
00FFF800
03FFFE00
07FFFF00
0FFDFF80
1FC01FC0
3F800FE0
3F0007E0
7E0003F0
7E0003F0
7C0001F0
7C0001F0
FC0001F8
FC0001F8
FC0001F8
FC0001F8
FC0001F8
FC0001F8
FC0001F8
FC0001F8
FC0001F8
FC0001F8
FC0001F8
FC0001F8
7C0001F0
7C0001F0
7E0003F0
7E0003E0
3F0007E0
3F800FE0
1FC01FC0
0FFFFF80
07FFFF00
03FFFE00
00FFF800
00070000
ENDCHAR
STARTCHAR 014D
ENCODING 333
SWIDTH 580 0
DWIDTH 29 0
BBX 24 35 3 -1
BITMAP
0FFFF0
0FFFF0
0FFFF0
000000
000000
000000
000000
000000
00FF00
07FFC0
0FFFE0
1FFFF0
3F01F8
3E00FC
7C007C
7C003E
F8003E
F8003E
F8003E
F8003F
F8003F
F8003F
F8003F
F8003F
F8003E
F8003E
7C003E
7C007E
7E007C
3F00F8
1F83F8
0FFFF0
07FFE0
01FF80
001000
ENDCHAR
STARTCHAR 014E
ENCODING 334
SWIDTH 700 0
DWIDTH 35 0
BBX 29 45 3 -1
BITMAP
03C01E00
01E03C00
01F07C00
00FFF800
007FF000
001FC000
00000000
00000000
00000000
001FC000
00FFF800
03FFFE00
07FFFF00
0FFDFF80
1FC01FC0
3F800FE0
3F0007E0
7E0003F0
7E0003F0
7C0001F0
7C0001F0
FC0001F8
FC0001F8
FC0001F8
FC0001F8
FC0001F8
FC0001F8
FC0001F8
FC0001F8
FC0001F8
FC0001F8
FC0001F8
FC0001F8
7C0001F0
7C0001F0
7E0003F0
7E0003E0
3F0007E0
3F800FE0
1FC01FC0
0FFFFF80
07FFFF00
03FFFE00
00FFF800
00070000
ENDCHAR
STARTCHAR 014F
ENCODING 335
SWIDTH 580 0
DWIDTH 29 0
BBX 24 38 3 -1
BITMAP
1E0070
1E00F0
0F00F0
0F01E0
07FFE0
03FFC0
01FF00
000000
000000
000000
000000
00FF00
07FFC0
0FFFE0
1FFFF0
3F01F8
3E00FC
7C007C
7C003E
F8003E
F8003E
F8003E
F8003F
F8003F
F8003F
F8003F
F8003F
F8003E
F8003E
7C003E
7C007E
7E007C
3F00F8
1F83F8
0FFFF0
07FFE0
01FF80
001000
ENDCHAR
STARTCHAR 0150
ENCODING 336
SWIDTH 700 0
DWIDTH 35 0
BBX 29 45 3 -1
BITMAP
000FCFC0
000F1F00
001E1E00
003C3C00
007C7800
0078F000
00800000
00000000
00000000
001FC000
00FFF800
03FFFE00
07FFFF00
0FFDFF80
1FC01FC0
3F800FE0
3F0007E0
7E0003F0
7E0003F0
7C0001F0
7C0001F0
FC0001F8
FC0001F8
FC0001F8
FC0001F8
FC0001F8
FC0001F8
FC0001F8
FC0001F8
FC0001F8
FC0001F8
FC0001F8
FC0001F8
7C0001F0
7C0001F0
7E0003F0
7E0003E0
3F0007E0
3F800FE0
1FC01FC0
0FFFFF80
07FFFF00
03FFFE00
00FFF800
00070000
ENDCHAR
STARTCHAR 0151
ENCODING 337
SWIDTH 580 0
DWIDTH 29 0
BBX 24 38 3 -1
BITMAP
003E7C
007C78
00F8F8
00F1F0
01E1E0
03E3C0
03C7C0
040000
000000
000000
000000
00FF00
07FFC0
0FFFE0
1FFFF0
3F01F8
3E00FC
7C007C
7C003E
F8003E
F8003E
F8003E
F8003F
F8003F
F8003F
F8003F
F8003F
F8003E
F8003E
7C003E
7C007E
7E007C
3F00F8
1F83F8
0FFFF0
07FFE0
01FF80
001000
ENDCHAR
STARTCHAR 0152
ENCODING 338
SWIDTH 1020 0
DWIDTH 51 0
BBX 46 36 3 -1
BITMAP
001F80000000
00FFF1FFFFFC
03FFFDFFFFF8
07FFFFFFFFF8
0FFDFFFFFFF8
1FC01FF80000
3F000FF80000
3F0007F80000
7E0003F80000
7E0003F80000
7C0001F80000
7C0001F80000
FC0001F80000
FC0001F80000
FC0001F80000
FC0001F80000
FC0001FFFFE0
FC0001FFFFE0
FC0001FFFFE0
FC0001FFFFE0
FC0001F80000
FC0001F80000
FC0001F80000
FC0001F80000
7C0001F80000
7C0001F80000
7E0003F80000
7E0003F80000
3F0007F80000
3F800FF80000
1FC03FF80000
0FFFFFFFFFFC
07FFFFFFFFFC
03FFFDFFFFFC
00FFF1FFFFFC
000600000000
ENDCHAR
STARTCHAR 0153
ENCODING 339
SWIDTH 940 0
DWIDTH 47 0
BBX 41 27 3 -1
BITMAP
00FF003FC000
07FFC0FFF800
0FFFE1FFFC00
1FFFF3FFFE00
3F01FFE03F00
3E00FFC01F00
7C007F801F80
7C003F000F80
F8003F000F80
F8003F000F80
F8003F000F80
F8003FFFFF80
F8003FFFFF80
F8003FFFFF80
F8003F000000
F8003F000000
F8003F000F80
F8003F000F80
7C003F000F80
7C007F800F80
7E007F801F00
3F00FFC03F00
1F83F3F07E00
0FFFF3FFFC00
07FFC0FFF800
01FF807FE000
001000060000
ENDCHAR
STARTCHAR 0154
ENCODING 340
SWIDTH 680 0
DWIDTH 34 0
BBX 27 45 5 0
BITMAP
0003E000
0003E000
0007C000
000F8000
001F0000
001E0000
003C0000
00400000
00000000
00000000
00000000
FFFFF000
FFFFF800
FFFFFC00
FFFFFE00
F8007F00
F8003F00
F8001F80
F8001F80
F8001F80
F8001F80
F8001F00
F8001F00
F8003F00
F8003E00
F8007C00
FFFFF800
FFFFF000
FFFFE000
FFFFF800
F807FC00
F800FE00
F8007E00
F8003F00
F8003F00
F8001F00
F8001F00
F8001F00
F8001F00
F8001F00
F8001F00
F8001F80
F8001F80
F8000FE0
F80007E0
ENDCHAR
STARTCHAR 0155
ENCODING 341
SWIDTH 500 0
DWIDTH 25 0
BBX 19 38 4 0
BITMAP
001F00
001F00
001E00
003C00
003C00
007800
007800
00F000
00E000
000000
000000
000000
F0FE00
F1FF00
F3FF80
F7FFC0
FF07E0
FC03E0
FC03E0
F801E0
F801E0
F801E0
F80000
F80000
F80000
F80000
F80000
F80000
F80000
F80000
F80000
F80000
F80000
F80000
F80000
F80000
F80000
F80000
ENDCHAR
STARTCHAR 0156
ENCODING 342
SWIDTH 680 0
DWIDTH 34 0
BBX 27 50 5 -16
BITMAP
FFFFF000
FFFFF800
FFFFFC00
FFFFFE00
F8007F00
F8003F00
F8001F80
F8001F80
F8001F80
F8001F80
F8001F00
F8001F00
F8003F00
F8003E00
F8007C00
FFFFF800
FFFFF000
FFFFE000
FFFFF800
F807FC00
F800FE00
F8007E00
F8003F00
F8003F00
F8001F00
F8001F00
F8001F00
F8001F00
F8001F00
F8001F00
F8001F80
F8001F80
F8000FE0
F80007E0
00000000
00000000
00000000
003E0000
003E0000
003E0000
003E0000
003E0000
003E0000
000E0000
000E0000
000C0000
001C0000
001C0000
00380000
00300000
ENDCHAR
STARTCHAR 0157
ENCODING 343
SWIDTH 500 0
DWIDTH 25 0
BBX 19 42 4 -16
BITMAP
F0FE00
F1FF00
F3FF80
F7FFC0
FF07E0
FC03E0
FC03E0
F801E0
F801E0
F801E0
F80000
F80000
F80000
F80000
F80000
F80000
F80000
F80000
F80000
F80000
F80000
F80000
F80000
F80000
F80000
F80000
000000
000000
000000
F80000
F80000
F80000
F80000
F80000
F80000
380000
380000
380000
300000
700000
E00000
E00000
ENDCHAR
STARTCHAR 0158
ENCODING 344
SWIDTH 680 0
DWIDTH 34 0
BBX 27 44 5 0
BITMAP
1F03F000
0F87C000
07CF8000
03FF0000
01FE0000
00FC0000
00000000
00000000
00000000
00000000
FFFFF000
FFFFF800
FFFFFC00
FFFFFE00
F8007F00
F8003F00
F8001F80
F8001F80
F8001F80
F8001F80
F8001F00
F8001F00
F8003F00
F8003E00
F8007C00
FFFFF800
FFFFF000
FFFFE000
FFFFF800
F807FC00
F800FE00
F8007E00
F8003F00
F8003F00
F8001F00
F8001F00
F8001F00
F8001F00
F8001F00
F8001F00
F8001F80
F8001F80
F8000FE0
F80007E0
ENDCHAR
STARTCHAR 0159
ENCODING 345
SWIDTH 500 0
DWIDTH 25 0
BBX 19 38 4 0
BITMAP
7C03C0
3C0780
1E0F00
0F1F00
0F9E00
07BC00
03F800
01F800
01F000
000000
000000
000000
F0FE00
F1FF00
F3FF80
F7FFC0
FF07E0
FC03E0
FC03E0
F801E0
F801E0
F801E0
F80000
F80000
F80000
F80000
F80000
F80000
F80000
F80000
F80000
F80000
F80000
F80000
F80000
F80000
F80000
F80000
ENDCHAR
STARTCHAR 015A
ENCODING 346
SWIDTH 640 0
DWIDTH 32 0
BBX 26 46 3 -1
BITMAP
0000F800
0001F000
0001F000
0003E000
0007C000
000F8000
000F0000
00100000
00000000
00000000
003F0000
03FFF000
0FFFFC00
1FFFFE00
3FF3FF00
7F003F00
7E001F80
7C000F80
FC000F80
FC000F80
FC000000
7E000000
7F000000
7FC00000
3FF80000
1FFF8000
0FFFF000
03FFFC00
00FFFE00
000FFF00
0001FF80
00003F80
00001FC0
00000FC0
F8000FC0
F80007C0
F80007C0
F8000FC0
F8000FC0
FC001F80
7F003F80
3FFFFF00
1FFFFE00
0FFFF800
03FFE000
00080000
ENDCHAR
STARTCHAR 015B
ENCODING 347
SWIDTH 540 0
DWIDTH 27 0
BBX 23 39 2 -1
BITMAP
0007C0
0007C0
000F80
000F00
000F00
001E00
001E00
003C00
003800
000000
000000
000000
01FF00
07FFC0
1FFFF0
3FFFF8
3E00F8
7C007C
7C007C
7C003C
7C0000
7F0000
3FE000
3FFF00
0FFFE0
07FFF8
007FF8
0003FC
0000FC
00003E
F8003E
F8003E
78003C
7C007C
7F01FC
3FFFF8
1FFFF0
07FFC0
003800
ENDCHAR
STARTCHAR 015C
ENCODING 348
SWIDTH 640 0
DWIDTH 32 0
BBX 26 45 3 -1
BITMAP
003F0000
007F8000
00F7C000
01E3E000
03C1F000
0780F800
08000000
00000000
00000000
003F0000
03FFF000
0FFFFC00
1FFFFE00
3FF3FF00
7F003F00
7E001F80
7C000F80
FC000F80
FC000F80
FC000000
7E000000
7F000000
7FC00000
3FF80000
1FFF8000
0FFFF000
03FFFC00
00FFFE00
000FFF00
0001FF80
00003F80
00001FC0
00000FC0
F8000FC0
F80007C0
F80007C0
F8000FC0
F8000FC0
FC001F80
7F003F80
3FFFFF00
1FFFFE00
0FFFF800
03FFE000
00080000
ENDCHAR
STARTCHAR 015D
ENCODING 349
SWIDTH 540 0
DWIDTH 27 0
BBX 23 39 2 -1
BITMAP
007C00
00FE00
00FE00
01EF00
03C780
07C7C0
0783C0
0F01E0
1E00F0
000000
000000
000000
01FF00
07FFC0
1FFFF0
3FFFF8
3E00F8
7C007C
7C007C
7C003C
7C0000
7F0000
3FE000
3FFF00
0FFFE0
07FFF8
007FF8
0003FC
0000FC
00003E
F8003E
F8003E
78003C
7C007C
7F01FC
3FFFF8
1FFFF0
07FFC0
003800
ENDCHAR
STARTCHAR 015E
ENCODING 350
SWIDTH 640 0
DWIDTH 32 0
BBX 26 45 3 -10
BITMAP
003F0000
03FFF000
0FFFFC00
1FFFFE00
3FF3FF00
7F003F00
7E001F80
7C000F80
FC000F80
FC000F80
FC000000
7E000000
7F000000
7FC00000
3FF80000
1FFF8000
0FFFF000
03FFFC00
00FFFE00
000FFF00
0001FF80
00003F80
00001FC0
00000FC0
F8000FC0
F80007C0
F80007C0
F8000FC0
F8000FC0
FC001F80
7F003F80
3FFFFF00
1FFFFE00
0FFFF800
03FFE000
00080000
000C0000
000F8000
000FC000
0001C000
0001C000
0001C000
00C3C000
00FFC000
00FF0000
ENDCHAR
STARTCHAR 015F
ENCODING 351
SWIDTH 540 0
DWIDTH 27 0
BBX 23 36 2 -10
BITMAP
01FF00
07FFC0
1FFFF0
3FFFF8
3E00F8
7C007C
7C007C
7C003C
7C0000
7F0000
3FE000
3FFF00
0FFFE0
07FFF8
007FF8
0003FC
0000FC
00003E
F8003E
F8003E
78003C
7C007C
7F01FC
3FFFF8
1FFFF0
07FFC0
003800
003800
003E00
003F00
000780
000380
000380
010780
03FF00
03FE00
ENDCHAR
STARTCHAR 0160
ENCODING 352
SWIDTH 640 0
DWIDTH 32 0
BBX 26 45 3 -1
BITMAP
0FC0F800
03E1F000
01F3E000
00FFC000
007F8000
003F0000
00000000
00000000
00000000
003F0000
03FFF000
0FFFFC00
1FFFFE00
3FF3FF00
7F003F00
7E001F80
7C000F80
FC000F80
FC000F80
FC000000
7E000000
7F000000
7FC00000
3FF80000
1FFF8000
0FFFF000
03FFFC00
00FFFE00
000FFF00
0001FF80
00003F80
00001FC0
00000FC0
F8000FC0
F80007C0
F80007C0
F8000FC0
F8000FC0
FC001F80
7F003F80
3FFFFF00
1FFFFE00
0FFFF800
03FFE000
00080000
ENDCHAR
STARTCHAR 0161
ENCODING 353
SWIDTH 540 0
DWIDTH 27 0
BBX 23 39 2 -1
BITMAP
1E00F0
0F01E0
0783C0
03C7C0
03C780
01EF00
00FE00
007E00
007C00
000000
000000
000000
01FF00
07FFC0
1FFFF0
3FFFF8
3E00F8
7C007C
7C007C
7C003C
7C0000
7F0000
3FE000
3FFF00
0FFFE0
07FFF8
007FF8
0003FC
0000FC
00003E
F8003E
F8003E
78003C
7C007C
7F01FC
3FFFF8
1FFFF0
07FFC0
003800
ENDCHAR
STARTCHAR 0162
ENCODING 354
SWIDTH 580 0
DWIDTH 29 0
BBX 27 44 1 -10
BITMAP
FFFFFFE0
FFFFFFE0
FFFFFFE0
FFFFFFE0
001F0000
001F0000
001F0000
001F0000
001F0000
001F0000
001F0000
001F0000
001F0000
001F0000
001F0000
001F0000
001F0000
001F0000
001F0000
001F0000
001F0000
001F0000
001F0000
001F0000
001F0000
001F0000
001F0000
001F0000
001F0000
001F0000
001F0000
001F0000
001F0000
001F0000
00000000
000E0000
000F8000
000FC000
0001E000
0000E000
0001E000
0043E000
00FFC000
00FF8000
ENDCHAR
STARTCHAR 0163
ENCODING 355
SWIDTH 380 0
DWIDTH 19 0
BBX 14 44 2 -10
BITMAP
0700
0700
0F00
0F00
0F00
0F00
1F00
1F00
FFFC
FFFC
FFFC
FFFC
1F00
1F00
1F00
1F00
1F00
1F00
1F00
1F00
1F00
1F00
1F00
1F00
1F00
1F00
1F00
1F00
1F00
1F00
1F84
1FFC
0FFC
07FC
0040
0180
01F0
01F8
0038
003C
003C
1878
1FF8
1FE0
ENDCHAR
STARTCHAR 0164
ENCODING 356
SWIDTH 580 0
DWIDTH 29 0
BBX 27 44 1 0
BITMAP
07C07C00
01E0F000
00F1E000
00FBC000
007FC000
003F8000
00000000
00000000
00000000
00000000
FFFFFFE0
FFFFFFE0
FFFFFFE0
FFFFFFE0
001F0000
001F0000
001F0000
001F0000
001F0000
001F0000
001F0000
001F0000
001F0000
001F0000
001F0000
001F0000
001F0000
001F0000
001F0000
001F0000
001F0000
001F0000
001F0000
001F0000
001F0000
001F0000
001F0000
001F0000
001F0000
001F0000
001F0000
001F0000
001F0000
001F0000
ENDCHAR
STARTCHAR 0165
ENCODING 357
SWIDTH 380 0
DWIDTH 19 0
BBX 16 40 2 -1
BITMAP
000F
000F
000F
000F
000F
0703
0703
0F07
0F07
0F0E
0F1C
1F00
1F00
FFFC
FFFC
FFFC
FFFC
1F00
1F00
1F00
1F00
1F00
1F00
1F00
1F00
1F00
1F00
1F00
1F00
1F00
1F00
1F00
1F00
1F00
1F00
1F84
1FFC
0FFC
07FC
0040
ENDCHAR
STARTCHAR 0166
ENCODING 358
SWIDTH 580 0
DWIDTH 29 0
BBX 27 34 1 0
BITMAP
FFFFFFE0
FFFFFFE0
FFFFFFE0
FFFFFFE0
001F0000
001F0000
001F0000
001F0000
001F0000
001F0000
001F0000
001F0000
001F0000
001F0000
001F0000
001F0000
07FFFC00
07FFFC00
07FFFC00
001F0000
001F0000
001F0000
001F0000
001F0000
001F0000
001F0000
001F0000
001F0000
001F0000
001F0000
001F0000
001F0000
001F0000
001F0000
ENDCHAR
STARTCHAR 0167
ENCODING 359
SWIDTH 380 0
DWIDTH 19 0
BBX 14 35 2 -1
BITMAP
0700
0700
0F00
0F00
0F00
0F00
1F00
1F00
FFFC
FFFC
FFFC
FFFC
1F00
1F00
1F00
1F00
1F00
1F00
1F00
FFFC
FFFC
FFFC
1F00
1F00
1F00
1F00
1F00
1F00
1F00
1F00
1F84
1FFC
0FFC
07FC
0040
ENDCHAR
STARTCHAR 0168
ENCODING 360
SWIDTH 680 0
DWIDTH 34 0
BBX 26 45 4 -1
BITMAP
01F01C00
03FE1C00
07FFF800
07FFF800
0E0FF000
0E01C000
00000000
00000000
00000000
00000000
FC000FC0
FC000FC0
FC000FC0
FC000FC0
FC000FC0
FC000FC0
FC000FC0
FC000FC0
FC000FC0
FC000FC0
FC000FC0
FC000FC0
FC000FC0
FC000FC0
FC000FC0
FC000FC0
FC000FC0
FC000FC0
FC000FC0
FC000FC0
FC000FC0
FC000FC0
FC000FC0
FC000FC0
FC000FC0
FC000FC0
7C000F80
7E001F80
7F003F80
3F807F00
1FFFFE00
0FFFFC00
07FFF800
01FFE000
000C0000
ENDCHAR
STARTCHAR 0169
ENCODING 361
SWIDTH 620 0
DWIDTH 31 0
BBX 25 38 4 -1
BITMAP
02007000
0FE06000
1FF0E000
3FFFE000
387FC000
303FC000
700F0000
00000000
00000000
00000000
00000000
F800FC00
F800FC00
F800FC00
F800FC00
F800FC00
F800FC00
F800FC00
F800FC00
F800FC00
F800FC00
F800FC00
F800FC00
F800FC00
F800FC00
F800FC00
F800FC00
F800FC00
F800FC00
F800FC00
F800FC00
FC01FC00
FC03FC00
7F9FFC80
7FFF7F80
3FFE7F80
0FF83F80
00800400
ENDCHAR
STARTCHAR 016A
ENCODING 362
SWIDTH 680 0
DWIDTH 34 0
BBX 26 43 4 -1
BITMAP
07FFF800
07FFF800
07FFF800
00000000
00000000
00000000
00000000
00000000
FC000FC0
FC000FC0
FC000FC0
FC000FC0
FC000FC0
FC000FC0
FC000FC0
FC000FC0
FC000FC0
FC000FC0
FC000FC0
FC000FC0
FC000FC0
FC000FC0
FC000FC0
FC000FC0
FC000FC0
FC000FC0
FC000FC0
FC000FC0
FC000FC0
FC000FC0
FC000FC0
FC000FC0
FC000FC0
FC000FC0
7C000F80
7E001F80
7F003F80
3F807F00
1FFFFE00
0FFFFC00
07FFF800
01FFE000
000C0000
ENDCHAR
STARTCHAR 016B
ENCODING 363
SWIDTH 620 0
DWIDTH 31 0
BBX 25 35 4 -1
BITMAP
1FFFC000
1FFFC000
1FFFC000
00000000
00000000
00000000
00000000
00000000
F800FC00
F800FC00
F800FC00
F800FC00
F800FC00
F800FC00
F800FC00
F800FC00
F800FC00
F800FC00
F800FC00
F800FC00
F800FC00
F800FC00
F800FC00
F800FC00
F800FC00
F800FC00
F800FC00
F800FC00
FC01FC00
FC03FC00
7F9FFC80
7FFF7F80
3FFE7F80
0FF83F80
00800400
ENDCHAR
STARTCHAR 016C
ENCODING 364
SWIDTH 680 0
DWIDTH 34 0
BBX 26 45 4 -1
BITMAP
07803800
07807800
03C0F000
03FFE000
00FFC000
007F0000
00000000
00000000
00000000
00000000
FC000FC0
FC000FC0
FC000FC0
FC000FC0
FC000FC0
FC000FC0
FC000FC0
FC000FC0
FC000FC0
FC000FC0
FC000FC0
FC000FC0
FC000FC0
FC000FC0
FC000FC0
FC000FC0
FC000FC0
FC000FC0
FC000FC0
FC000FC0
FC000FC0
FC000FC0
FC000FC0
FC000FC0
FC000FC0
FC000FC0
7C000F80
7E001F80
7F003F80
3F807F00
1FFFFE00
0FFFFC00
07FFF800
01FFE000
000C0000
ENDCHAR
STARTCHAR 016D
ENCODING 365
SWIDTH 620 0
DWIDTH 31 0
BBX 25 38 4 -1
BITMAP
3800E000
3C01E000
3C01E000
1E03C000
0FFF8000
0FFF0000
03FE0000
00000000
00000000
00000000
00000000
F800FC00
F800FC00
F800FC00
F800FC00
F800FC00
F800FC00
F800FC00
F800FC00
F800FC00
F800FC00
F800FC00
F800FC00
F800FC00
F800FC00
F800FC00
F800FC00
F800FC00
F800FC00
F800FC00
F800FC00
FC01FC00
FC03FC00
7F9FFC80
7FFF7F80
3FFE7F80
0FF83F80
00800400
ENDCHAR
STARTCHAR 016E
ENCODING 366
SWIDTH 680 0
DWIDTH 34 0
BBX 26 48 4 -1
BITMAP
00040000
003F0000
007F8000
00F1C000
00E1C000
00E0C000
00E1C000
00E1C000
007F8000
003F0000
00080000
00000000
00000000
FC000FC0
FC000FC0
FC000FC0
FC000FC0
FC000FC0
FC000FC0
FC000FC0
FC000FC0
FC000FC0
FC000FC0
FC000FC0
FC000FC0
FC000FC0
FC000FC0
FC000FC0
FC000FC0
FC000FC0
FC000FC0
FC000FC0
FC000FC0
FC000FC0
FC000FC0
FC000FC0
FC000FC0
FC000FC0
FC000FC0
7C000F80
7E001F80
7F003F80
3F807F00
1FFFFE00
0FFFFC00
07FFF800
01FFE000
000C0000
ENDCHAR
STARTCHAR 016F
ENCODING 367
SWIDTH 620 0
DWIDTH 31 0
BBX 25 40 4 -1
BITMAP
00F80000
01FC0000
03DE0000
03060000
07070000
07070000
03060000
03DE0000
01FC0000
00F80000
00000000
00000000
00000000
F800FC00
F800FC00
F800FC00
F800FC00
F800FC00
F800FC00
F800FC00
F800FC00
F800FC00
F800FC00
F800FC00
F800FC00
F800FC00
F800FC00
F800FC00
F800FC00
F800FC00
F800FC00
F800FC00
F800FC00
FC01FC00
FC03FC00
7F9FFC80
7FFF7F80
3FFE7F80
0FF83F80
00800400
ENDCHAR
STARTCHAR 0170
ENCODING 368
SWIDTH 680 0
DWIDTH 34 0
BBX 26 45 4 -1
BITMAP
001F1F00
003E3E00
007C7C00
0078F800
00F0F000
01E1E000
00020000
00000000
00000000
00000000
FC000FC0
FC000FC0
FC000FC0
FC000FC0
FC000FC0
FC000FC0
FC000FC0
FC000FC0
FC000FC0
FC000FC0
FC000FC0
FC000FC0
FC000FC0
FC000FC0
FC000FC0
FC000FC0
FC000FC0
FC000FC0
FC000FC0
FC000FC0
FC000FC0
FC000FC0
FC000FC0
FC000FC0
FC000FC0
FC000FC0
7C000F80
7E001F80
7F003F80
3F807F00
1FFFFE00
0FFFFC00
07FFF800
01FFE000
000C0000
ENDCHAR
STARTCHAR 0171
ENCODING 369
SWIDTH 620 0
DWIDTH 31 0
BBX 25 38 4 -1
BITMAP
00F8F800
00F0F000
01F1E000
01E3E000
03C3C000
07878000
0F8F0000
00000000
00000000
00000000
00000000
F800FC00
F800FC00
F800FC00
F800FC00
F800FC00
F800FC00
F800FC00
F800FC00
F800FC00
F800FC00
F800FC00
F800FC00
F800FC00
F800FC00
F800FC00
F800FC00
F800FC00
F800FC00
F800FC00
F800FC00
FC01FC00
FC03FC00
7F9FFC80
7FFF7F80
3FFE7F80
0FF83F80
00800400
ENDCHAR
STARTCHAR 0172
ENCODING 370
SWIDTH 680 0
DWIDTH 34 0
BBX 26 41 4 -7
BITMAP
FC000FC0
FC000FC0
FC000FC0
FC000FC0
FC000FC0
FC000FC0
FC000FC0
FC000FC0
FC000FC0
FC000FC0
FC000FC0
FC000FC0
FC000FC0
FC000FC0
FC000FC0
FC000FC0
FC000FC0
FC000FC0
FC000FC0
FC000FC0
FC000FC0
FC000FC0
FC000FC0
FC000FC0
FC000FC0
FC000FC0
7C000F80
7E001F80
7F003F80
3F807F00
1FFFFE00
0FFFFC00
07FFF800
01FFE000
000F0000
000E0000
000E0000
000E0000
000F1800
000FF800
0003F000
ENDCHAR
STARTCHAR 0173
ENCODING 371
SWIDTH 620 0
DWIDTH 31 0
BBX 28 33 4 -7
BITMAP
F800FC00
F800FC00
F800FC00
F800FC00
F800FC00
F800FC00
F800FC00
F800FC00
F800FC00
F800FC00
F800FC00
F800FC00
F800FC00
F800FC00
F800FC00
F800FC00
F800FC00
F800FC00
F800FC00
F800FC00
FC01FC00
FC03FC00
7F9FFC80
7FFF7F80
3FFE7F80
0FF83F80
00800E00
00001C00
00001C00
00001C00
00001E30
00001FF0
000007E0
ENDCHAR
STARTCHAR 0174
ENCODING 372
SWIDTH 960 0
DWIDTH 48 0
BBX 45 44 1 0
BITMAP
00000FC00000
00001FE00000
00003DF00000
000078F80000
0000F07C0000
0001E03E0000
000200000000
000000000000
000000000000
800000000000
7C000FC000F8
7C000FC000F8
7E000FC001F0
7E001FE001F0
3E001FE001F0
3F001FE001F0
3F001FF003E0
1F003FF003E0
1F003FF003E0
1F803FF007C0
1F807DF807C0
0F807CF807C0
0F807CF807C0
0FC078FC0F80
07C0F8FC0F80
07C0F87C0F80
07E0F87C0F00
07E1F07E1F00
03E1F03E1F00
03E1F03E1F00
03F1F03F3E00
01F3E03F3E00
01F3E01F3E00
01FBE01F3C00
01FFC01FFC00
00FFC00FFC00
00FFC00FFC00
00FFC00FF800
007F800FF800
007F8007F800
007F8007F000
007F0007F000
003F0003F000
003F0003F000
ENDCHAR
STARTCHAR 0175
ENCODING 373
SWIDTH 820 0
DWIDTH 41 0
BBX 39 38 1 0
BITMAP
00007C0000
0000FE0000
0000FF0000
0001EF0000
0003C78000
0007C7C000
000783E000
000F01E000
001E00F000
0000000000
0000000000
0000000000
F8007C003E
FC007E003E
7C00FE003C
7C00FE007C
7E00FF007C
3E00FF0078
3E01FF00F8
3E01FF80F8
1F01EF80F0
1F03EF81F0
1F03E7C1F0
0F83C7C1F0
0F87C7C3E0
0F87C3E3E0
07C783E3E0
07CF83E7C0
07CF81F7C0
03EF01F7C0
03FF01F780
03FF00FF80
01FE00FF80
01FE00FF00
01FE007F00
00FC007F00
00FC007E00
00FC003E00
ENDCHAR
STARTCHAR 0176
ENCODING 374
SWIDTH 600 0
DWIDTH 30 0
BBX 30 44 0 0
BITMAP
000FC000
001FE000
003EF000
007C7800
00F83C00
01F01F00
00000000
00000000
00000000
80000004
7E0000F8
7E0001F0
3F0001F0
3F0003E0
1F8007E0
0F8007C0
0FC00FC0
07E00F80
07E01F80
03F01F00
03F03E00
01F87E00
00F87C00
00FCFC00
007CF800
007FF800
003FF000
003FE000
001FE000
000FC000
000FC000
000FC000
000FC000
000FC000
000FC000
000FC000
000FC000
000FC000
000FC000
000FC000
000FC000
000FC000
000FC000
000FC000
ENDCHAR
STARTCHAR 0177
ENCODING 375
SWIDTH 520 0
DWIDTH 26 0
BBX 24 47 1 -9
BITMAP
003E00
007F00
00FF00
00F780
01E7C0
03C3E0
07C1E0
0780F0
0F0078
000000
000000
000000
F8001F
FC001F
7C001F
7C003E
7E003E
3E003C
3E007C
1F007C
1F0078
1F80F8
0F80F8
0F81F0
07C1F0
07C1E0
07C3E0
03E3E0
03E3C0
01F7C0
01F780
01FF80
00FF80
00FF00
007F00
007E00
007E00
003E00
003C00
007C00
007800
00F800
01F000
3FF000
3FE000
3FC000
3F8000
ENDCHAR
STARTCHAR 0178
ENCODING 376
SWIDTH 600 0
DWIDTH 30 0
BBX 30 43 0 0
BITMAP
01F03E00
01F03E00
01F03E00
01F03E00
00000000
00000000
00000000
00000000
80000004
7E0000F8
7E0001F0
3F0001F0
3F0003E0
1F8007E0
0F8007C0
0FC00FC0
07E00F80
07E01F80
03F01F00
03F03E00
01F87E00
00F87C00
00FCFC00
007CF800
007FF800
003FF000
003FE000
001FE000
000FC000
000FC000
000FC000
000FC000
000FC000
000FC000
000FC000
000FC000
000FC000
000FC000
000FC000
000FC000
000FC000
000FC000
000FC000
ENDCHAR
STARTCHAR 0179
ENCODING 377
SWIDTH 600 0
DWIDTH 30 0
BBX 26 45 2 0
BITMAP
00007C00
0000F800
0001F000
0001E000
0003C000
00078000
000F8000
00000000
00000000
00000000
00000000
7FFFFFC0
7FFFFFC0
7FFFFF80
7FFFFF00
00003F00
00007E00
0000FE00
0000FC00
0001F800
0003F800
0003F000
0007E000
000FE000
000FC000
001F8000
001F8000
003F0000
007E0000
007E0000
00FC0000
01F80000
01F80000
03F00000
07F00000
07E00000
0FC00000
1FC00000
1F800000
3F000000
7F000000
7FFFFFC0
FFFFFFC0
FFFFFFC0
FFFFFFC0
ENDCHAR
STARTCHAR 017A
ENCODING 378
SWIDTH 480 0
DWIDTH 24 0
BBX 20 38 2 0
BITMAP
000F80
000F00
001F00
001E00
003E00
003C00
007800
007800
00F000
000000
000000
000000
7FFFE0
7FFFE0
7FFFE0
7FFFC0
000FC0
000F80
001F80
003F00
003E00
007E00
00FC00
00FC00
01F800
01F000
03F000
07E000
07C000
0FC000
0F8000
1F8000
3F0000
3E0000
7FFFF0
FFFFF0
FFFFF0
FFFFF0
ENDCHAR
STARTCHAR 017B
ENCODING 379
SWIDTH 600 0
DWIDTH 30 0
BBX 26 43 2 0
BITMAP
001F0000
001F0000
001F0000
001F0000
00000000
00000000
00000000
00000000
00000000
7FFFFFC0
7FFFFFC0
7FFFFF80
7FFFFF00
00003F00
00007E00
0000FE00
0000FC00
0001F800
0003F800
0003F000
0007E000
000FE000
000FC000
001F8000
001F8000
003F0000
007E0000
007E0000
00FC0000
01F80000
01F80000
03F00000
07F00000
07E00000
0FC00000
1FC00000
1F800000
3F000000
7F000000
7FFFFFC0
FFFFFFC0
FFFFFFC0
FFFFFFC0
ENDCHAR
STARTCHAR 017C
ENCODING 380
SWIDTH 480 0
DWIDTH 24 0
BBX 20 36 2 0
BITMAP
00F800
00F800
00F800
00F800
00F800
000000
000000
000000
000000
000000
7FFFE0
7FFFE0
7FFFE0
7FFFC0
000FC0
000F80
001F80
003F00
003E00
007E00
00FC00
00FC00
01F800
01F000
03F000
07E000
07C000
0FC000
0F8000
1F8000
3F0000
3E0000
7FFFF0
FFFFF0
FFFFF0
FFFFF0
ENDCHAR
STARTCHAR 017D
ENCODING 381
SWIDTH 600 0
DWIDTH 30 0
BBX 26 44 2 0
BITMAP
07C07C00
03E0F000
01F1E000
00FBC000
007F8000
003F0000
00000000
00000000
00000000
00000000
7FFFFFC0
7FFFFFC0
7FFFFF80
7FFFFF00
00003F00
00007E00
0000FE00
0000FC00
0001F800
0003F800
0003F000
0007E000
000FE000
000FC000
001F8000
001F8000
003F0000
007E0000
007E0000
00FC0000
01F80000
01F80000
03F00000
07F00000
07E00000
0FC00000
1FC00000
1F800000
3F000000
7F000000
7FFFFFC0
FFFFFFC0
FFFFFFC0
FFFFFFC0
ENDCHAR
STARTCHAR 017E
ENCODING 382
SWIDTH 480 0
DWIDTH 24 0
BBX 20 38 2 0
BITMAP
3C03E0
1E03C0
0F0780
0F8F00
079F00
03DE00
01FC00
01F800
00F800
000000
000000
000000
7FFFE0
7FFFE0
7FFFE0
7FFFC0
000FC0
000F80
001F80
003F00
003E00
007E00
00FC00
00FC00
01F800
01F000
03F000
07E000
07C000
0FC000
0F8000
1F8000
3F0000
3E0000
7FFFF0
FFFFF0
FFFFF0
FFFFF0
ENDCHAR
STARTCHAR 017F
ENCODING 383
SWIDTH 360 0
DWIDTH 18 0
BBX 14 36 2 0
BITMAP
03FC
07FC
0FFC
0FC4
1F80
1F00
1F00
1F00
1F00
1F00
FF00
FF00
FF00
FF00
1F00
1F00
1F00
1F00
1F00
1F00
1F00
1F00
1F00
1F00
1F00
1F00
1F00
1F00
1F00
1F00
1F00
1F00
1F00
1F00
1F00
1F00
ENDCHAR
STARTCHAR 018F
ENCODING 399
SWIDTH 700 0
DWIDTH 35 0
BBX 28 36 4 -1
BITMAP
003F8000
01FFF800
07FFFC00
0FFFFF00
1FFBFF80
3F801F80
7E000FC0
7C0007C0
FC0007E0
FC0003E0
F80003E0
F80003E0
000003F0
000003F0
000003F0
000003F0
000003F0
000003F0
FFFFFFF0
FFFFFFF0
FFFFFFF0
FFFFFFF0
F80003F0
F80003F0
FC0003E0
FC0003E0
7C0003E0
7C0007E0
7E0007C0
3F000FC0
3FC03F80
1FFFFF00
0FFFFE00
07FFFC00
00FFF000
000E0000
ENDCHAR
STARTCHAR 0191
ENCODING 401
SWIDTH 560 0
DWIDTH 28 0
BBX 28 43 -2 -9
BITMAP
03FFFFF0
03FFFFF0
03FFFFF0
03FFFFF0
03F00000
03F00000
03F00000
03F00000
03F00000
03F00000
03F00000
03F00000
03F00000
03F00000
03F00000
03FFFFC0
03FFFFC0
03FFFFC0
03FFFFC0
03F00000
03F00000
03F00000
03F00000
03F00000
03F00000
03F00000
03F00000
03F00000
03F00000
03F00000
03F00000
03F00000
03F00000
03F00000
03F00000
03F00000
03F00000
03F00000
03F00000
C7E00000
FFE00000
FFC00000
7F800000
ENDCHAR
STARTCHAR 0192
ENCODING 402
SWIDTH 380 0
DWIDTH 19 0
BBX 23 45 -4 -9
BITMAP
0003FE
0007FC
000FFC
000FC4
001F00
001F00
001F00
001F00
001F00
003E00
01FFF8
01FFF8
01FFF8
01FFF8
003E00
003E00
007C00
007C00
007C00
007C00
007C00
007C00
007C00
00F800
00F800
00F800
00F800
00F800
00F800
00F800
01F000
01F000
01F000
01F000
01F000
01F000
01F000
03E000
03E000
03E000
03E000
CFE000
FFC000
FF8000
FF0000
ENDCHAR
STARTCHAR 0197
ENCODING 407
SWIDTH 400 0
DWIDTH 20 0
BBX 13 34 3 0
BITMAP
FFF8
FFF8
FFF8
FFF8
0F80
0F80
0F80
0F80
0F80
0F80
0F80
0F80
0F80
0F80
0F80
FFF8
FFF8
FFF8
FFF8
0F80
0F80
0F80
0F80
0F80
0F80
0F80
0F80
0F80
0F80
0F80
FFF8
FFF8
FFF8
FFF8
ENDCHAR
STARTCHAR 019D
ENCODING 413
SWIDTH 700 0
DWIDTH 35 0
BBX 32 43 -2 -9
BITMAP
03E0001F
03F0001F
03F8001F
03F8001F
03FC001F
03FE001F
03FE001F
03FF001F
03FF801F
03EF801F
03EFC01F
03E7E01F
03E7E01F
03E3F01F
03E1F81F
03E1F81F
03E0FC1F
03E07E1F
03E07E1F
03E03F1F
03E01F9F
03E01F9F
03E00FDF
03E007FF
03E007FF
03E003FF
03E001FF
03E001FF
03E000FF
03E0007F
03E0007F
03E0003F
03E0001F
03E0001F
03E00000
03E00000
03E00000
03E00000
03E00000
C7E00000
FFE00000
FFC00000
7F800000
ENDCHAR
STARTCHAR 01A0
ENCODING 416
SWIDTH 700 0
DWIDTH 35 0
BBX 31 41 3 -1
BITMAP
0000003E
0000003E
0000003E
0000003C
0000007C
001FC078
00FFF8F8
03FFFFF0
07FFFFE0
0FFDFF80
1FC01FC0
3F800FE0
3F0007E0
7E0003F0
7E0003F0
7C0001F0
7C0001F0
FC0001F8
FC0001F8
FC0001F8
FC0001F8
FC0001F8
FC0001F8
FC0001F8
FC0001F8
FC0001F8
FC0001F8
FC0001F8
FC0001F8
7C0001F0
7C0001F0
7E0003F0
7E0003E0
3F0007E0
3F800FE0
1FC01FC0
0FFFFF80
07FFFF00
03FFFE00
00FFF800
00070000
ENDCHAR
STARTCHAR 01A1
ENCODING 417
SWIDTH 580 0
DWIDTH 29 0
BBX 27 32 3 -1
BITMAP
000001E0
000001E0
000003E0
000003E0
000003C0
00FF07C0
07FFCF80
0FFFFF00
1FFFFE00
3F01F800
3E00FC00
7C007C00
7C003E00
F8003E00
F8003E00
F8003E00
F8003F00
F8003F00
F8003F00
F8003F00
F8003F00
F8003E00
F8003E00
7C003E00
7C007E00
7E007C00
3F00F800
1F83F800
0FFFF000
07FFE000
01FF8000
00100000
ENDCHAR
STARTCHAR 01AF
ENCODING 431
SWIDTH 680 0
DWIDTH 34 0
BBX 31 43 4 -1
BITMAP
0000003E
0000003E
0000003C
0000003C
0000007C
00000078
000000F8
000003F0
FC000FE0
FC000FC0
FC000FC0
FC000FC0
FC000FC0
FC000FC0
FC000FC0
FC000FC0
FC000FC0
FC000FC0
FC000FC0
FC000FC0
FC000FC0
FC000FC0
FC000FC0
FC000FC0
FC000FC0
FC000FC0
FC000FC0
FC000FC0
FC000FC0
FC000FC0
FC000FC0
FC000FC0
FC000FC0
FC000FC0
7C000F80
7E001F80
7F003F80
3F807F00
1FFFFE00
0FFFFC00
07FFF800
01FFE000
000C0000
ENDCHAR
STARTCHAR 01B0
ENCODING 432
SWIDTH 620 0
DWIDTH 31 0
BBX 27 34 4 -1
BITMAP
000003E0
000003E0
000003E0
000003C0
000003C0
000007C0
00000F80
F800FF00
F800FE00
F800FC00
F800FC00
F800FC00
F800FC00
F800FC00
F800FC00
F800FC00
F800FC00
F800FC00
F800FC00
F800FC00
F800FC00
F800FC00
F800FC00
F800FC00
F800FC00
F800FC00
F800FC00
FC01FC00
FC03FC00
7F9FFC80
7FFF7F80
3FFE7F80
0FF83F80
00800400
ENDCHAR
STARTCHAR 01C4
ENCODING 452
SWIDTH 1280 0
DWIDTH 64 0
BBX 57 44 5 0
BITMAP
000000000F80F800
0000000007C1E000
0000000003E3C000
0000000001F78000
0000000000FF0000
00000000007E0000
0000000000000000
0000000000000000
0000000000000000
0000000000000000
FFFF8000FFFFFF00
FFFFF000FFFFFF00
FFFFF800FFFFFF00
FFFFFC00FFFFFE00
F801FE000000FE00
F8007F000000FC00
F8003F000001F800
F8001F800003F800
F8001F800003F000
F8000F800007E000
F8000F800007E000
F8000FC0000FC000
F8000FC0001F8000
F8000FC0001F8000
F8000FC0003F0000
F8000FC0007E0000
F8000FC0007E0000
F8000FC000FC0000
F8000FC001FC0000
F8000FC001F80000
F8000FC003F00000
F8000FC007F00000
F8000F8007E00000
F8000F800FC00000
F8001F801FC00000
F8001F801F800000
F8003F003F000000
F8003F003F000000
F800FE007E000000
F803FC00FC000000
FFFFF800FFFFFF80
FFFFF001FFFFFF80
FFFFE001FFFFFF80
FFFF0001FFFFFF80
ENDCHAR
STARTCHAR 01C5
ENCODING 453
SWIDTH 1160 0
DWIDTH 58 0
BBX 51 38 5 0
BITMAP
000000007807C0
000000003C0780
000000001E0F00
000000001F1E00
FFFF80000F3E00
FFFFF00007BC00
FFFFF80003F800
FFFFFC0003F000
F801FE0001F000
F8007F00000000
F8003F00000000
F8001F80000000
F8001F80FFFFC0
F8000F80FFFFC0
F8000F80FFFFC0
F8000FC0FFFF80
F8000FC0001F80
F8000FC0001F00
F8000FC0003F00
F8000FC0007E00
F8000FC0007C00
F8000FC000FC00
F8000FC001F800
F8000FC001F800
F8000FC003F000
F8000FC003E000
F8000F8007E000
F8000F800FC000
F8001F800F8000
F8001F801F8000
F8003F001F0000
F8003F003F0000
F800FE007E0000
F803FC007C0000
FFFFF800FFFFE0
FFFFF001FFFFE0
FFFFE001FFFFE0
FFFF0001FFFFE0
ENDCHAR
STARTCHAR 01C6
ENCODING 454
SWIDTH 1060 0
DWIDTH 53 0
BBX 48 39 3 -1
BITMAP
00000003E01E
00000001F03C
00003E00F07C
00003E007878
00003E003CF0
00003E003FE0
00003E001FE0
00003E000FC0
00003E000780
00003E000000
00003E000000
00003E000000
01F83E07FFFF
07FE3E07FFFF
1FFFBE07FFFF
1FFFBE07FFFE
3F01FE00007C
7E00FE0000FC
7C00FE0001F8
FC007E0001F8
F8007E0003F0
F8007E0003E0
F8003E0007E0
F8003E000FC0
F8003E000F80
F8003E001F80
F8003E001F00
F8003E003F00
F8007E007E00
F8007E007C00
FC007E00FC00
7C007E01F800
7C00FE01F800
3E01FE03F000
3F83FE03FFFF
1FFFBE07FFFF
0FFF3E07FFFF
03FE1E07FFFF
002000000000
ENDCHAR
STARTCHAR 01C7
ENCODING 455
SWIDTH 1080 0
DWIDTH 54 0
BBX 44 35 5 -1
BITMAP
F800000001F0
F800000001F0
F800000001F0
F800000001F0
F800000001F0
F800000001F0
F800000001F0
F800000001F0
F800000001F0
F800000001F0
F800000001F0
F800000001F0
F800000001F0
F800000001F0
F800000001F0
F800000001F0
F800000001F0
F800000001F0
F800000001F0
F800000001F0
F800000001F0
F800000001F0
F800000001F0
F800000001F0
F80000F001F0
F80000F001F0
F80000F801F0
F80000F803F0
F80000F803F0
F80000FE07E0
FFFFF07FFFE0
FFFFF83FFFC0
FFFFF81FFF80
FFFFF80FFE00
000000004000
ENDCHAR
STARTCHAR 01C8
ENCODING 456
SWIDTH 820 0
DWIDTH 41 0
BBX 31 45 5 -9
BITMAP
0000003E
0000003E
F800003E
F800003E
F8000000
F8000000
F8000000
F8000000
F8000000
F8000000
F800003E
F800003E
F800003E
F800003E
F800003E
F800003E
F800003E
F800003E
F800003E
F800003E
F800003E
F800003E
F800003E
F800003E
F800003E
F800003E
F800003E
F800003E
F800003E
F800003E
F800003E
F800003E
FFFFF03E
FFFFF83E
FFFFF83E
FFFFF83E
0000003E
0000003E
0000003E
0000003E
0000003E
00000C7E
00000FFC
00000FFC
000007F0
ENDCHAR
STARTCHAR 01C9
ENCODING 457
SWIDTH 540 0
DWIDTH 27 0
BBX 19 45 4 -9
BITMAP
F807E0
F807E0
F807E0
F807E0
F80000
F80000
F80000
F80000
F80000
F80000
F807C0
F807C0
F807C0
F807C0
F807C0
F807C0
F807C0
F807C0
F807C0
F807C0
F807C0
F807C0
F807C0
F807C0
F807C0
F807C0
F807C0
F807C0
F807C0
F807C0
F807C0
F807C0
F807C0
F807C0
F807C0
F807C0
0007C0
0007C0
0007C0
0007C0
0007C0
018FC0
01FFC0
01FF80
00FF00
ENDCHAR
STARTCHAR 01CA
ENCODING 458
SWIDTH 1220 0
DWIDTH 61 0
BBX 52 35 5 -1
BITMAP
F8000F800001F0
F8000F800001F0
FC000F800001F0
FE000F800001F0
FE000F800001F0
FF000F800001F0
FF800F800001F0
FF800F800001F0
FFC00F800001F0
F7E00F800001F0
F7E00F800001F0
F3F00F800001F0
F3F00F800001F0
F1F80F800001F0
F0FC0F800001F0
F0FC0F800001F0
F07E0F800001F0
F03F0F800001F0
F03F0F800001F0
F01F8F800001F0
F00FCF800001F0
F00FCF800001F0
F007EF800001F0
F003FF800001F0
F003FF81F001F0
F001FF81F001F0
F000FF81F001F0
F000FF80F803F0
F0007F80F803E0
F0003F80FC07E0
F0003F807FFFC0
F0001F807FFFC0
F0000F801FFF00
F0000F800FFE00
00000000004000
ENDCHAR
STARTCHAR 01CB
ENCODING 459
SWIDTH 960 0
DWIDTH 48 0
BBX 39 45 5 -9
BITMAP
000000003E
000000003E
F8000F803E
F8000F803E
FC000F8000
FE000F8000
FE000F8000
FF000F8000
FF800F8000
FF800F8000
FFC00F803E
F7E00F803E
F7E00F803E
F3F00F803E
F3F00F803E
F1F80F803E
F0FC0F803E
F0FC0F803E
F07E0F803E
F03F0F803E
F03F0F803E
F01F8F803E
F00FCF803E
F00FCF803E
F007EF803E
F003FF803E
F003FF803E
F001FF803E
F000FF803E
F000FF803E
F0007F803E
F0003F803E
F0003F803E
F0001F803E
F0000F803E
F0000F803E
000000003E
000000003E
000000003E
000000003E
000000003E
0000000CFE
0000000FFC
0000000FFC
0000000FF0
ENDCHAR
STARTCHAR 01CC
ENCODING 460
SWIDTH 860 0
DWIDTH 43 0
BBX 35 45 4 -9
BITMAP
00000003E0
00000003E0
00000003E0
00000003E0
0000000000
0000000000
0000000000
0000000000
0000000000
0000000000
F07F0003E0
F1FFC003E0
F3FFE003E0
F7FFF003E0
FF03F803E0
FE00F803E0
FC00F803E0
FC00FC03E0
F8007C03E0
F8007C03E0
F8007C03E0
F8007C03E0
F8007C03E0
F8007C03E0
F8007C03E0
F8007C03E0
F8007C03E0
F8007C03E0
F8007C03E0
F8007C03E0
F8007C03E0
F8007C03E0
F8007C03E0
F8007C03E0
F8007C03E0
F8007C03E0
00000003E0
00000003E0
00000003E0
00000003E0
00000003E0
000000CFE0
000000FFC0
000000FFC0
000000FF00
ENDCHAR
STARTCHAR 01CD
ENCODING 461
SWIDTH 680 0
DWIDTH 34 0
BBX 33 44 0 0
BITMAP
00F80F8000
003C1F0000
001E3E0000
000F7C0000
0007F80000
0003F00000
0000000000
0000000000
0000000000
0000000000
0007F00000
0007F00000
0007F80000
000FF80000
000FFC0000
000FFC0000
001F7C0000
001F7E0000
003E3E0000
003E3F0000
003E1F0000
007C1F0000
007C1F8000
00FC0F8000
00F80FC000
00F80FC000
01F007C000
01F007E000
03F003E000
03E003E000
03E003F000
07E001F000
07FFFFF800
07FFFFF800
0FFFFFF800
0FFFFFFC00
1F80007C00
1F00007E00
1F00007E00
3F00003E00
3E00003F00
7E00003F00
7C00001F00
FC00001F80
ENDCHAR
STARTCHAR 01CE
ENCODING 462
SWIDTH 600 0
DWIDTH 30 0
BBX 26 39 2 -1
BITMAP
1F00F000
0F81E000
0783E000
03C3C000
01E78000
01EF0000
00FF0000
007E0000
003C0000
00000000
00000000
00000000
01FF8000
07FFE000
1FFFF800
3FE7F800
3F00FC00
7E007C00
7C007C00
7C007C00
00007C00
00007C00
00007C00
00FFFC00
07FFFC00
1FFFFC00
3FC07C00
7E007C00
7C007C00
FC007C00
FC007C00
FC007C00
FC00FC00
7C01FC00
7F07BE40
7FFF3FC0
3FFE3FC0
0FF81FC0
00800200
ENDCHAR
STARTCHAR 01CF
ENCODING 463
SWIDTH 400 0
DWIDTH 20 0
BBX 17 44 1 0
BITMAP
F80F80
3C1F00
1E3E00
0F7C00
07F800
03F000
000000
000000
000000
000000
3FFE00
3FFE00
3FFE00
3FFE00
03E000
03E000
03E000
03E000
03E000
03E000
03E000
03E000
03E000
03E000
03E000
03E000
03E000
03E000
03E000
03E000
03E000
03E000
03E000
03E000
03E000
03E000
03E000
03E000
03E000
03E000
3FFE00
3FFE00
3FFE00
3FFE00
ENDCHAR
STARTCHAR 01D0
ENCODING 464
SWIDTH 260 0
DWIDTH 13 0
BBX 14 38 0 0
BITMAP
F03C
F078
7870
3CF0
3DE0
1FE0
1FC0
0F80
0780
0000
0000
0000
0F80
0F80
0F80
0F80
0F80
0F80
0F80
0F80
0F80
0F80
0F80
0F80
0F80
0F80
0F80
0F80
0F80
0F80
0F80
0F80
0F80
0F80
0F80
0F80
0F80
0F80
ENDCHAR
STARTCHAR 01D1
ENCODING 465
SWIDTH 700 0
DWIDTH 35 0
BBX 29 45 3 -1
BITMAP
03E03E00
00F07800
0078F000
007DE000
003FE000
001FC000
00000000
00000000
00000000
001FC000
00FFF800
03FFFE00
07FFFF00
0FFDFF80
1FC01FC0
3F800FE0
3F0007E0
7E0003F0
7E0003F0
7C0001F0
7C0001F0
FC0001F8
FC0001F8
FC0001F8
FC0001F8
FC0001F8
FC0001F8
FC0001F8
FC0001F8
FC0001F8
FC0001F8
FC0001F8
FC0001F8
7C0001F0
7C0001F0
7E0003F0
7E0003E0
3F0007E0
3F800FE0
1FC01FC0
0FFFFF80
07FFFF00
03FFFE00
00FFF800
00070000
ENDCHAR
STARTCHAR 01D2
ENCODING 466
SWIDTH 580 0
DWIDTH 29 0
BBX 24 39 3 -1
BITMAP
1F00F0
0F01E0
0783E0
03C3C0
01E780
01EF00
00FF00
007E00
003C00
000000
000000
000000
00FF00
07FFC0
0FFFE0
1FFFF0
3F01F8
3E00FC
7C007C
7C003E
F8003E
F8003E
F8003E
F8003F
F8003F
F8003F
F8003F
F8003F
F8003E
F8003E
7C003E
7C007E
7E007C
3F00F8
1F83F8
0FFFF0
07FFE0
01FF80
001000
ENDCHAR
STARTCHAR 01D3
ENCODING 467
SWIDTH 680 0
DWIDTH 34 0
BBX 26 45 4 -1
BITMAP
07C0FC00
03E1F000
01F3E000
00FFC000
007F8000
003F0000
00000000
00000000
00000000
00000000
FC000FC0
FC000FC0
FC000FC0
FC000FC0
FC000FC0
FC000FC0
FC000FC0
FC000FC0
FC000FC0
FC000FC0
FC000FC0
FC000FC0
FC000FC0
FC000FC0
FC000FC0
FC000FC0
FC000FC0
FC000FC0
FC000FC0
FC000FC0
FC000FC0
FC000FC0
FC000FC0
FC000FC0
FC000FC0
FC000FC0
7C000F80
7E001F80
7F003F80
3F807F00
1FFFFE00
0FFFFC00
07FFF800
01FFE000
000C0000
ENDCHAR
STARTCHAR 01D4
ENCODING 468
SWIDTH 620 0
DWIDTH 31 0
BBX 25 39 4 -1
BITMAP
3C01E000
1E03C000
0F078000
078F8000
078F0000
03DE0000
01FC0000
00FC0000
00F80000
00000000
00000000
00000000
F800FC00
F800FC00
F800FC00
F800FC00
F800FC00
F800FC00
F800FC00
F800FC00
F800FC00
F800FC00
F800FC00
F800FC00
F800FC00
F800FC00
F800FC00
F800FC00
F800FC00
F800FC00
F800FC00
F800FC00
FC01FC00
FC03FC00
7F9FFC80
7FFF7F80
3FFE7F80
0FF83F80
00800400
ENDCHAR
STARTCHAR 01D5
ENCODING 469
SWIDTH 680 0
DWIDTH 34 0
BBX 26 50 4 -1
BITMAP
03FFF800
03FFF800
03FFF800
00000000
00000000
03E0F000
03E0F000
03E0F000
03E0F000
03E0F000
00000000
00000000
00000000
00000000
00000000
FC000FC0
FC000FC0
FC000FC0
FC000FC0
FC000FC0
FC000FC0
FC000FC0
FC000FC0
FC000FC0
FC000FC0
FC000FC0
FC000FC0
FC000FC0
FC000FC0
FC000FC0
FC000FC0
FC000FC0
FC000FC0
FC000FC0
FC000FC0
FC000FC0
FC000FC0
FC000FC0
FC000FC0
FC000FC0
FC000FC0
7C000F80
7E001F80
7F003F80
3F807F00
1FFFFE00
0FFFFC00
07FFF800
01FFE000
000C0000
ENDCHAR
STARTCHAR 01D6
ENCODING 470
SWIDTH 620 0
DWIDTH 31 0
BBX 25 42 4 -1
BITMAP
1FFFC000
1FFFC000
1FFFC000
00000000
00000000
1F07C000
1F07C000
1F07C000
1F07C000
1F07C000
00000000
00000000
00000000
00000000
00000000
F800FC00
F800FC00
F800FC00
F800FC00
F800FC00
F800FC00
F800FC00
F800FC00
F800FC00
F800FC00
F800FC00
F800FC00
F800FC00
F800FC00
F800FC00
F800FC00
F800FC00
F800FC00
F800FC00
F800FC00
FC01FC00
FC03FC00
7F9FFC80
7FFF7F80
3FFE7F80
0FF83F80
00800400
ENDCHAR
STARTCHAR 01D7
ENCODING 471
SWIDTH 680 0
DWIDTH 34 0
BBX 26 53 4 -1
BITMAP
0001F000
0001E000
0003C000
0007C000
00078000
000F0000
001E0000
00000000
03E0F000
03E0F000
03E0F000
03E0F000
03E0F000
00000000
00000000
00000000
00000000
00000000
FC000FC0
FC000FC0
FC000FC0
FC000FC0
FC000FC0
FC000FC0
FC000FC0
FC000FC0
FC000FC0
FC000FC0
FC000FC0
FC000FC0
FC000FC0
FC000FC0
FC000FC0
FC000FC0
FC000FC0
FC000FC0
FC000FC0
FC000FC0
FC000FC0
FC000FC0
FC000FC0
FC000FC0
FC000FC0
FC000FC0
7C000F80
7E001F80
7F003F80
3F807F00
1FFFFE00
0FFFFC00
07FFF800
01FFE000
000C0000
ENDCHAR
STARTCHAR 01D8
ENCODING 472
SWIDTH 620 0
DWIDTH 31 0
BBX 25 46 4 -1
BITMAP
0007C000
00078000
000F0000
001E0000
001E0000
003C0000
00780000
00000000
00000000
1F07C000
1F07C000
1F07C000
1F07C000
1F07C000
00000000
00000000
00000000
00000000
00000000
F800FC00
F800FC00
F800FC00
F800FC00
F800FC00
F800FC00
F800FC00
F800FC00
F800FC00
F800FC00
F800FC00
F800FC00
F800FC00
F800FC00
F800FC00
F800FC00
F800FC00
F800FC00
F800FC00
F800FC00
FC01FC00
FC03FC00
7F9FFC80
7FFF7F80
3FFE7F80
0FF83F80
00800400
ENDCHAR
STARTCHAR 01D9
ENCODING 473
SWIDTH 680 0
DWIDTH 34 0
BBX 26 53 4 -1
BITMAP
0F803C00
03C0F800
01E1F000
00FBE000
007F8000
003F0000
001E0000
00000000
03E0F000
03E0F000
03E0F000
03E0F000
03E0F000
00000000
00000000
00000000
00000000
00000000
FC000FC0
FC000FC0
FC000FC0
FC000FC0
FC000FC0
FC000FC0
FC000FC0
FC000FC0
FC000FC0
FC000FC0
FC000FC0
FC000FC0
FC000FC0
FC000FC0
FC000FC0
FC000FC0
FC000FC0
FC000FC0
FC000FC0
FC000FC0
FC000FC0
FC000FC0
FC000FC0
FC000FC0
FC000FC0
FC000FC0
7C000F80
7E001F80
7F003F80
3F807F00
1FFFFE00
0FFFFC00
07FFF800
01FFE000
000C0000
ENDCHAR
STARTCHAR 01DA
ENCODING 474
SWIDTH 620 0
DWIDTH 31 0
BBX 25 46 4 -1
BITMAP
1E01E000
1F07C000
0F8F8000
07DF0000
03FE0000
01FC0000
00F80000
00000000
00000000
1F07C000
1F07C000
1F07C000
1F07C000
1F07C000
00000000
00000000
00000000
00000000
00000000
F800FC00
F800FC00
F800FC00
F800FC00
F800FC00
F800FC00
F800FC00
F800FC00
F800FC00
F800FC00
F800FC00
F800FC00
F800FC00
F800FC00
F800FC00
F800FC00
F800FC00
F800FC00
F800FC00
F800FC00
FC01FC00
FC03FC00
7F9FFC80
7FFF7F80
3FFE7F80
0FF83F80
00800400
ENDCHAR
STARTCHAR 01DB
ENCODING 475
SWIDTH 680 0
DWIDTH 34 0
BBX 26 53 4 -1
BITMAP
03E00000
01F00000
00F00000
00780000
00780000
003C0000
001E0000
00000000
03E1F000
03E1F000
03E1F000
03E1F000
03E1F000
00000000
00000000
00000000
00000000
00000000
FC000FC0
FC000FC0
FC000FC0
FC000FC0
FC000FC0
FC000FC0
FC000FC0
FC000FC0
FC000FC0
FC000FC0
FC000FC0
FC000FC0
FC000FC0
FC000FC0
FC000FC0
FC000FC0
FC000FC0
FC000FC0
FC000FC0
FC000FC0
FC000FC0
FC000FC0
FC000FC0
FC000FC0
FC000FC0
FC000FC0
7C000F80
7E001F80
7F003F80
3F807F00
1FFFFE00
0FFFFC00
07FFF800
01FFE000
000C0000
ENDCHAR
STARTCHAR 01DC
ENCODING 476
SWIDTH 620 0
DWIDTH 31 0
BBX 25 46 4 -1
BITMAP
1F000000
0F800000
07800000
03C00000
03E00000
01E00000
00F00000
00000000
00000000
1F07C000
1F07C000
1F07C000
1F07C000
1F07C000
00000000
00000000
00000000
00000000
00000000
F800FC00
F800FC00
F800FC00
F800FC00
F800FC00
F800FC00
F800FC00
F800FC00
F800FC00
F800FC00
F800FC00
F800FC00
F800FC00
F800FC00
F800FC00
F800FC00
F800FC00
F800FC00
F800FC00
F800FC00
FC01FC00
FC03FC00
7F9FFC80
7FFF7F80
3FFE7F80
0FF83F80
00800400
ENDCHAR
STARTCHAR 01E4
ENCODING 484
SWIDTH 680 0
DWIDTH 34 0
BBX 31 36 3 -1
BITMAP
001FC000
01FFF800
03FFFE00
0FFFFF00
0FF9FF80
1FC01FC0
3F000FC0
3E0007E0
7E0003E0
7E0003E0
7C0003F0
7C0001F0
FC0001F0
FC000000
FC000000
FC000000
FC000000
FC07FFF0
FC07FFF0
FC07FFF0
FC07FFF0
FC0001F0
FC0001F0
FC0001F0
7C01FFFE
7C01FFFE
7E01FFFE
7E0003F0
3F0007F0
3F800FF0
1FC01FF0
0FFFFEF0
07FFFCF0
03FFF870
00FFE070
000C0000
ENDCHAR
STARTCHAR 01E5
ENCODING 485
SWIDTH 580 0
DWIDTH 29 0
BBX 32 39 -1 -9
BITMAP
00000078
000000F8
000000F0
000001F0
001FF7E0
007FFFC0
00FFFF00
01F83F80
03E00F80
03E007C0
07C007C0
07C007C0
07C007C0
07C007C0
07E007C0
03E00F80
01F83F80
01FFFF00
00FFFC00
03FFF000
07C00000
07800000
0F800000
0F800000
0FC00000
07FFFC00
03FFFFC0
01FFFFE0
07FFFFF0
0FC003F0
0F0000F8
FFFFFFFF
FFFFFFFF
FFFFFFFF
1F0001F8
1F8003F0
0FFFFFE0
07FFFFE0
03FFFF80
ENDCHAR
STARTCHAR 01E6
ENCODING 486
SWIDTH 680 0
DWIDTH 34 0
BBX 28 45 3 -1
BITMAP
03E03E00
01F07800
00F8F000
007DE000
003FC000
001F8000
00000000
00000000
00000000
001FC000
01FFF800
03FFFE00
0FFFFF00
0FF9FF80
1FC01FC0
3F000FC0
3E0007E0
7E0003E0
7E0003E0
7C0003F0
7C0001F0
FC0001F0
FC000000
FC000000
FC000000
FC000000
FC07FFF0
FC07FFF0
FC07FFF0
FC07FFF0
FC0001F0
FC0001F0
FC0001F0
7C0001F0
7C0003F0
7E0003F0
7E0003F0
3F0007F0
3F800FF0
1FC01FF0
0FFFFEF0
07FFFCF0
03FFF870
00FFE070
000C0000
ENDCHAR
STARTCHAR 01E7
ENCODING 487
SWIDTH 580 0
DWIDTH 29 0
BBX 27 45 2 -9
BITMAP
0F80F800
07C1E000
03E3C000
01F78000
00FF0000
007E0000
00000000
000001E0
000003E0
000003C0
00FF8F80
03FFFF00
07FFFE00
0FC1FC00
1F007C00
1F003E00
3E003E00
3E003E00
3E003E00
3E003E00
3F003E00
1F007C00
0FC1FC00
0FFFF800
07FFE000
1FFF8000
3E000000
3C000000
7C000000
7C000000
7E000000
3FFFE000
1FFFFE00
0FFFFF00
3FFFFF80
7E001F80
780007C0
F80007C0
F00007C0
F80007C0
F8000FC0
FC001F80
7FFFFF00
3FFFFF00
1FFFFC00
ENDCHAR
STARTCHAR 01EA
ENCODING 490
SWIDTH 700 0
DWIDTH 35 0
BBX 29 42 3 -7
BITMAP
001FC000
00FFF800
03FFFE00
07FFFF00
0FFDFF80
1FC01FC0
3F800FE0
3F0007E0
7E0003F0
7E0003F0
7C0001F0
7C0001F0
FC0001F8
FC0001F8
FC0001F8
FC0001F8
FC0001F8
FC0001F8
FC0001F8
FC0001F8
FC0001F8
FC0001F8
FC0001F8
FC0001F8
7C0001F0
7C0001F0
7E0003F0
7E0003E0
3F0007E0
3F800FE0
1FC01FC0
0FFFFF80
07FFFF00
03FFFE00
00FFF800
0007C000
00038000
00038000
00038000
0003C600
0003FE00
0001FC00
ENDCHAR
STARTCHAR 01EB
ENCODING 491
SWIDTH 580 0
DWIDTH 29 0
BBX 24 33 3 -7
BITMAP
00FF00
07FFC0
0FFFE0
1FFFF0
3F01F8
3E00FC
7C007C
7C003E
F8003E
F8003E
F8003E
F8003F
F8003F
F8003F
F8003F
F8003F
F8003E
F8003E
7C003E
7C007E
7E007C
3F00F8
1F83F8
0FFFF0
07FFE0
01FF80
001E00
001C00
003800
003800
003C20
001FE0
000FC0
ENDCHAR
STARTCHAR 01FA
ENCODING 506
SWIDTH 680 0
DWIDTH 34 0
BBX 33 55 0 0
BITMAP
00003C0000
0000780000
0000700000
0000F00000
0000E00000
0001C00000
0000000000
0000000000
0003E00000
0007F80000
000F380000
000E1C0000
000C1C0000
000C1C0000
000E1C0000
000FF80000
0007F00000
0001E00000
0000000000
0000000000
0000000000
0007F00000
0007F00000
0007F80000
000FF80000
000FFC0000
000FFC0000
001F7C0000
001F7E0000
003E3E0000
003E3F0000
003E1F0000
007C1F0000
007C1F8000
00FC0F8000
00F80FC000
00F80FC000
01F007C000
01F007E000
03F003E000
03E003E000
03E003F000
07E001F000
07FFFFF800
07FFFFF800
0FFFFFF800
0FFFFFFC00
1F80007C00
1F00007E00
1F00007E00
3F00003E00
3E00003F00
7E00003F00
7C00001F00
FC00001F80
ENDCHAR
STARTCHAR 01FB
ENCODING 507
SWIDTH 600 0
DWIDTH 30 0
BBX 26 49 2 -1
BITMAP
0007C000
00078000
000F0000
000E0000
001E0000
001C0000
00380000
00000000
00000000
003C0000
00FF0000
01FF0000
01C38000
01838000
01838000
01C38000
01E70000
00FF0000
007C0000
00000000
00000000
00000000
01FF8000
07FFE000
1FFFF800
3FE7F800
3F00FC00
7E007C00
7C007C00
7C007C00
00007C00
00007C00
00007C00
00FFFC00
07FFFC00
1FFFFC00
3FC07C00
7E007C00
7C007C00
FC007C00
FC007C00
FC007C00
FC00FC00
7C01FC00
7F07BE40
7FFF3FC0
3FFE3FC0
0FF81FC0
00800200
ENDCHAR
STARTCHAR 01FC
ENCODING 508
SWIDTH 980 0
DWIDTH 49 0
BBX 47 45 0 0
BITMAP
0000001F0000
0000003E0000
0000007C0000
000000780000
000000F80000
000001F00000
000003E00000
000000000000
000000000000
000000000000
000000000000
00003FFFFFFE
00003FFFFFFE
00007FFFFFFC
0000FFFFFFFC
0000FFC00000
0001FFC00000
0001F7C00000
0003E7C00000
0003E7E00000
0007C7E00000
0007C3E00000
000F83E00000
000F83F00000
001F03F00000
001F01FFFFF8
003E01FFFFF8
003E01FFFFF8
007C00FFFFF8
007C00FFFFF8
00F800F80000
01F800FC0000
01F0007C0000
03FFFFFC0000
03FFFFFC0000
07FFFFFE0000
07FFFFFE0000
0FC0003E0000
0F80003E0000
1F80003F0000
1F00001F0000
3F00001FFFFE
3E00001FFFFE
7E00001FFFFE
FC00000FFFFE
ENDCHAR
STARTCHAR 01FD
ENCODING 509
SWIDTH 900 0
DWIDTH 45 0
BBX 40 39 2 -1
BITMAP
000001E000
000003E000
000003C000
000007C000
0000078000
00000F0000
00000F0000
00001E0000
00001C0000
0000000000
0000000000
0000000000
01FF807F80
07FFE1FFE0
1FFFF3FFF8
3FE7FFFFFC
3F00FFC07E
7E007F803E
7C007F003F
7C007E001F
00007E001F
00007E001F
00007E001F
00FFFFFFFF
07FFFFFFFF
1FFFFFFFFF
3FC07E0000
7E007E0000
7C007E001F
FC007E001F
FC007E001F
FC007F001F
FC00FF003E
7C01EF803E
7F07C7E0FC
7FFF87FFFC
3FFF01FFF0
0FFC00FFE0
0080000C00
ENDCHAR
STARTCHAR 01FE
ENCODING 510
SWIDTH 700 0
DWIDTH 35 0
BBX 29 49 3 -4
BITMAP
00003E00
00007C00
0000F800
0000F000
0001E000
0003C000
0003C000
00078000
00000070
000000F0
001FC0E0
00FFF9C0
03FFFFC0
07FFFF80
0FFDFF80
1FC01FC0
3F800FE0
3F001FE0
7E001FF0
7E003FF0
7C0039F0
7C0071F0
FC00F1F8
FC00E1F8
FC01E1F8
FC01C1F8
FC0381F8
FC0781F8
FC0701F8
FC0F01F8
FC0E01F8
FC1C01F8
FC3C01F8
FC3801F8
7C7001F0
7C7001F0
7EE003F0
7FE003E0
3FC007E0
3F800FE0
1FC01FC0
0FFFFF80
0FFFFF00
0FFFFE00
1CFFF800
1C070000
38000000
78000000
F0000000
ENDCHAR
STARTCHAR 01FF
ENCODING 511
SWIDTH 580 0
DWIDTH 29 0
BBX 24 41 3 -3
BITMAP
0003C0
0007C0
000780
000F80
000F00
001E00
001E00
003C00
003800
00000E
00001C
00003C
00FF38
07FFF0
0FFFF0
1FFFF0
3F01F8
3E01FC
7C03FC
7C07BE
F8073E
F80E3E
F80E3E
F81C3F
F8383F
F8383F
F8703F
F8F03F
F8E03E
F9C03E
7DC03E
7F807E
7F007C
3F00F8
1F83F8
1FFFF0
1FFFE0
39FF80
381000
700000
E00000
ENDCHAR
STARTCHAR 0200
ENCODING 512
SWIDTH 680 0
DWIDTH 34 0
BBX 33 45 0 0
BITMAP
07C7C00000
03E3E00000
01E1E00000
00F0F00000
0078780000
0078780000
003C3C0000
001E1E0000
0000000000
0000000000
0000000000
0007F00000
0007F00000
0007F80000
000FF80000
000FFC0000
000FFC0000
001F7C0000
001F7E0000
003E3E0000
003E3F0000
003E1F0000
007C1F0000
007C1F8000
00FC0F8000
00F80FC000
00F80FC000
01F007C000
01F007E000
03F003E000
03E003E000
03E003F000
07E001F000
07FFFFF800
07FFFFF800
0FFFFFF800
0FFFFFFC00
1F80007C00
1F00007E00
1F00007E00
3F00003E00
3E00003F00
7E00003F00
7C00001F00
FC00001F80
ENDCHAR
STARTCHAR 0201
ENCODING 513
SWIDTH 600 0
DWIDTH 30 0
BBX 26 38 2 -1
BITMAP
7C7C0000
3C3C0000
3E3E0000
1F1F0000
0F0F0000
07878000
03C3C000
00000000
00000000
00000000
00000000
01FF8000
07FFE000
1FFFF800
3FE7F800
3F00FC00
7E007C00
7C007C00
7C007C00
00007C00
00007C00
00007C00
00FFFC00
07FFFC00
1FFFFC00
3FC07C00
7E007C00
7C007C00
FC007C00
FC007C00
FC007C00
FC00FC00
7C01FC00
7F07BE40
7FFF3FC0
3FFE3FC0
0FF81FC0
00800200
ENDCHAR
STARTCHAR 0202
ENCODING 514
SWIDTH 680 0
DWIDTH 34 0
BBX 33 44 0 0
BITMAP
000FFC0000
003FFE0000
007FFF8000
00F8078000
00F003C000
00E003C000
0000000000
0000000000
0000000000
0000000000
0007F00000
0007F00000
0007F80000
000FF80000
000FFC0000
000FFC0000
001F7C0000
001F7E0000
003E3E0000
003E3F0000
003E1F0000
007C1F0000
007C1F8000
00FC0F8000
00F80FC000
00F80FC000
01F007C000
01F007E000
03F003E000
03E003E000
03E003F000
07E001F000
07FFFFF800
07FFFFF800
0FFFFFF800
0FFFFFFC00
1F80007C00
1F00007E00
1F00007E00
3F00003E00
3E00003F00
7E00003F00
7C00001F00
FC00001F80
ENDCHAR
STARTCHAR 0203
ENCODING 515
SWIDTH 600 0
DWIDTH 30 0
BBX 26 37 2 -1
BITMAP
01FF8000
07FFE000
0FFFF000
1F00F000
1E007800
1C007800
00000000
00000000
00000000
00000000
01FF8000
07FFE000
1FFFF800
3FE7F800
3F00FC00
7E007C00
7C007C00
7C007C00
00007C00
00007C00
00007C00
00FFFC00
07FFFC00
1FFFFC00
3FC07C00
7E007C00
7C007C00
FC007C00
FC007C00
FC007C00
FC00FC00
7C01FC00
7F07BE40
7FFF3FC0
3FFE3FC0
0FF81FC0
00800200
ENDCHAR
STARTCHAR 0204
ENCODING 516
SWIDTH 600 0
DWIDTH 30 0
BBX 24 45 4 0
BITMAP
F8F800
7C7C00
3E3E00
1E1E00
0F0F00
078780
078780
03C3C0
000000
000000
000000
7FFFFE
7FFFFE
7FFFFE
7FFFFE
7C0000
7C0000
7C0000
7C0000
7C0000
7C0000
7C0000
7C0000
7C0000
7C0000
7FFFF8
7FFFF8
7FFFF8
7FFFF8
7FFFF8
7C0000
7C0000
7C0000
7C0000
7C0000
7C0000
7C0000
7C0000
7C0000
7C0000
7C0000
7FFFFE
7FFFFE
7FFFFE
7FFFFF
ENDCHAR
STARTCHAR 0205
ENCODING 517
SWIDTH 580 0
DWIDTH 29 0
BBX 23 38 3 -1
BITMAP
7C7C00
3C3C00
3E3E00
1F1E00
0F0F00
078780
03C3C0
000000
000000
000000
000000
00FF00
07FFC0
0FFFE0
1FFFF0
3F01F8
7E00FC
7C007C
7C007C
F8003C
F8003E
F8003E
FFFFFE
FFFFFE
FFFFFE
F80000
F80000
F8003E
F8003E
FC003C
7C007C
7E007C
3F00F8
3F83F8
1FFFF0
0FFFE0
03FF80
003000
ENDCHAR
STARTCHAR 0206
ENCODING 518
SWIDTH 600 0
DWIDTH 30 0
BBX 23 44 5 0
BITMAP
03FF00
0FFFC0
1FFFE0
3E01E0
3C00F0
3800F0
000000
000000
000000
000000
FFFFFC
FFFFFC
FFFFFC
FFFFFC
F80000
F80000
F80000
F80000
F80000
F80000
F80000
F80000
F80000
F80000
FFFFF0
FFFFF0
FFFFF0
FFFFF0
FFFFF0
F80000
F80000
F80000
F80000
F80000
F80000
F80000
F80000
F80000
F80000
F80000
FFFFFC
FFFFFC
FFFFFC
FFFFFE
ENDCHAR
STARTCHAR 0207
ENCODING 519
SWIDTH 580 0
DWIDTH 29 0
BBX 23 37 3 -1
BITMAP
01FF80
07FFE0
0FFFF0
1F00F0
1E0078
1C0078
000000
000000
000000
000000
00FF00
07FFC0
0FFFE0
1FFFF0
3F01F8
7E00FC
7C007C
7C007C
F8003C
F8003E
F8003E
FFFFFE
FFFFFE
FFFFFE
F80000
F80000
F8003E
F8003E
FC003C
7C007C
7E007C
3F00F8
3F83F8
1FFFF0
0FFFE0
03FF80
003000
ENDCHAR
STARTCHAR 0208
ENCODING 520
SWIDTH 400 0
DWIDTH 20 0
BBX 18 45 -2 0
BITMAP
F8F800
7C7C00
3E3E00
1E1E00
0F0F00
078780
078780
03C3C0
000000
000000
000000
07FFC0
07FFC0
07FFC0
07FFC0
007C00
007C00
007C00
007C00
007C00
007C00
007C00
007C00
007C00
007C00
007C00
007C00
007C00
007C00
007C00
007C00
007C00
007C00
007C00
007C00
007C00
007C00
007C00
007C00
007C00
007C00
07FFC0
07FFC0
07FFC0
07FFC0
ENDCHAR
STARTCHAR 0209
ENCODING 521
SWIDTH 260 0
DWIDTH 13 0
BBX 18 37 -5 0
BITMAP
F8F800
7C7C00
3E3E00
1E1E00
0F0F00
078780
038780
004040
000000
000000
000000
007C00
007C00
007C00
007C00
007C00
007C00
007C00
007C00
007C00
007C00
007C00
007C00
007C00
007C00
007C00
007C00
007C00
007C00
007C00
007C00
007C00
007C00
007C00
007C00
007C00
007C00
ENDCHAR
STARTCHAR 020A
ENCODING 522
SWIDTH 400 0
DWIDTH 20 0
BBX 18 44 1 0
BITMAP
0FFC00
3FFF00
7FFF80
F80780
F003C0
E003C0
000000
000000
000000
000000
3FFE00
3FFE00
3FFE00
3FFE00
03E000
03E000
03E000
03E000
03E000
03E000
03E000
03E000
03E000
03E000
03E000
03E000
03E000
03E000
03E000
03E000
03E000
03E000
03E000
03E000
03E000
03E000
03E000
03E000
03E000
03E000
3FFE00
3FFE00
3FFE00
3FFE00
ENDCHAR
STARTCHAR 020B
ENCODING 523
SWIDTH 260 0
DWIDTH 13 0
BBX 14 37 0 0
BITMAP
0780
1FE0
7FF0
78F8
F078
E03C
E03C
0000
0000
0000
0000
0F80
0F80
0F80
0F80
0F80
0F80
0F80
0F80
0F80
0F80
0F80
0F80
0F80
0F80
0F80
0F80
0F80
0F80
0F80
0F80
0F80
0F80
0F80
0F80
0F80
0F80
ENDCHAR
STARTCHAR 020C
ENCODING 524
SWIDTH 700 0
DWIDTH 35 0
BBX 29 46 3 -1
BITMAP
1F1F0000
0F8F8000
07878000
03C3C000
03E3C000
01E1E000
00F0F000
00787000
00000000
00000000
001FC000
00FFF800
03FFFE00
07FFFF00
0FFDFF80
1FC01FC0
3F800FE0
3F0007E0
7E0003F0
7E0003F0
7C0001F0
7C0001F0
FC0001F8
FC0001F8
FC0001F8
FC0001F8
FC0001F8
FC0001F8
FC0001F8
FC0001F8
FC0001F8
FC0001F8
FC0001F8
FC0001F8
7C0001F0
7C0001F0
7E0003F0
7E0003E0
3F0007E0
3F800FE0
1FC01FC0
0FFFFF80
07FFFF00
03FFFE00
00FFF800
00070000
ENDCHAR
STARTCHAR 020D
ENCODING 525
SWIDTH 580 0
DWIDTH 29 0
BBX 24 38 3 -1
BITMAP
7C7C00
3C3C00
3E3E00
1F1E00
0F0F00
078780
03C3C0
000000
000000
000000
000000
00FF00
07FFC0
0FFFE0
1FFFF0
3F01F8
3E00FC
7C007C
7C003E
F8003E
F8003E
F8003E
F8003F
F8003F
F8003F
F8003F
F8003F
F8003E
F8003E
7C003E
7C007E
7E007C
3F00F8
1F83F8
0FFFF0
07FFE0
01FF80
001000
ENDCHAR
STARTCHAR 020E
ENCODING 526
SWIDTH 700 0
DWIDTH 35 0
BBX 29 45 3 -1
BITMAP
003FE000
00FFF800
01FFFC00
03E03E00
03800E00
07800F00
00000000
00000000
00000000
001FC000
00FFF800
03FFFE00
07FFFF00
0FFDFF80
1FC01FC0
3F800FE0
3F0007E0
7E0003F0
7E0003F0
7C0001F0
7C0001F0
FC0001F8
FC0001F8
FC0001F8
FC0001F8
FC0001F8
FC0001F8
FC0001F8
FC0001F8
FC0001F8
FC0001F8
FC0001F8
FC0001F8
7C0001F0
7C0001F0
7E0003F0
7E0003E0
3F0007E0
3F800FE0
1FC01FC0
0FFFFF80
07FFFF00
03FFFE00
00FFF800
00070000
ENDCHAR
STARTCHAR 020F
ENCODING 527
SWIDTH 580 0
DWIDTH 29 0
BBX 24 37 3 -1
BITMAP
01FF80
07FFE0
0FFFF0
1F00F0
1E0078
1C0078
000000
000000
000000
000000
00FF00
07FFC0
0FFFE0
1FFFF0
3F01F8
3E00FC
7C007C
7C003E
F8003E
F8003E
F8003E
F8003F
F8003F
F8003F
F8003F
F8003F
F8003E
F8003E
7C003E
7C007E
7E007C
3F00F8
1F83F8
0FFFF0
07FFE0
01FF80
001000
ENDCHAR
STARTCHAR 0210
ENCODING 528
SWIDTH 680 0
DWIDTH 34 0
BBX 27 45 5 0
BITMAP
F8F80000
78780000
7C7C0000
3E3C0000
1E1E0000
0F0F0000
07070000
07878000
00000000
00000000
00000000
FFFFF000
FFFFF800
FFFFFC00
FFFFFE00
F8007F00
F8003F00
F8001F80
F8001F80
F8001F80
F8001F80
F8001F00
F8001F00
F8003F00
F8003E00
F8007C00
FFFFF800
FFFFF000
FFFFE000
FFFFF800
F807FC00
F800FE00
F8007E00
F8003F00
F8003F00
F8001F00
F8001F00
F8001F00
F8001F00
F8001F00
F8001F00
F8001F80
F8001F80
F8000FE0
F80007E0
ENDCHAR
STARTCHAR 0211
ENCODING 529
SWIDTH 500 0
DWIDTH 25 0
BBX 21 37 2 0
BITMAP
F8F800
7C7C00
3E3E00
1E1E00
0F0F00
078780
078780
004040
000000
000000
000000
3C3F80
3C7FC0
3CFFE0
3DFFF0
3FC1F8
3F00F8
3F00F8
3E0078
3E0078
3E0078
3E0000
3E0000
3E0000
3E0000
3E0000
3E0000
3E0000
3E0000
3E0000
3E0000
3E0000
3E0000
3E0000
3E0000
3E0000
3E0000
ENDCHAR
STARTCHAR 0212
ENCODING 530
SWIDTH 680 0
DWIDTH 34 0
BBX 27 44 5 0
BITMAP
01FF0000
07FFC000
1FFFE000
1E01F000
3C00F000
38007000
00000000
00000000
00000000
00000000
FFFFF000
FFFFF800
FFFFFC00
FFFFFE00
F8007F00
F8003F00
F8001F80
F8001F80
F8001F80
F8001F80
F8001F00
F8001F00
F8003F00
F8003E00
F8007C00
FFFFF800
FFFFF000
FFFFE000
FFFFF800
F807FC00
F800FE00
F8007E00
F8003F00
F8003F00
F8001F00
F8001F00
F8001F00
F8001F00
F8001F00
F8001F00
F8001F80
F8001F80
F8000FE0
F80007E0
ENDCHAR
STARTCHAR 0213
ENCODING 531
SWIDTH 500 0
DWIDTH 25 0
BBX 19 36 4 0
BITMAP
07FE00
1FFF80
3FFFC0
7803C0
7001E0
F001E0
000000
000000
000000
000000
F0FE00
F1FF00
F3FF80
F7FFC0
FF07E0
FC03E0
FC03E0
F801E0
F801E0
F801E0
F80000
F80000
F80000
F80000
F80000
F80000
F80000
F80000
F80000
F80000
F80000
F80000
F80000
F80000
F80000
F80000
ENDCHAR
STARTCHAR 0214
ENCODING 532
SWIDTH 680 0
DWIDTH 34 0
BBX 26 46 4 -1
BITMAP
3E3E0000
1E1E0000
1F1F0000
0F8F0000
07878000
03C3C000
01C1C000
01E1E000
00000000
00000000
00000000
FC000FC0
FC000FC0
FC000FC0
FC000FC0
FC000FC0
FC000FC0
FC000FC0
FC000FC0
FC000FC0
FC000FC0
FC000FC0
FC000FC0
FC000FC0
FC000FC0
FC000FC0
FC000FC0
FC000FC0
FC000FC0
FC000FC0
FC000FC0
FC000FC0
FC000FC0
FC000FC0
FC000FC0
FC000FC0
FC000FC0
7C000F80
7E001F80
7F003F80
3F807F00
1FFFFE00
0FFFFC00
07FFF800
01FFE000
000C0000
ENDCHAR
STARTCHAR 0215
ENCODING 533
SWIDTH 620 0
DWIDTH 31 0
BBX 26 38 3 -1
BITMAP
F8F80000
7C7C0000
3E3E0000
1E1E0000
0F0F0000
07878000
07878000
00404000
00000000
00000000
00000000
7C007E00
7C007E00
7C007E00
7C007E00
7C007E00
7C007E00
7C007E00
7C007E00
7C007E00
7C007E00
7C007E00
7C007E00
7C007E00
7C007E00
7C007E00
7C007E00
7C007E00
7C007E00
7C007E00
7C007E00
7E00FE00
7E01FE00
3FCFFE40
3FFFBFC0
1FFF3FC0
07FC1FC0
00400200
ENDCHAR
STARTCHAR 0216
ENCODING 534
SWIDTH 680 0
DWIDTH 34 0
BBX 26 45 4 -1
BITMAP
007FC000
01FFF000
07FFF800
07807C00
0F003C00
0E001C00
00000000
00000000
00000000
00000000
FC000FC0
FC000FC0
FC000FC0
FC000FC0
FC000FC0
FC000FC0
FC000FC0
FC000FC0
FC000FC0
FC000FC0
FC000FC0
FC000FC0
FC000FC0
FC000FC0
FC000FC0
FC000FC0
FC000FC0
FC000FC0
FC000FC0
FC000FC0
FC000FC0
FC000FC0
FC000FC0
FC000FC0
FC000FC0
FC000FC0
7C000F80
7E001F80
7F003F80
3F807F00
1FFFFE00
0FFFFC00
07FFF800
01FFE000
000C0000
ENDCHAR
STARTCHAR 0217
ENCODING 535
SWIDTH 620 0
DWIDTH 31 0
BBX 25 37 4 -1
BITMAP
03FF0000
0FFF8000
1FFFC000
3C01E000
3800E000
7800F000
00000000
00000000
00000000
00000000
F800FC00
F800FC00
F800FC00
F800FC00
F800FC00
F800FC00
F800FC00
F800FC00
F800FC00
F800FC00
F800FC00
F800FC00
F800FC00
F800FC00
F800FC00
F800FC00
F800FC00
F800FC00
F800FC00
F800FC00
FC01FC00
FC03FC00
7F9FFC80
7FFF7F80
3FFE7F80
0FF83F80
00800400
ENDCHAR
STARTCHAR 0218
ENCODING 536
SWIDTH 640 0
DWIDTH 32 0
BBX 26 51 3 -16
BITMAP
003F0000
03FFF000
0FFFFC00
1FFFFE00
3FF3FF00
7F003F00
7E001F80
7C000F80
FC000F80
FC000F80
FC000000
7E000000
7F000000
7FC00000
3FF80000
1FFF8000
0FFFF000
03FFFC00
00FFFE00
000FFF00
0001FF80
00003F80
00001FC0
00000FC0
F8000FC0
F80007C0
F80007C0
F8000FC0
F8000FC0
FC001F80
7F003F80
3FFFFF00
1FFFFE00
0FFFF800
03FFE000
00080000
00000000
00000000
001F0000
001F0000
001F0000
001F0000
001F0000
001F0000
00070000
00070000
00060000
000E0000
000E0000
001C0000
00180000
ENDCHAR
STARTCHAR 0219
ENCODING 537
SWIDTH 540 0
DWIDTH 27 0
BBX 23 42 2 -16
BITMAP
01FF00
07FFC0
1FFFF0
3FFFF8
3E00F8
7C007C
7C007C
7C003C
7C0000
7F0000
3FE000
3FFF00
0FFFE0
07FFF8
007FF8
0003FC
0000FC
00003E
F8003E
F8003E
78003C
7C007C
7F01FC
3FFFF8
1FFFF0
07FFC0
003800
000000
000000
007C00
007C00
007C00
007C00
007C00
007C00
001C00
001C00
001C00
001800
003800
003000
007000
ENDCHAR
STARTCHAR 021A
ENCODING 538
SWIDTH 580 0
DWIDTH 29 0
BBX 27 50 1 -16
BITMAP
FFFFFFE0
FFFFFFE0
FFFFFFE0
FFFFFFE0
001F0000
001F0000
001F0000
001F0000
001F0000
001F0000
001F0000
001F0000
001F0000
001F0000
001F0000
001F0000
001F0000
001F0000
001F0000
001F0000
001F0000
001F0000
001F0000
001F0000
001F0000
001F0000
001F0000
001F0000
001F0000
001F0000
001F0000
001F0000
001F0000
001F0000
00000000
00000000
00000000
001F0000
001F0000
001F0000
001F0000
001F0000
001F0000
00070000
00070000
00070000
00060000
000E0000
001C0000
001C0000
ENDCHAR
STARTCHAR 021B
ENCODING 539
SWIDTH 380 0
DWIDTH 19 0
BBX 14 50 2 -16
BITMAP
0700
0700
0F00
0F00
0F00
0F00
1F00
1F00
FFFC
FFFC
FFFC
FFFC
1F00
1F00
1F00
1F00
1F00
1F00
1F00
1F00
1F00
1F00
1F00
1F00
1F00
1F00
1F00
1F00
1F00
1F00
1F84
1FFC
0FFC
07FC
0040
0000
0000
03E0
03E0
03E0
03E0
03E0
03E0
00E0
00E0
00C0
01C0
01C0
0380
0300
ENDCHAR
STARTCHAR 022A
ENCODING 554
SWIDTH 700 0
DWIDTH 35 0
BBX 29 50 3 -1
BITMAP
01FFFC00
01FFFC00
01FFFC00
00000000
00000000
01F07C00
01F07C00
01F07C00
01F07C00
01F07C00
00000000
00000000
00000000
00000000
001FC000
00FFF800
03FFFE00
07FFFF00
0FFDFF80
1FC01FC0
3F800FE0
3F0007E0
7E0003F0
7E0003F0
7C0001F0
7C0001F0
FC0001F8
FC0001F8
FC0001F8
FC0001F8
FC0001F8
FC0001F8
FC0001F8
FC0001F8
FC0001F8
FC0001F8
FC0001F8
FC0001F8
7C0001F0
7C0001F0
7E0003F0
7E0003E0
3F0007E0
3F800FE0
1FC01FC0
0FFFFF80
07FFFF00
03FFFE00
00FFF800
00070000
ENDCHAR
STARTCHAR 022B
ENCODING 555
SWIDTH 580 0
DWIDTH 29 0
BBX 24 42 3 -1
BITMAP
0FFFE0
0FFFE0
0FFFE0
000000
000000
0783E0
0783E0
0783E0
0783E0
0783E0
000000
000000
000000
000000
000000
00FF00
07FFC0
0FFFE0
1FFFF0
3F01F8
3E00FC
7C007C
7C003E
F8003E
F8003E
F8003E
F8003F
F8003F
F8003F
F8003F
F8003F
F8003E
F8003E
7C003E
7C007E
7E007C
3F00F8
1F83F8
0FFFF0
07FFE0
01FF80
001000
ENDCHAR
STARTCHAR 022C
ENCODING 556
SWIDTH 700 0
DWIDTH 35 0
BBX 29 50 3 -1
BITMAP
03FFFE00
03FFFE00
03FFFE00
00000000
00000000
00000000
00FC0700
01FF9E00
03FFFE00
03DFFC00
0703F800
00000000
00000000
00000000
001FC000
00FFF800
03FFFE00
07FFFF00
0FFDFF80
1FC01FC0
3F800FE0
3F0007E0
7E0003F0
7E0003F0
7C0001F0
7C0001F0
FC0001F8
FC0001F8
FC0001F8
FC0001F8
FC0001F8
FC0001F8
FC0001F8
FC0001F8
FC0001F8
FC0001F8
FC0001F8
FC0001F8
7C0001F0
7C0001F0
7E0003F0
7E0003E0
3F0007E0
3F800FE0
1FC01FC0
0FFFFF80
07FFFF00
03FFFE00
00FFF800
00070000
ENDCHAR
STARTCHAR 022D
ENCODING 557
SWIDTH 580 0
DWIDTH 29 0
BBX 24 43 3 -1
BITMAP
1FFFF0
1FFFF0
1FFFF0
000000
000000
000000
03E038
0FFC78
1FFFF0
1FFFF0
1C1FE0
200000
000000
000000
000000
000000
00FF00
07FFC0
0FFFE0
1FFFF0
3F01F8
3E00FC
7C007C
7C003E
F8003E
F8003E
F8003E
F8003F
F8003F
F8003F
F8003F
F8003F
F8003E
F8003E
7C003E
7C007E
7E007C
3F00F8
1F83F8
0FFFF0
07FFE0
01FF80
001000
ENDCHAR
STARTCHAR 0230
ENCODING 560
SWIDTH 700 0
DWIDTH 35 0
BBX 29 50 3 -1
BITMAP
01FFFC00
01FFFC00
01FFFC00
00000000
00000000
000F8000
000F8000
000F8000
000F8000
000F8000
00000000
00000000
00000000
00000000
001FC000
00FFF800
03FFFE00
07FFFF00
0FFDFF80
1FC01FC0
3F800FE0
3F0007E0
7E0003F0
7E0003F0
7C0001F0
7C0001F0
FC0001F8
FC0001F8
FC0001F8
FC0001F8
FC0001F8
FC0001F8
FC0001F8
FC0001F8
FC0001F8
FC0001F8
FC0001F8
FC0001F8
7C0001F0
7C0001F0
7E0003F0
7E0003E0
3F0007E0
3F800FE0
1FC01FC0
0FFFFF80
07FFFF00
03FFFE00
00FFF800
00070000
ENDCHAR
STARTCHAR 0231
ENCODING 561
SWIDTH 580 0
DWIDTH 29 0
BBX 24 42 3 -1
BITMAP
0FFFE0
0FFFE0
0FFFE0
000000
000000
007C00
007C00
007C00
007C00
007C00
000000
000000
000000
000000
000000
00FF00
07FFC0
0FFFE0
1FFFF0
3F01F8
3E00FC
7C007C
7C003E
F8003E
F8003E
F8003E
F8003F
F8003F
F8003F
F8003F
F8003F
F8003E
F8003E
7C003E
7C007E
7E007C
3F00F8
1F83F8
0FFFF0
07FFE0
01FF80
001000
ENDCHAR
STARTCHAR 0232
ENCODING 562
SWIDTH 600 0
DWIDTH 30 0
BBX 30 42 0 0
BITMAP
01FFFE00
01FFFE00
01FFFE00
00000000
00000000
00000000
00000000
80000004
7E0000F8
7E0001F0
3F0001F0
3F0003E0
1F8007E0
0F8007C0
0FC00FC0
07E00F80
07E01F80
03F01F00
03F03E00
01F87E00
00F87C00
00FCFC00
007CF800
007FF800
003FF000
003FE000
001FE000
000FC000
000FC000
000FC000
000FC000
000FC000
000FC000
000FC000
000FC000
000FC000
000FC000
000FC000
000FC000
000FC000
000FC000
000FC000
ENDCHAR
STARTCHAR 0233
ENCODING 563
SWIDTH 520 0
DWIDTH 26 0
BBX 24 43 1 -9
BITMAP
0FFFF0
0FFFF0
0FFFF0
000000
000000
000000
000000
000000
F8001F
FC001F
7C001F
7C003E
7E003E
3E003C
3E007C
1F007C
1F0078
1F80F8
0F80F8
0F81F0
07C1F0
07C1E0
07C3E0
03E3E0
03E3C0
01F7C0
01F780
01FF80
00FF80
00FF00
007F00
007E00
007E00
003E00
003C00
007C00
007800
00F800
01F000
3FF000
3FE000
3FC000
3F8000
ENDCHAR
STARTCHAR 0237
ENCODING 567
SWIDTH 280 0
DWIDTH 14 0
BBX 11 35 -2 -9
BITMAP
03E0
03E0
03E0
03E0
03E0
03E0
03E0
03E0
03E0
03E0
03E0
03E0
03E0
03E0
03E0
03E0
03E0
03E0
03E0
03E0
03E0
03E0
03E0
03E0
03E0
03E0
03E0
03E0
03E0
03E0
07E0
8FC0
FFC0
FF80
FF00
ENDCHAR
STARTCHAR 0244
ENCODING 580
SWIDTH 680 0
DWIDTH 34 0
BBX 32 35 1 -1
BITMAP
1F8001F8
1F8001F8
1F8001F8
1F8001F8
1F8001F8
1F8001F8
1F8001F8
1F8001F8
1F8001F8
1F8001F8
1F8001F8
1F8001F8
FFFFFFFF
FFFFFFFF
FFFFFFFF
FFFFFFFF
FFFFFFFF
1F8001F8
1F8001F8
1F8001F8
1F8001F8
1F8001F8
1F8001F8
1F8001F8
1F8001F8
1F8001F8
0F8001F0
0FC003F0
0FE007F0
07F00FE0
03FFFFC0
01FFFF80
00FFFF00
003FFC00
00018000
ENDCHAR
STARTCHAR 0259
ENCODING 601
SWIDTH 580 0
DWIDTH 29 0
BBX 23 27 3 -1
BITMAP
01FE00
07FF80
1FFFE0
3FFFF0
7E03F8
7C00F8
F800FC
F8007C
F8007C
F8007C
00007E
00003E
00003E
FFFFFE
FFFFFE
FFFFFE
F8007E
F8007C
F8007C
F8007C
7C00F8
7E01F8
3F07F0
1FFFE0
0FFFC0
03FF00
002000
ENDCHAR
STARTCHAR 0268
ENCODING 616
SWIDTH 280 0
DWIDTH 14 0
BBX 12 36 1 0
BITMAP
1F80
1F80
1F80
1F80
0000
0000
0000
0000
0000
0000
1F00
1F00
1F00
1F00
1F00
1F00
1F00
1F00
1F00
1F00
FFF0
FFF0
FFF0
FFF0
1F00
1F00
1F00
1F00
1F00
1F00
1F00
1F00
1F00
1F00
1F00
1F00
ENDCHAR
STARTCHAR 026A
ENCODING 618
SWIDTH 360 0
DWIDTH 18 0
BBX 16 26 1 0
BITMAP
FFFF
FFFF
FFFF
FFFF
07C0
07C0
07C0
07C0
07C0
07C0
07C0
07C0
07C0
07C0
07C0
07C0
07C0
07C0
07C0
07C0
07C0
07C0
FFFF
FFFF
FFFF
FFFF
ENDCHAR
STARTCHAR 0272
ENCODING 626
SWIDTH 600 0
DWIDTH 30 0
BBX 28 35 -2 -9
BITMAP
03C0FE00
03C7FF80
03CFFFC0
03FFFFE0
03FE07E0
03F803F0
03F001F0
03F001F0
03F001F0
03E001F0
03E001F0
03E001F0
03E001F0
03E001F0
03E001F0
03E001F0
03E001F0
03E001F0
03E001F0
03E001F0
03E001F0
03E001F0
03E001F0
03E001F0
03E001F0
03E001F0
03E00000
03E00000
03E00000
03E00000
03E00000
C7E00000
FFE00000
FFC00000
7F000000
ENDCHAR
STARTCHAR 0289
ENCODING 649
SWIDTH 620 0
DWIDTH 31 0
BBX 28 27 1 -1
BITMAP
1F001F80
1F001F80
1F001F80
1F001F80
1F001F80
1F001F80
1F001F80
1F001F80
1F001F80
FFFFFFF0
FFFFFFF0
FFFFFFF0
FFFFFFF0
1F001F80
1F001F80
1F001F80
1F001F80
1F001F80
1F001F80
1F001F80
1F803F80
1F807F80
0FF3FF90
0FFFEFF0
07FFCFF0
01FF07F0
00100080
ENDCHAR
STARTCHAR 02B9
ENCODING 697
SWIDTH 600 0
DWIDTH 30 0
BBX 7 8 12 29
BITMAP
3E
7C
7C
78
78
F0
F0
F0
ENDCHAR
STARTCHAR 02BA
ENCODING 698
SWIDTH 600 0
DWIDTH 30 0
BBX 14 8 8 29
BITMAP
3E7C
3C7C
7C78
7878
78F8
F8F0
F0F0
F1E0
ENDCHAR
STARTCHAR 02BC
ENCODING 700
SWIDTH 600 0
DWIDTH 30 0
BBX 5 10 12 28
BITMAP
78
78
78
78
78
18
38
30
70
E0
ENDCHAR
STARTCHAR 02C6
ENCODING 710
SWIDTH 580 0
DWIDTH 29 0
BBX 17 9 6 29
BITMAP
03E000
03F000
07F800
0F7800
1F3C00
1E1E00
3C1F00
780F00
F80780
ENDCHAR
STARTCHAR 02C7
ENCODING 711
SWIDTH 580 0
DWIDTH 29 0
BBX 17 9 6 29
BITMAP
F80780
780F00
3C1F00
1E1E00
1F3C00
0F7800
07F800
03F000
03E000
ENDCHAR
STARTCHAR 02C9
ENCODING 713
SWIDTH 600 0
DWIDTH 30 0
BBX 16 3 7 34
BITMAP
FFFF
FFFF
FFFF
ENDCHAR
STARTCHAR 02CD
ENCODING 717
SWIDTH 580 0
DWIDTH 29 0
BBX 16 3 7 -8
BITMAP
FFFF
FFFF
FFFF
ENDCHAR
STARTCHAR 02D8
ENCODING 728
SWIDTH 580 0
DWIDTH 29 0
BBX 17 7 6 30
BITMAP
F00380
F00780
700780
780F00
3FFF00
1FFE00
0FF800
ENDCHAR
STARTCHAR 02D9
ENCODING 729
SWIDTH 580 0
DWIDTH 29 0
BBX 5 5 12 31
BITMAP
F8
F8
F8
F8
F8
ENDCHAR
STARTCHAR 02DA
ENCODING 730
SWIDTH 580 0
DWIDTH 29 0
BBX 10 10 10 29
BITMAP
1E00
7F00
F780
E1C0
C1C0
C1C0
E1C0
F380
7F00
3E00
ENDCHAR
STARTCHAR 02DB
ENCODING 731
SWIDTH 580 0
DWIDTH 29 0
BBX 9 7 10 -7
BITMAP
3C00
7000
E000
E000
F080
7F80
3F00
ENDCHAR
STARTCHAR 02DC
ENCODING 732
SWIDTH 580 0
DWIDTH 29 0
BBX 18 7 6 30
BITMAP
0401C0
3F81C0
7FC380
FFFF80
E1FF80
E0FF00
C01C00
ENDCHAR
STARTCHAR 02DD
ENCODING 733
SWIDTH 580 0
DWIDTH 29 0
BBX 17 7 6 30
BITMAP
0F8F80
0F0F00
1F1F00
3E3E00
3C3C00
787800
F0F000
ENDCHAR
STARTCHAR 0300
ENCODING 768
SWIDTH 0 0
DWIDTH 0 0
BBX 9 9 10 29
BITMAP
F800
7C00
3C00
3E00
1E00
0F00
0F00
0780
0780
ENDCHAR
STARTCHAR 0301
ENCODING 769
SWIDTH 0 0
DWIDTH 0 0
BBX 9 9 10 29
BITMAP
0F80
0F00
1F00
1E00
3E00
3C00
7800
7800
F000
ENDCHAR
STARTCHAR 0302
ENCODING 770
SWIDTH 0 0
DWIDTH 0 0
BBX 17 9 6 29
BITMAP
03E000
03F000
07F800
0F7800
1F3C00
1E1E00
3C1F00
780F00
F80780
ENDCHAR
STARTCHAR 0303
ENCODING 771
SWIDTH 0 0
DWIDTH 0 0
BBX 18 7 6 30
BITMAP
0401C0
3F81C0
7FC380
FFFF80
E1FF80
E0FF00
C01C00
ENDCHAR
STARTCHAR 0304
ENCODING 772
SWIDTH 0 0
DWIDTH 0 0
BBX 16 3 7 31
BITMAP
FFFF
FFFF
FFFF
ENDCHAR
STARTCHAR 0306
ENCODING 774
SWIDTH 0 0
DWIDTH 0 0
BBX 17 7 6 30
BITMAP
F00380
F00780
700780
780F00
3FFF00
1FFE00
0FF800
ENDCHAR
STARTCHAR 0307
ENCODING 775
SWIDTH 0 0
DWIDTH 0 0
BBX 5 5 12 31
BITMAP
F8
F8
F8
F8
F8
ENDCHAR
STARTCHAR 0308
ENCODING 776
SWIDTH 0 0
DWIDTH 0 0
BBX 16 4 7 31
BITMAP
F81F
F81F
F81F
F81F
ENDCHAR
STARTCHAR 0309
ENCODING 777
SWIDTH 0 0
DWIDTH 0 0
BBX 9 11 11 29
BITMAP
7800
FE00
FF00
FF00
0780
0780
0780
0700
3F00
3E00
3800
ENDCHAR
STARTCHAR 030A
ENCODING 778
SWIDTH 0 0
DWIDTH 0 0
BBX 10 10 10 29
BITMAP
1E00
7F00
F780
E1C0
C1C0
C1C0
E1C0
F380
7F00
3E00
ENDCHAR
STARTCHAR 030B
ENCODING 779
SWIDTH 0 0
DWIDTH 0 0
BBX 17 7 6 30
BITMAP
0FCF80
0F8F00
1F1F00
1E3E00
3C3C00
7C7800
F8F000
ENDCHAR
STARTCHAR 030C
ENCODING 780
SWIDTH 0 0
DWIDTH 0 0
BBX 17 9 6 29
BITMAP
F80780
780F00
3C1F00
1E1E00
1F3C00
0F7800
07F800
03F000
03E000
ENDCHAR
STARTCHAR 030F
ENCODING 783
SWIDTH 0 0
DWIDTH 0 0
BBX 18 7 6 30
BITMAP
F8F800
7C7C00
3E3E00
1E1E00
0F0F00
078780
03C7C0
ENDCHAR
STARTCHAR 0311
ENCODING 785
SWIDTH 0 0
DWIDTH 0 0
BBX 18 6 6 30
BITMAP
0FFC00
1FFF00
7FFF80
7807C0
F003C0
E001C0
ENDCHAR
STARTCHAR 0312
ENCODING 786
SWIDTH 0 0
DWIDTH 0 0
BBX 5 12 12 30
BITMAP
38
30
70
60
E0
E0
F8
F8
F8
F8
F8
F8
ENDCHAR
STARTCHAR 0313
ENCODING 787
SWIDTH 0 0
DWIDTH 0 0
BBX 5 12 12 30
BITMAP
F8
F8
F8
F8
F8
F8
38
38
38
30
70
E0
ENDCHAR
STARTCHAR 031B
ENCODING 795
SWIDTH 0 0
DWIDTH 0 0
BBX 9 10 10 21
BITMAP
0780
0780
0F80
0F80
0F00
1F00
3E00
FC00
F800
E000
ENDCHAR
STARTCHAR 0323
ENCODING 803
SWIDTH 0 0
DWIDTH 0 0
BBX 5 5 12 -9
BITMAP
F8
F8
F8
F8
F8
ENDCHAR
STARTCHAR 0324
ENCODING 804
SWIDTH 0 0
DWIDTH 0 0
BBX 16 4 7 -9
BITMAP
F81F
F81F
F81F
F81F
ENDCHAR
STARTCHAR 0326
ENCODING 806
SWIDTH 0 0
DWIDTH 0 0
BBX 5 13 12 -16
BITMAP
F8
F8
F8
F8
F8
F8
18
38
38
38
70
70
E0
ENDCHAR
STARTCHAR 0327
ENCODING 807
SWIDTH 0 0
DWIDTH 0 0
BBX 11 9 9 -10
BITMAP
0C00
0FC0
0FC0
00E0
00E0
00E0
41E0
7FC0
FF80
ENDCHAR
STARTCHAR 0328
ENCODING 808
SWIDTH 0 0
DWIDTH 0 0
BBX 9 7 10 -7
BITMAP
3C00
7000
E000
E000
F080
7F80
3F00
ENDCHAR
STARTCHAR 032E
ENCODING 814
SWIDTH 0 0
DWIDTH 0 0
BBX 17 7 6 -11
BITMAP
F00380
700380
780780
7C0F00
3FFF00
1FFE00
0FF800
ENDCHAR
STARTCHAR 0330
ENCODING 816
SWIDTH 0 0
DWIDTH 0 0
BBX 18 7 6 -10
BITMAP
0401C0
3F81C0
7FC380
FFFF80
E1FF80
E0FF00
C01C00
ENDCHAR
STARTCHAR 0331
ENCODING 817
SWIDTH 0 0
DWIDTH 0 0
BBX 15 3 7 -8
BITMAP
FFFE
FFFE
FFFE
ENDCHAR
STARTCHAR 0335
ENCODING 821
SWIDTH 0 0
DWIDTH 0 0
BBX 17 3 6 17
BITMAP
FFFF80
FFFF80
FFFF80
ENDCHAR
STARTCHAR 0336
ENCODING 822
SWIDTH 0 0
DWIDTH 0 0
BBX 26 3 2 17
BITMAP
FFFFFFC0
FFFFFFC0
FFFFFFC0
ENDCHAR
STARTCHAR 0337
ENCODING 823
SWIDTH 0 0
DWIDTH 0 0
BBX 14 10 8 14
BITMAP
0004
001C
007C
01FC
07F0
1FC0
7F00
FC00
F000
C000
ENDCHAR
STARTCHAR 0338
ENCODING 824
SWIDTH 0 0
DWIDTH 0 0
BBX 22 32 4 -3
BITMAP
00001C
00001C
000038
000070
000070
0000E0
0001E0
0001C0
000380
000380
000700
000E00
000E00
001C00
003C00
003800
007000
007000
00E000
01C000
01C000
038000
078000
070000
0E0000
0E0000
1C0000
380000
380000
700000
F00000
E00000
ENDCHAR
STARTCHAR 0394
ENCODING 916
SWIDTH 680 0
DWIDTH 34 0
BBX 28 34 3 0
BITMAP
001F8000
001F8000
003FC000
003FC000
003FC000
0079E000
0079E000
00F9E000
00F0F000
00F0F000
01F0F800
01E07800
01E07800
03C03C00
03C03C00
07C03E00
07801E00
07801E00
0F801F00
0F000F00
0F000F00
1F000F80
1E000780
3E0007C0
3C0003C0
3C0003C0
7C0003E0
780001E0
780001E0
F80001F0
FFFFFFF0
FFFFFFF0
FFFFFFF0
FFFFFFF0
ENDCHAR
STARTCHAR 03A9
ENCODING 937
SWIDTH 720 0
DWIDTH 36 0
BBX 30 35 3 0
BITMAP
000FE000
00FFFC00
03FFFF00
07FFFF80
0FFCFFC0
1FC00FE0
1F8007E0
3F0003F0
3F0003F0
3E0001F0
7E0001F8
7E0001F8
7C0000F8
7C0000F8
7C0000F8
7C0000F8
7C0000F8
7C0000F8
7C0000F8
7C0000F8
7C0000F8
7C0000F8
7C0000F8
7C0000F8
7C0000F8
3E0000F0
3E0001F0
1E0001E0
1E0001E0
0F0003C0
07800780
FFC00FFC
FFF87FFC
FFF87FFC
FFF87FFC
ENDCHAR
STARTCHAR 03B4
ENCODING 948
SWIDTH 680 0
DWIDTH 34 0
BBX 28 34 3 0
BITMAP
001F8000
001F8000
003FC000
003FC000
003FC000
0079E000
0079E000
00F9E000
00F0F000
00F0F000
01F0F800
01E07800
01E07800
03C03C00
03C03C00
07C03E00
07801E00
07801E00
0F801F00
0F000F00
0F000F00
1F000F80
1E000780
3E0007C0
3C0003C0
3C0003C0
7C0003E0
780001E0
780001E0
F80001F0
FFFFFFF0
FFFFFFF0
FFFFFFF0
FFFFFFF0
ENDCHAR
STARTCHAR 03BC
ENCODING 956
SWIDTH 620 0
DWIDTH 31 0
BBX 25 34 4 -8
BITMAP
F800F800
F800F800
F800F800
F800F800
F800F800
F800F800
F800F800
F800F800
F800F800
F800F800
F800F800
F800F800
F800F800
F800F800
F800F800
F800F800
F800F800
F800F800
F800F800
F800F800
FC01F800
FE03F800
FFDFFC80
FFFF7F80
FFFE7F80
FBF83F80
F8000400
F8000000
F8000000
F8000000
F8000000
F8000000
F8000000
F8000000
ENDCHAR
STARTCHAR 03C0
ENCODING 960
SWIDTH 660 0
DWIDTH 33 0
BBX 30 26 1 0
BITMAP
007FFFFC
FFFFFFFC
7FFFFFFC
7FFFFFFC
41F00F80
01F00F80
01F00F80
01F00F80
01F00F80
01E00F80
01E00F80
03E00F80
03E00F80
03E00F80
03E00F80
03E00F80
03E00F80
03C00F80
07C00F80
07C00F80
07C00F80
07C00F80
07800F80
0F800780
0F8007C0
0F8007C0
ENDCHAR
STARTCHAR 03C9
ENCODING 969
SWIDTH 720 0
DWIDTH 36 0
BBX 30 35 3 0
BITMAP
000FE000
00FFFC00
03FFFF00
07FFFF80
0FFCFFC0
1FC00FE0
1F8007E0
3F0003F0
3F0003F0
3E0001F0
7E0001F8
7E0001F8
7C0000F8
7C0000F8
7C0000F8
7C0000F8
7C0000F8
7C0000F8
7C0000F8
7C0000F8
7C0000F8
7C0000F8
7C0000F8
7C0000F8
7C0000F8
3E0000F0
3E0001F0
1E0001E0
1E0001E0
0F0003C0
07800780
FFC00FFC
FFF87FFC
FFF87FFC
FFF87FFC
ENDCHAR
STARTCHAR 1D7B
ENCODING 7547
SWIDTH 280 0
DWIDTH 14 0
BBX 12 26 1 0
BITMAP
1F00
1F00
1F00
1F00
1F00
1F00
1F00
1F00
1F00
1F00
FFF0
FFF0
FFF0
FFF0
1F00
1F00
1F00
1F00
1F00
1F00
1F00
1F00
1F00
1F00
1F00
1F00
ENDCHAR
STARTCHAR 1E24
ENCODING 7716
SWIDTH 700 0
DWIDTH 35 0
BBX 25 43 5 -9
BITMAP
F8000F80
F8000F80
F8000F80
F8000F80
F8000F80
F8000F80
F8000F80
F8000F80
F8000F80
F8000F80
F8000F80
F8000F80
F8000F80
F8000F80
FFFFFF80
FFFFFF80
FFFFFF80
FFFFFF80
FFFFFF80
F8000F80
F8000F80
F8000F80
F8000F80
F8000F80
F8000F80
F8000F80
F8000F80
F8000F80
F8000F80
F8000F80
F8000F80
F8000F80
F8000F80
F8000F80
00000000
00000000
00000000
00000000
003E0000
003E0000
003E0000
003E0000
003E0000
ENDCHAR
STARTCHAR 1E25
ENCODING 7717
SWIDTH 600 0
DWIDTH 30 0
BBX 22 45 4 -9
BITMAP
F80000
F80000
F80000
F80000
F80000
F80000
F80000
F80000
F80000
F80000
F83F00
F9FFC0
FBFFE0
FFFFF0
FF03F8
FE00F8
FC00FC
FC007C
F8007C
F8007C
F8007C
F8007C
F8007C
F8007C
F8007C
F8007C
F8007C
F8007C
F8007C
F8007C
F8007C
F8007C
F8007C
F8007C
F8007C
F8007C
000000
000000
000000
000000
007800
007800
007800
007800
007800
ENDCHAR
STARTCHAR 1E62
ENCODING 7778
SWIDTH 640 0
DWIDTH 32 0
BBX 26 44 3 -9
BITMAP
003F0000
03FFF000
0FFFFC00
1FFFFE00
3FF3FF00
7F003F00
7E001F80
7C000F80
FC000F80
FC000F80
FC000000
7E000000
7F000000
7FC00000
3FF80000
1FFF8000
0FFFF000
03FFFC00
00FFFE00
000FFF00
0001FF80
00003F80
00001FC0
00000FC0
F8000FC0
F80007C0
F80007C0
F8000FC0
F8000FC0
FC001F80
7F003F80
3FFFFF00
1FFFFE00
0FFFF800
03FFE000
00080000
00000000
00000000
00000000
001F0000
001F0000
001F0000
001F0000
001F0000
ENDCHAR
STARTCHAR 1E63
ENCODING 7779
SWIDTH 540 0
DWIDTH 27 0
BBX 23 35 2 -9
BITMAP
01FF00
07FFC0
1FFFF0
3FFFF8
3E00F8
7C007C
7C007C
7C003C
7C0000
7F0000
3FE000
3FFF00
0FFFE0
07FFF8
007FF8
0003FC
0000FC
00003E
F8003E
F8003E
78003C
7C007C
7F01FC
3FFFF8
1FFFF0
07FFC0
003800
000000
000000
000000
007C00
007C00
007C00
007C00
007C00
ENDCHAR
STARTCHAR 1E6C
ENCODING 7788
SWIDTH 580 0
DWIDTH 29 0
BBX 27 43 1 -9
BITMAP
FFFFFFE0
FFFFFFE0
FFFFFFE0
FFFFFFE0
001F0000
001F0000
001F0000
001F0000
001F0000
001F0000
001F0000
001F0000
001F0000
001F0000
001F0000
001F0000
001F0000
001F0000
001F0000
001F0000
001F0000
001F0000
001F0000
001F0000
001F0000
001F0000
001F0000
001F0000
001F0000
001F0000
001F0000
001F0000
001F0000
001F0000
00000000
00000000
00000000
00000000
001F0000
001F0000
001F0000
001F0000
001F0000
ENDCHAR
STARTCHAR 1E6D
ENCODING 7789
SWIDTH 380 0
DWIDTH 19 0
BBX 14 43 2 -9
BITMAP
0700
0700
0F00
0F00
0F00
0F00
1F00
1F00
FFFC
FFFC
FFFC
FFFC
1F00
1F00
1F00
1F00
1F00
1F00
1F00
1F00
1F00
1F00
1F00
1F00
1F00
1F00
1F00
1F00
1F00
1F00
1F84
1FFC
0FFC
07FC
0040
0000
0000
0000
03E0
03E0
03E0
03E0
03E0
ENDCHAR
STARTCHAR 1E80
ENCODING 7808
SWIDTH 960 0
DWIDTH 48 0
BBX 45 45 1 0
BITMAP
0001F0000000
0000F8000000
00007C000000
00003C000000
00001E000000
00001F000000
00000F800000
000000000000
000000000000
000000000000
800000000000
7C000FC000F8
7C000FC000F8
7E000FC001F0
7E001FE001F0
3E001FE001F0
3F001FE001F0
3F001FF003E0
1F003FF003E0
1F003FF003E0
1F803FF007C0
1F807DF807C0
0F807CF807C0
0F807CF807C0
0FC078FC0F80
07C0F8FC0F80
07C0F87C0F80
07E0F87C0F00
07E1F07E1F00
03E1F03E1F00
03E1F03E1F00
03F1F03F3E00
01F3E03F3E00
01F3E01F3E00
01FBE01F3C00
01FFC01FFC00
00FFC00FFC00
00FFC00FFC00
00FFC00FF800
007F800FF800
007F8007F800
007F8007F000
007F0007F000
003F0003F000
003F0003F000
ENDCHAR
STARTCHAR 1E81
ENCODING 7809
SWIDTH 820 0
DWIDTH 41 0
BBX 39 38 1 0
BITMAP
0007C00000
0007C00000
0003E00000
0001E00000
0001F00000
0000F00000
0000700000
0000780000
0000380000
0000000000
0000000000
0000000000
F8007C003E
FC007E003E
7C00FE003C
7C00FE007C
7E00FF007C
3E00FF0078
3E01FF00F8
3E01FF80F8
1F01EF80F0
1F03EF81F0
1F03E7C1F0
0F83C7C1F0
0F87C7C3E0
0F87C3E3E0
07C783E3E0
07CF83E7C0
07CF81F7C0
03EF01F7C0
03FF01F780
03FF00FF80
01FE00FF80
01FE00FF00
01FE007F00
00FC007F00
00FC007E00
00FC003E00
ENDCHAR
STARTCHAR 1E82
ENCODING 7810
SWIDTH 960 0
DWIDTH 48 0
BBX 45 45 1 0
BITMAP
0000003E0000
0000007C0000
0000007C0000
000000F80000
000001F00000
000003E00000
000003C00000
000004000000
000000000000
000000000000
800000000000
7C000FC000F8
7C000FC000F8
7E000FC001F0
7E001FE001F0
3E001FE001F0
3F001FE001F0
3F001FF003E0
1F003FF003E0
1F003FF003E0
1F803FF007C0
1F807DF807C0
0F807CF807C0
0F807CF807C0
0FC078FC0F80
07C0F8FC0F80
07C0F87C0F80
07E0F87C0F00
07E1F07E1F00
03E1F03E1F00
03E1F03E1F00
03F1F03F3E00
01F3E03F3E00
01F3E01F3E00
01FBE01F3C00
01FFC01FFC00
00FFC00FFC00
00FFC00FFC00
00FFC00FF800
007F800FF800
007F8007F800
007F8007F000
007F0007F000
003F0003F000
003F0003F000
ENDCHAR
STARTCHAR 1E83
ENCODING 7811
SWIDTH 820 0
DWIDTH 41 0
BBX 39 38 1 0
BITMAP
000007C000
000007C000
0000078000
00000F0000
00000F0000
00001E0000
00001E0000
00003C0000
0000380000
0000000000
0000000000
0000000000
F8007C003E
FC007E003E
7C00FE003C
7C00FE007C
7E00FF007C
3E00FF0078
3E01FF00F8
3E01FF80F8
1F01EF80F0
1F03EF81F0
1F03E7C1F0
0F83C7C1F0
0F87C7C3E0
0F87C3E3E0
07C783E3E0
07CF83E7C0
07CF81F7C0
03EF01F7C0
03FF01F780
03FF00FF80
01FE00FF80
01FE00FF00
01FE007F00
00FC007F00
00FC007E00
00FC003E00
ENDCHAR
STARTCHAR 1E84
ENCODING 7812
SWIDTH 960 0
DWIDTH 48 0
BBX 45 43 1 0
BITMAP
0001F03E0000
0001F03E0000
0001F03E0000
0001F03E0000
000000000000
000000000000
000000000000
000000000000
800000000000
7C000FC000F8
7C000FC000F8
7E000FC001F0
7E001FE001F0
3E001FE001F0
3F001FE001F0
3F001FF003E0
1F003FF003E0
1F003FF003E0
1F803FF007C0
1F807DF807C0
0F807CF807C0
0F807CF807C0
0FC078FC0F80
07C0F8FC0F80
07C0F87C0F80
07E0F87C0F00
07E1F07E1F00
03E1F03E1F00
03E1F03E1F00
03F1F03F3E00
01F3E03F3E00
01F3E01F3E00
01FBE01F3C00
01FFC01FFC00
00FFC00FFC00
00FFC00FFC00
00FFC00FF800
007F800FF800
007F8007F800
007F8007F000
007F0007F000
003F0003F000
003F0003F000
ENDCHAR
STARTCHAR 1E85
ENCODING 7813
SWIDTH 820 0
DWIDTH 41 0
BBX 39 35 1 0
BITMAP
000F01E000
000F01E000
000F01E000
000F01E000
0000000000
0000000000
0000000000
0000000000
0000000000
F8007C003E
FC007E003E
7C00FE003C
7C00FE007C
7E00FF007C
3E00FF0078
3E01FF00F8
3E01FF80F8
1F01EF80F0
1F03EF81F0
1F03E7C1F0
0F83C7C1F0
0F87C7C3E0
0F87C3E3E0
07C783E3E0
07CF83E7C0
07CF81F7C0
03EF01F7C0
03FF01F780
03FF00FF80
01FE00FF80
01FE00FF00
01FE007F00
00FC007F00
00FC007E00
00FC003E00
ENDCHAR
STARTCHAR 1E9E
ENCODING 7838
SWIDTH 740 0
DWIDTH 37 0
BBX 30 36 4 -1
BITMAP
000FE000
00FFFE00
03FFFF80
0FFFFFC0
1FFC7FE0
1FC007F0
3F0003F0
7E0001F8
7E0001F8
7C0000F8
7C0000F8
FC0001F8
FC0001F0
FC0003F0
FC0007E0
FC001FC0
FC0FFF80
FC0FFF00
FC0FFFC0
FC000FE0
FC0003F0
FC0001F8
FC0000F8
FC0000FC
FC0000FC
FCF000FC
FCF800FC
FCF800FC
FCF800F8
FCFC01F8
FC7E03F8
FC7FFFF0
FC3FFFE0
FC1FFFC0
FC0FFF00
00006000
ENDCHAR
STARTCHAR 1EA0
ENCODING 7840
SWIDTH 680 0
DWIDTH 34 0
BBX 33 43 0 -9
BITMAP
0007F00000
0007F00000
0007F80000
000FF80000
000FFC0000
000FFC0000
001F7C0000
001F7E0000
003E3E0000
003E3F0000
003E1F0000
007C1F0000
007C1F8000
00FC0F8000
00F80FC000
00F80FC000
01F007C000
01F007E000
03F003E000
03E003E000
03E003F000
07E001F000
07FFFFF800
07FFFFF800
0FFFFFF800
0FFFFFFC00
1F80007C00
1F00007E00
1F00007E00
3F00003E00
3E00003F00
7E00003F00
7C00001F00
7C00001F80
8000000000
0000000000
0000000000
0000000000
0003E00000
0003E00000
0003E00000
0003E00000
0003E00000
ENDCHAR
STARTCHAR 1EA1
ENCODING 7841
SWIDTH 600 0
DWIDTH 30 0
BBX 26 35 2 -9
BITMAP
01FF8000
07FFE000
1FFFF800
3FE7F800
3F00FC00
7E007C00
7C007C00
7C007C00
00007C00
00007C00
00007C00
00FFFC00
07FFFC00
1FFFFC00
3FC07C00
7E007C00
7C007C00
FC007C00
FC007C00
FC007C00
FC00FC00
7C01FC00
7F07BE40
7FFF3FC0
3FFE3FC0
0FF81FC0
00800200
00000000
00000000
00000000
003E0000
003E0000
003E0000
003E0000
003E0000
ENDCHAR
STARTCHAR 1EA2
ENCODING 7842
SWIDTH 680 0
DWIDTH 34 0
BBX 33 48 0 0
BITMAP
0001C00000
0007F00000
0007F80000
0007FC0000
00003C0000
00001C0000
00001C0000
00003C0000
0000F80000
0001F00000
0001E00000
0000000000
0000000000
0000000000
0007F00000
0007F00000
0007F80000
000FF80000
000FFC0000
000FFC0000
001F7C0000
001F7E0000
003E3E0000
003E3F0000
003E1F0000
007C1F0000
007C1F8000
00FC0F8000
00F80FC000
00F80FC000
01F007C000
01F007E000
03F003E000
03E003E000
03E003F000
07E001F000
07FFFFF800
07FFFFF800
0FFFFFF800
0FFFFFFC00
1F80007C00
1F00007E00
1F00007E00
3F00003E00
3E00003F00
7E00003F00
7C00001F00
FC00001F80
ENDCHAR
STARTCHAR 1EA3
ENCODING 7843
SWIDTH 600 0
DWIDTH 30 0
BBX 26 41 2 -1
BITMAP
003C0000
00FF0000
00FF8000
00FF8000
0003C000
0003C000
00038000
00038000
001F0000
001E0000
001C0000
00000000
00000000
00000000
01FF8000
07FFE000
1FFFF800
3FE7F800
3F00FC00
7E007C00
7C007C00
7C007C00
00007C00
00007C00
00007C00
00FFFC00
07FFFC00
1FFFFC00
3FC07C00
7E007C00
7C007C00
FC007C00
FC007C00
FC007C00
FC00FC00
7C01FC00
7F07BE40
7FFF3FC0
3FFE3FC0
0FF81FC0
00800200
ENDCHAR
STARTCHAR 1EA4
ENCODING 7844
SWIDTH 680 0
DWIDTH 34 0
BBX 33 53 0 0
BITMAP
00001F0000
00003E0000
00003C0000
0000780000
0000F00000
0000F00000
0001E00000
0000000000
0000000000
0003F00000
0007F80000
000FFC0000
001E3E0000
007C1F0000
00F807C000
0000000000
0000000000
0000000000
0000000000
0007F00000
0007F00000
0007F80000
000FF80000
000FFC0000
000FFC0000
001F7C0000
001F7E0000
003E3E0000
003E3F0000
003E1F0000
007C1F0000
007C1F8000
00FC0F8000
00F80FC000
00F80FC000
01F007C000
01F007E000
03F003E000
03E003E000
03E003F000
07E001F000
07FFFFF800
07FFFFF800
0FFFFFF800
0FFFFFFC00
1F80007C00
1F00007E00
1F00007E00
3F00003E00
3E00003F00
7E00003F00
7C00001F00
FC00001F80
ENDCHAR
STARTCHAR 1EA5
ENCODING 7845
SWIDTH 600 0
DWIDTH 30 0
BBX 26 47 2 -1
BITMAP
0003E000
0003C000
00078000
000F0000
000F0000
001E0000
003C0000
00000000
00000000
007C0000
00FE0000
01FF0000
01EF8000
03C7C000
0781E000
0F00F000
10000800
00000000
00000000
00000000
01FF8000
07FFE000
1FFFF800
3FE7F800
3F00FC00
7E007C00
7C007C00
7C007C00
00007C00
00007C00
00007C00
00FFFC00
07FFFC00
1FFFFC00
3FC07C00
7E007C00
7C007C00
FC007C00
FC007C00
FC007C00
FC00FC00
7C01FC00
7F07BE40
7FFF3FC0
3FFE3FC0
0FF81FC0
00800200
ENDCHAR
STARTCHAR 1EA6
ENCODING 7846
SWIDTH 680 0
DWIDTH 34 0
BBX 33 53 0 0
BITMAP
003C000000
003E000000
001F000000
000F000000
0007800000
0003C00000
0001E00000
0000000000
0000000000
0003F00000
0007F80000
000FFC0000
001E3E0000
007C1F0000
00F807C000
0000000000
0000000000
0000000000
0000000000
0007F00000
0007F00000
0007F80000
000FF80000
000FFC0000
000FFC0000
001F7C0000
001F7E0000
003E3E0000
003E3F0000
003E1F0000
007C1F0000
007C1F8000
00FC0F8000
00F80FC000
00F80FC000
01F007C000
01F007E000
03F003E000
03E003E000
03E003F000
07E001F000
07FFFFF800
07FFFFF800
0FFFFFF800
0FFFFFFC00
1F80007C00
1F00007E00
1F00007E00
3F00003E00
3E00003F00
7E00003F00
7C00001F00
FC00001F80
ENDCHAR
STARTCHAR 1EA7
ENCODING 7847
SWIDTH 600 0
DWIDTH 30 0
BBX 26 47 2 -1
BITMAP
0F800000
07C00000
03E00000
01E00000
00F00000
00780000
003C0000
00000000
00000000
007C0000
00FE0000
00FF0000
01E78000
03C3C000
0781E000
0F00F000
10000800
00000000
00000000
00000000
01FF8000
07FFE000
1FFFF800
3FE7F800
3F00FC00
7E007C00
7C007C00
7C007C00
00007C00
00007C00
00007C00
00FFFC00
07FFFC00
1FFFFC00
3FC07C00
7E007C00
7C007C00
FC007C00
FC007C00
FC007C00
FC00FC00
7C01FC00
7F07BE40
7FFF3FC0
3FFE3FC0
0FF81FC0
00800200
ENDCHAR
STARTCHAR 1EA8
ENCODING 7848
SWIDTH 680 0
DWIDTH 34 0
BBX 33 55 0 0
BITMAP
0003F00000
0003F80000
0003F80000
0000180000
00001C0000
0000380000
0000780000
0000F00000
0000C00000
0000000000
0000000000
0003F00000
0007F80000
000FFC0000
001E3E0000
007C1F0000
00F807C000
0000000000
0000000000
0000000000
0000000000
0007F00000
0007F00000
0007F80000
000FF80000
000FFC0000
000FFC0000
001F7C0000
001F7E0000
003E3E0000
003E3F0000
003E1F0000
007C1F0000
007C1F8000
00FC0F8000
00F80FC000
00F80FC000
01F007C000
01F007E000
03F003E000
03E003E000
03E003F000
07E001F000
07FFFFF800
07FFFFF800
0FFFFFF800
0FFFFFFC00
1F80007C00
1F00007E00
1F00007E00
3F00003E00
3E00003F00
7E00003F00
7C00001F00
FC00001F80
ENDCHAR
STARTCHAR 1EA9
ENCODING 7849
SWIDTH 600 0
DWIDTH 30 0
BBX 26 49 2 -1
BITMAP
007E0000
007F0000
007F0000
00038000
00038000
00070000
000F0000
001E0000
00180000
00000000
00000000
007C0000
00FE0000
01FF0000
01E78000
03C3C000
0781E000
0F00F000
10000800
00000000
00000000
00000000
01FF8000
07FFE000
1FFFF800
3FE7F800
3F00FC00
7E007C00
7C007C00
7C007C00
00007C00
00007C00
00007C00
00FFFC00
07FFFC00
1FFFFC00
3FC07C00
7E007C00
7C007C00
FC007C00
FC007C00
FC007C00
FC00FC00
7C01FC00
7F07BE40
7FFF3FC0
3FFE3FC0
0FF81FC0
00800200
ENDCHAR
STARTCHAR 1EAA
ENCODING 7850
SWIDTH 680 0
DWIDTH 34 0
BBX 33 52 0 0
BITMAP
000401C000
003FC1C000
007FFFC000
00FFFF8000
00E1FF0000
01C03C0000
0000000000
0000000000
0003F00000
0007F80000
000FFC0000
001E3E0000
003C1F0000
00F807C000
0000000000
0000000000
0000000000
0000000000
0007F00000
0007F00000
0007F80000
000FF80000
000FFC0000
000FFC0000
001F7C0000
001F7E0000
003E3E0000
003E3F0000
003E1F0000
007C1F0000
007C1F8000
00FC0F8000
00F80FC000
00F80FC000
01F007C000
01F007E000
03F003E000
03E003E000
03E003F000
07E001F000
07FFFFF800
07FFFFF800
0FFFFFF800
0FFFFFFC00
1F80007C00
1F00007E00
1F00007E00
3F00003E00
3E00003F00
7E00003F00
7C00001F00
FC00001F80
ENDCHAR
STARTCHAR 1EAB
ENCODING 7851
SWIDTH 600 0
DWIDTH 30 0
BBX 26 45 2 -1
BITMAP
07F03800
0FFEF800
1FFFF000
1E7FE000
180FC000
20000000
00000000
007C0000
00FE0000
01FF0000
01EF8000
03C7C000
0781E000
0F00F000
10000800
00000000
00000000
00000000
01FF8000
07FFE000
1FFFF800
3FE7F800
3F00FC00
7E007C00
7C007C00
7C007C00
00007C00
00007C00
00007C00
00FFFC00
07FFFC00
1FFFFC00
3FC07C00
7E007C00
7C007C00
FC007C00
FC007C00
FC007C00
FC00FC00
7C01FC00
7F07BE40
7FFF3FC0
3FFE3FC0
0FF81FC0
00800200
ENDCHAR
STARTCHAR 1EAC
ENCODING 7852
SWIDTH 680 0
DWIDTH 34 0
BBX 33 53 0 -9
BITMAP
0007F00000
0007F80000
000F7C0000
001E3E0000
003C1F0000
00F80F8000
0000000000
0000000000
0000000000
0000000000
0007F00000
0007F00000
0007F80000
000FF80000
000FFC0000
000FFC0000
001F7C0000
001F7E0000
003E3E0000
003E3F0000
003E1F0000
007C1F0000
007C1F8000
00FC0F8000
00F80FC000
00F80FC000
01F007C000
01F007E000
03F003E000
03E003E000
03E003F000
07E001F000
07FFFFF800
07FFFFF800
0FFFFFF800
0FFFFFFC00
1F80007C00
1F00007E00
1F00007E00
3F00003E00
3E00003F00
7E00003F00
7C00001F00
7C00001F80
8000000000
0000000000
0000000000
0000000000
0003E00000
0003E00000
0003E00000
0003E00000
0003E00000
ENDCHAR
STARTCHAR 1EAD
ENCODING 7853
SWIDTH 600 0
DWIDTH 30 0
BBX 26 47 2 -9
BITMAP
007C0000
007E0000
00FF0000
01EF8000
03E78000
03C3C000
0781E000
0F01F000
1F00F000
00000000
00000000
00000000
01FF8000
07FFE000
1FFFF800
3FE7F800
3F00FC00
7E007C00
7C007C00
7C007C00
00007C00
00007C00
00007C00
00FFFC00
07FFFC00
1FFFFC00
3FC07C00
7E007C00
7C007C00
FC007C00
FC007C00
FC007C00
FC00FC00
7C01FC00
7F07BE40
7FFF3FC0
3FFE3FC0
0FF81FC0
00800200
00000000
00000000
00000000
003E0000
003E0000
003E0000
003E0000
003E0000
ENDCHAR
STARTCHAR 1EAE
ENCODING 7854
SWIDTH 680 0
DWIDTH 34 0
BBX 33 52 0 0
BITMAP
00001F0000
00003E0000
00007C0000
0000780000
0000F00000
0001E00000
0001C00000
0002000000
00E003C000
00F0078000
00FC0F8000
007FFF0000
003FFE0000
0007F00000
0000000000
0000000000
0000000000
0000000000
0007F00000
0007F00000
0007F80000
000FF80000
000FFC0000
000FFC0000
001F7C0000
001F7E0000
003E3E0000
003E3F0000
003E1F0000
007C1F0000
007C1F8000
00FC0F8000
00F80FC000
00F80FC000
01F007C000
01F007E000
03F003E000
03E003E000
03E003F000
07E001F000
07FFFFF800
07FFFFF800
0FFFFFF800
0FFFFFFC00
1F80007C00
1F00007E00
1F00007E00
3F00003E00
3E00003F00
7E00003F00
7C00001F00
FC00001F80
ENDCHAR
STARTCHAR 1EAF
ENCODING 7855
SWIDTH 600 0
DWIDTH 30 0
BBX 26 45 2 -1
BITMAP
0003E000
0007C000
000F8000
000F0000
001E0000
003C0000
00780000
00000000
1C007800
1E00F000
0F83F000
0FFFE000
03FFC000
00FE0000
00000000
00000000
00000000
00000000
01FF8000
07FFE000
1FFFF800
3FE7F800
3F00FC00
7E007C00
7C007C00
7C007C00
00007C00
00007C00
00007C00
00FFFC00
07FFFC00
1FFFFC00
3FC07C00
7E007C00
7C007C00
FC007C00
FC007C00
FC007C00
FC00FC00
7C01FC00
7F07BE40
7FFF3FC0
3FFE3FC0
0FF81FC0
00800200
ENDCHAR
STARTCHAR 1EB0
ENCODING 7856
SWIDTH 680 0
DWIDTH 34 0
BBX 33 52 0 0
BITMAP
003E000000
001E000000
000F000000
000F800000
0007800000
0003C00000
0001E00000
0000000000
00E003C000
00F0038000
007C0F8000
007FFF0000
001FFE0000
0007F00000
0000000000
0000000000
0000000000
0000000000
0007F00000
0007F00000
0007F80000
000FF80000
000FFC0000
000FFC0000
001F7C0000
001F7E0000
003E3E0000
003E3F0000
003E1F0000
007C1F0000
007C1F8000
00FC0F8000
00F80FC000
00F80FC000
01F007C000
01F007E000
03F003E000
03E003E000
03E003F000
07E001F000
07FFFFF800
07FFFFF800
0FFFFFF800
0FFFFFFC00
1F80007C00
1F00007E00
1F00007E00
3F00003E00
3E00003F00
7E00003F00
7C00001F00
FC00001F80
ENDCHAR
STARTCHAR 1EB1
ENCODING 7857
SWIDTH 600 0
DWIDTH 30 0
BBX 26 46 2 -1
BITMAP
07C00000
07C00000
03E00000
01E00000
00F00000
00780000
00380000
003C0000
1C007800
1E007800
1F00F000
0FFFF000
07FFE000
01FF8000
00000000
00000000
00000000
00000000
00000000
01FF8000
07FFE000
1FFFF800
3FE7F800
3F00FC00
7E007C00
7C007C00
7C007C00
00007C00
00007C00
00007C00
00FFFC00
07FFFC00
1FFFFC00
3FC07C00
7E007C00
7C007C00
FC007C00
FC007C00
FC007C00
FC00FC00
7C01FC00
7F07BE40
7FFF3FC0
3FFE3FC0
0FF81FC0
00800200
ENDCHAR
STARTCHAR 1EB2
ENCODING 7858
SWIDTH 680 0
DWIDTH 34 0
BBX 33 54 0 0
BITMAP
0003E00000
0003F00000
0003F80000
0000380000
0000380000
0000380000
0000700000
0000E00000
0000C00000
0000000000
00E003C000
00F0038000
007C0F8000
007FFF0000
001FFE0000
0007F00000
0000000000
0000000000
0000000000
0000000000
0007F00000
0007F00000
0007F80000
000FF80000
000FFC0000
000FFC0000
001F7C0000
001F7E0000
003E3E0000
003E3F0000
003E1F0000
007C1F0000
007C1F8000
00FC0F8000
00F80FC000
00F80FC000
01F007C000
01F007E000
03F003E000
03E003E000
03E003F000
07E001F000
07FFFFF800
07FFFFF800
0FFFFFF800
0FFFFFFC00
1F80007C00
1F00007E00
1F00007E00
3F00003E00
3E00003F00
7E00003F00
7C00001F00
FC00001F80
ENDCHAR
STARTCHAR 1EB3
ENCODING 7859
SWIDTH 600 0
DWIDTH 30 0
BBX 26 48 2 -1
BITMAP
00380000
007E0000
007F0000
00870000
00070000
00070000
00070000
001E0000
001C0000
00200000
1C007800
1E007800
1F00F000
0FFFF000
07FFE000
01FF8000
00000000
00000000
00000000
00000000
00000000
01FF8000
07FFE000
1FFFF800
3FE7F800
3F00FC00
7E007C00
7C007C00
7C007C00
00007C00
00007C00
00007C00
00FFFC00
07FFFC00
1FFFFC00
3FC07C00
7E007C00
7C007C00
FC007C00
FC007C00
FC007C00
FC00FC00
7C01FC00
7F07BE40
7FFF3FC0
3FFE3FC0
0FF81FC0
00800200
ENDCHAR
STARTCHAR 1EB4
ENCODING 7860
SWIDTH 680 0
DWIDTH 34 0
BBX 33 52 0 0
BITMAP
001C01C000
007FC1C000
00FFFF8000
00FFFF8000
00E0FF0000
01C01C0000
0000000000
0000000000
00E003C000
00F0078000
00FC0F8000
007FFF0000
001FFE0000
0007F00000
0000000000
0000000000
0000000000
0000000000
0007F00000
0007F00000
0007F80000
000FF80000
000FFC0000
000FFC0000
001F7C0000
001F7E0000
003E3E0000
003E3F0000
003E1F0000
007C1F0000
007C1F8000
00FC0F8000
00F80FC000
00F80FC000
01F007C000
01F007E000
03F003E000
03E003E000
03E003F000
07E001F000
07FFFFF800
07FFFFF800
0FFFFFF800
0FFFFFFC00
1F80007C00
1F00007E00
1F00007E00
3F00003E00
3E00003F00
7E00003F00
7C00001F00
FC00001F80
ENDCHAR
STARTCHAR 1EB5
ENCODING 7861
SWIDTH 600 0
DWIDTH 30 0
BBX 26 45 2 -1
BITMAP
07F03800
0FFEF800
1FFFF000
1F7FF000
1C0FC000
00000000
00000000
1C007800
1E007800
1F00F000
0FFFF000
07FFE000
01FF8000
00000000
00000000
00000000
00000000
00000000
01FF8000
07FFE000
1FFFF800
3FE7F800
3F00FC00
7E007C00
7C007C00
7C007C00
00007C00
00007C00
00007C00
00FFFC00
07FFFC00
1FFFFC00
3FC07C00
7E007C00
7C007C00
FC007C00
FC007C00
FC007C00
FC00FC00
7C01FC00
7F07BE40
7FFF3FC0
3FFE3FC0
0FF81FC0
00800200
ENDCHAR
STARTCHAR 1EB6
ENCODING 7862
SWIDTH 680 0
DWIDTH 34 0
BBX 33 53 0 -9
BITMAP
0070078000
0078070000
007C1F0000
003FFE0000
001FFC0000
0007F00000
0000000000
0000000000
0000000000
0000000000
0007F00000
0007F00000
0007F80000
000FF80000
000FFC0000
000FFC0000
001F7C0000
001F7E0000
003E3E0000
003E3F0000
003E1F0000
007C1F0000
007C1F8000
00FC0F8000
00F80FC000
00F80FC000
01F007C000
01F007E000
03F003E000
03E003E000
03E003F000
07E001F000
07FFFFF800
07FFFFF800
0FFFFFF800
0FFFFFFC00
1F80007C00
1F00007E00
1F00007E00
3F00003E00
3E00003F00
7E00003F00
7C00001F00
7C00001F80
8000000000
0000000000
0000000000
0000000000
0003E00000
0003E00000
0003E00000
0003E00000
0003E00000
ENDCHAR
STARTCHAR 1EB7
ENCODING 7863
SWIDTH 600 0
DWIDTH 30 0
BBX 26 46 2 -9
BITMAP
1E007000
0E007000
0F00F000
0F01E000
07FFE000
03FFC000
01FF0000
00000000
00000000
00000000
00000000
01FF8000
07FFE000
1FFFF800
3FE7F800
3F00FC00
7E007C00
7C007C00
7C007C00
00007C00
00007C00
00007C00
00FFFC00
07FFFC00
1FFFFC00
3FC07C00
7E007C00
7C007C00
FC007C00
FC007C00
FC007C00
FC00FC00
7C01FC00
7F07BE40
7FFF3FC0
3FFE3FC0
0FF81FC0
00800200
00000000
00000000
00000000
003E0000
003E0000
003E0000
003E0000
003E0000
ENDCHAR
STARTCHAR 1EB8
ENCODING 7864
SWIDTH 600 0
DWIDTH 30 0
BBX 23 43 5 -9
BITMAP
FFFFFC
FFFFFC
FFFFFC
FFFFFC
F80000
F80000
F80000
F80000
F80000
F80000
F80000
F80000
F80000
F80000
FFFFF0
FFFFF0
FFFFF0
FFFFF0
FFFFF0
F80000
F80000
F80000
F80000
F80000
F80000
F80000
F80000
F80000
F80000
F80000
FFFFFC
FFFFFC
FFFFFC
FFFFFE
000000
000000
000000
000000
007C00
007C00
007C00
007C00
007C00
ENDCHAR
STARTCHAR 1EB9
ENCODING 7865
SWIDTH 580 0
DWIDTH 29 0
BBX 23 35 3 -9
BITMAP
00FF00
07FFC0
0FFFE0
1FFFF0
3F01F8
7E00FC
7C007C
7C007C
F8003C
F8003E
F8003E
FFFFFE
FFFFFE
FFFFFE
F80000
F80000
F8003E
F8003E
FC003C
7C007C
7E007C
3F00F8
3F83F8
1FFFF0
0FFFE0
03FF80
003000
000000
000000
000000
003C00
003C00
003C00
003C00
003C00
ENDCHAR
STARTCHAR 1EBA
ENCODING 7866
SWIDTH 600 0
DWIDTH 30 0
BBX 23 48 5 0
BITMAP
007000
01FE00
01FE00
01FF00
000700
000700
000700
000F00
003E00
003C00
003800
000000
000000
000000
FFFFFC
FFFFFC
FFFFFC
FFFFFC
F80000
F80000
F80000
F80000
F80000
F80000
F80000
F80000
F80000
F80000
FFFFF0
FFFFF0
FFFFF0
FFFFF0
FFFFF0
F80000
F80000
F80000
F80000
F80000
F80000
F80000
F80000
F80000
F80000
F80000
FFFFFC
FFFFFC
FFFFFC
FFFFFE
ENDCHAR
STARTCHAR 1EBB
ENCODING 7867
SWIDTH 580 0
DWIDTH 29 0
BBX 23 41 3 -1
BITMAP
003C00
00FF00
00FF80
00FF80
000380
0003C0
000380
000380
001F00
001E00
001C00
000000
000000
000000
00FF00
07FFC0
0FFFE0
1FFFF0
3F01F8
7E00FC
7C007C
7C007C
F8003C
F8003E
F8003E
FFFFFE
FFFFFE
FFFFFE
F80000
F80000
F8003E
F8003E
FC003C
7C007C
7E007C
3F00F8
3F83F8
1FFFF0
0FFFE0
03FF80
003000
ENDCHAR
STARTCHAR 1EBC
ENCODING 7868
SWIDTH 600 0
DWIDTH 30 0
BBX 23 44 5 0
BITMAP
07C070
0FF0E0
1FFFE0
3FFFE0
383FC0
380F00
000000
000000
000000
000000
FFFFFC
FFFFFC
FFFFFC
FFFFFC
F80000
F80000
F80000
F80000
F80000
F80000
F80000
F80000
F80000
F80000
FFFFF0
FFFFF0
FFFFF0
FFFFF0
FFFFF0
F80000
F80000
F80000
F80000
F80000
F80000
F80000
F80000
F80000
F80000
F80000
FFFFFC
FFFFFC
FFFFFC
FFFFFE
ENDCHAR
STARTCHAR 1EBD
ENCODING 7869
SWIDTH 580 0
DWIDTH 29 0
BBX 23 38 3 -1
BITMAP
008038
07F038
0FF870
1FFFF0
1C3FF0
1C1FE0
180380
000000
000000
000000
000000
00FF00
07FFC0
0FFFE0
1FFFF0
3F01F8
7E00FC
7C007C
7C007C
F8003C
F8003E
F8003E
FFFFFE
FFFFFE
FFFFFE
F80000
F80000
F8003E
F8003E
FC003C
7C007C
7E007C
3F00F8
3F83F8
1FFFF0
0FFFE0
03FF80
003000
ENDCHAR
STARTCHAR 1EBE
ENCODING 7870
SWIDTH 600 0
DWIDTH 30 0
BBX 23 53 5 0
BITMAP
0007C0
000F80
000F00
001E00
003E00
003C00
007800
000000
000000
00FC00
01FE00
03FF00
078F80
0F03C0
3E01F0
000000
000000
000000
000000
FFFFFC
FFFFFC
FFFFFC
FFFFFC
F80000
F80000
F80000
F80000
F80000
F80000
F80000
F80000
F80000
F80000
FFFFF0
FFFFF0
FFFFF0
FFFFF0
FFFFF0
F80000
F80000
F80000
F80000
F80000
F80000
F80000
F80000
F80000
F80000
F80000
FFFFFC
FFFFFC
FFFFFC
FFFFFE
ENDCHAR
STARTCHAR 1EBF
ENCODING 7871
SWIDTH 580 0
DWIDTH 29 0
BBX 23 47 3 -1
BITMAP
0003E0
0007C0
000780
000F00
000F00
001E00
003C00
000000
000000
007C00
00FE00
01FF00
01EF80
03C7C0
0783E0
0F01F0
100008
000000
000000
000000
00FF00
07FFC0
0FFFE0
1FFFF0
3F01F8
7E00FC
7C007C
7C007C
F8003C
F8003E
F8003E
FFFFFE
FFFFFE
FFFFFE
F80000
F80000
F8003E
F8003E
FC003C
7C007C
7E007C
3F00F8
3F83F8
1FFFF0
0FFFE0
03FF80
003000
ENDCHAR
STARTCHAR 1EC0
ENCODING 7872
SWIDTH 600 0
DWIDTH 30 0
BBX 23 53 5 0
BITMAP
0F8000
078000
07C000
03E000
01E000
00F000
007800
000000
000000
00FC00
01FE00
03FF00
078F80
0F03C0
3E01F0
000000
000000
000000
000000
FFFFFC
FFFFFC
FFFFFC
FFFFFC
F80000
F80000
F80000
F80000
F80000
F80000
F80000
F80000
F80000
F80000
FFFFF0
FFFFF0
FFFFF0
FFFFF0
FFFFF0
F80000
F80000
F80000
F80000
F80000
F80000
F80000
F80000
F80000
F80000
F80000
FFFFFC
FFFFFC
FFFFFC
FFFFFE
ENDCHAR
STARTCHAR 1EC1
ENCODING 7873
SWIDTH 580 0
DWIDTH 29 0
BBX 23 47 3 -1
BITMAP
0F8000
07C000
03E000
01E000
00F000
007800
003C00
000000
000000
007C00
00FE00
01FF00
01E780
03C3C0
0781E0
0F00F0
100008
000000
000000
000000
00FF00
07FFC0
0FFFE0
1FFFF0
3F01F8
7E00FC
7C007C
7C007C
F8003C
F8003E
F8003E
FFFFFE
FFFFFE
FFFFFE
F80000
F80000
F8003E
F8003E
FC003C
7C007C
7E007C
3F00F8
3F83F8
1FFFF0
0FFFE0
03FF80
003000
ENDCHAR
STARTCHAR 1EC2
ENCODING 7874
SWIDTH 600 0
DWIDTH 30 0
BBX 23 55 5 0
BITMAP
00FC00
00FE00
00FE00
000700
000700
000600
001E00
003C00
003000
000000
000000
00FC00
01FE00
03FF00
078F80
0F03C0
3E01F0
000000
000000
000000
000000
FFFFFC
FFFFFC
FFFFFC
FFFFFC
F80000
F80000
F80000
F80000
F80000
F80000
F80000
F80000
F80000
F80000
FFFFF0
FFFFF0
FFFFF0
FFFFF0
FFFFF0
F80000
F80000
F80000
F80000
F80000
F80000
F80000
F80000
F80000
F80000
F80000
FFFFFC
FFFFFC
FFFFFC
FFFFFE
ENDCHAR
STARTCHAR 1EC3
ENCODING 7875
SWIDTH 580 0
DWIDTH 29 0
BBX 23 49 3 -1
BITMAP
007E00
007F00
007F00
000300
000380
000700
000F00
001E00
001800
000000
000000
007C00
00FE00
01FF00
01E780
03C3C0
0781E0
0F00F0
100008
000000
000000
000000
00FF00
07FFC0
0FFFE0
1FFFF0
3F01F8
7E00FC
7C007C
7C007C
F8003C
F8003E
F8003E
FFFFFE
FFFFFE
FFFFFE
F80000
F80000
F8003E
F8003E
FC003C
7C007C
7E007C
3F00F8
3F83F8
1FFFF0
0FFFE0
03FF80
003000
ENDCHAR
STARTCHAR 1EC4
ENCODING 7876
SWIDTH 600 0
DWIDTH 30 0
BBX 23 52 5 0
BITMAP
030030
0FF070
1FFFF0
3FFFE0
387FC0
300F80
000000
000000
00FC00
01FE00
03FF00
078F80
0F03C0
3E01F0
000000
000000
000000
000000
FFFFFC
FFFFFC
FFFFFC
FFFFFC
F80000
F80000
F80000
F80000
F80000
F80000
F80000
F80000
F80000
F80000
FFFFF0
FFFFF0
FFFFF0
FFFFF0
FFFFF0
F80000
F80000
F80000
F80000
F80000
F80000
F80000
F80000
F80000
F80000
F80000
FFFFFC
FFFFFC
FFFFFC
FFFFFE
ENDCHAR
STARTCHAR 1EC5
ENCODING 7877
SWIDTH 580 0
DWIDTH 29 0
BBX 23 45 3 -1
BITMAP
07F038
0FFEF8
1FFFF0
1E7FE0
380FC0
000000
000000
007C00
00FE00
01FF00
01EF80
03C7C0
0783E0
0F01F0
100008
000000
000000
000000
00FF00
07FFC0
0FFFE0
1FFFF0
3F01F8
7E00FC
7C007C
7C007C
F8003C
F8003E
F8003E
FFFFFE
FFFFFE
FFFFFE
F80000
F80000
F8003E
F8003E
FC003C
7C007C
7E007C
3F00F8
3F83F8
1FFFF0
0FFFE0
03FF80
003000
ENDCHAR
STARTCHAR 1EC6
ENCODING 7878
SWIDTH 600 0
DWIDTH 30 0
BBX 23 53 5 -9
BITMAP
00FC00
01FE00
03DF00
078F80
0F07C0
3E03E0
000000
000000
000000
000000
FFFFFC
FFFFFC
FFFFFC
FFFFFC
F80000
F80000
F80000
F80000
F80000
F80000
F80000
F80000
F80000
F80000
FFFFF0
FFFFF0
FFFFF0
FFFFF0
FFFFF0
F80000
F80000
F80000
F80000
F80000
F80000
F80000
F80000
F80000
F80000
F80000
FFFFFC
FFFFFC
FFFFFC
FFFFFE
000000
000000
000000
000000
007C00
007C00
007C00
007C00
007C00
ENDCHAR
STARTCHAR 1EC7
ENCODING 7879
SWIDTH 580 0
DWIDTH 29 0
BBX 23 47 3 -9
BITMAP
007C00
007E00
00FF00
01EF00
03E780
03C3C0
0783E0
0F01E0
1F00F0
000000
000000
000000
00FF00
07FFC0
0FFFE0
1FFFF0
3F01F8
7E00FC
7C007C
7C007C
F8003C
F8003E
F8003E
FFFFFE
FFFFFE
FFFFFE
F80000
F80000
F8003E
F8003E
FC003C
7C007C
7E007C
3F00F8
3F83F8
1FFFF0
0FFFE0
03FF80
003000
000000
000000
000000
003C00
003C00
003C00
003C00
003C00
ENDCHAR
STARTCHAR 1EC8
ENCODING 7880
SWIDTH 400 0
DWIDTH 20 0
BBX 13 48 3 0
BITMAP
0700
1FC0
1FE0
1FF0
0070
0070
0070
00F0
03E0
03C0
0380
0000
0000
0000
FFF8
FFF8
FFF8
FFF8
0F80
0F80
0F80
0F80
0F80
0F80
0F80
0F80
0F80
0F80
0F80
0F80
0F80
0F80
0F80
0F80
0F80
0F80
0F80
0F80
0F80
0F80
0F80
0F80
0F80
0F80
FFF8
FFF8
FFF8
FFF8
ENDCHAR
STARTCHAR 1EC9
ENCODING 7881
SWIDTH 260 0
DWIDTH 13 0
BBX 10 40 3 0
BITMAP
3C00
FF00
FF80
FF80
0380
03C0
0380
0780
1F00
1E00
1C00
0000
0000
0000
7C00
7C00
7C00
7C00
7C00
7C00
7C00
7C00
7C00
7C00
7C00
7C00
7C00
7C00
7C00
7C00
7C00
7C00
7C00
7C00
7C00
7C00
7C00
7C00
7C00
7C00
ENDCHAR
STARTCHAR 1ECA
ENCODING 7882
SWIDTH 400 0
DWIDTH 20 0
BBX 13 43 3 -9
BITMAP
FFF8
FFF8
FFF8
FFF8
0F80
0F80
0F80
0F80
0F80
0F80
0F80
0F80
0F80
0F80
0F80
0F80
0F80
0F80
0F80
0F80
0F80
0F80
0F80
0F80
0F80
0F80
0F80
0F80
0F80
0F80
FFF8
FFF8
FFF8
FFF8
0000
0000
0000
0000
0F80
0F80
0F80
0F80
0F80
ENDCHAR
STARTCHAR 1ECB
ENCODING 7883
SWIDTH 280 0
DWIDTH 14 0
BBX 6 45 4 -9
BITMAP
FC
FC
FC
FC
00
00
00
00
00
00
F8
F8
F8
F8
F8
F8
F8
F8
F8
F8
F8
F8
F8
F8
F8
F8
F8
F8
F8
F8
F8
F8
F8
F8
F8
F8
00
00
00
00
78
78
78
78
78
ENDCHAR
STARTCHAR 1ECC
ENCODING 7884
SWIDTH 700 0
DWIDTH 35 0
BBX 29 44 3 -9
BITMAP
001FC000
00FFF800
03FFFE00
07FFFF00
0FFDFF80
1FC01FC0
3F800FE0
3F0007E0
7E0003F0
7E0003F0
7C0001F0
7C0001F0
FC0001F8
FC0001F8
FC0001F8
FC0001F8
FC0001F8
FC0001F8
FC0001F8
FC0001F8
FC0001F8
FC0001F8
FC0001F8
FC0001F8
7C0001F0
7C0001F0
7E0003F0
7E0003E0
3F0007E0
3F800FE0
1FC01FC0
0FFFFF80
07FFFF00
03FFFE00
00FFF800
00070000
00000000
00000000
00000000
000F8000
000F8000
000F8000
000F8000
000F8000
ENDCHAR
STARTCHAR 1ECD
ENCODING 7885
SWIDTH 580 0
DWIDTH 29 0
BBX 24 35 3 -9
BITMAP
00FF00
07FFC0
0FFFE0
1FFFF0
3F01F8
3E00FC
7C007C
7C003E
F8003E
F8003E
F8003E
F8003F
F8003F
F8003F
F8003F
F8003F
F8003E
F8003E
7C003E
7C007E
7E007C
3F00F8
1F83F8
0FFFF0
07FFE0
01FF80
001000
000000
000000
000000
007C00
007C00
007C00
007C00
007C00
ENDCHAR
STARTCHAR 1ECE
ENCODING 7886
SWIDTH 700 0
DWIDTH 35 0
BBX 29 49 3 -1
BITMAP
000E0000
001FC000
001FE000
001FF000
0000F000
00007000
00007000
0000E000
0003E000
0007C000
00070000
00000000
00000000
001FC000
00FFF800
03FFFE00
07FFFF00
0FFDFF80
1FC01FC0
3F800FE0
3F0007E0
7E0003F0
7E0003F0
7C0001F0
7C0001F0
FC0001F8
FC0001F8
FC0001F8
FC0001F8
FC0001F8
FC0001F8
FC0001F8
FC0001F8
FC0001F8
FC0001F8
FC0001F8
FC0001F8
7C0001F0
7C0001F0
7E0003F0
7E0003E0
3F0007E0
3F800FE0
1FC01FC0
0FFFFF80
07FFFF00
03FFFE00
00FFF800
00070000
ENDCHAR
STARTCHAR 1ECF
ENCODING 7887
SWIDTH 580 0
DWIDTH 29 0
BBX 24 41 3 -1
BITMAP
003C00
00FF00
00FF80
00FF80
000380
0003C0
000380
000380
001F00
001E00
001C00
000000
000000
000000
00FF00
07FFC0
0FFFE0
1FFFF0
3F01F8
3E00FC
7C007C
7C003E
F8003E
F8003E
F8003E
F8003F
F8003F
F8003F
F8003F
F8003F
F8003E
F8003E
7C003E
7C007E
7E007C
3F00F8
1F83F8
0FFFF0
07FFE0
01FF80
001000
ENDCHAR
STARTCHAR 1ED0
ENCODING 7888
SWIDTH 700 0
DWIDTH 35 0
BBX 29 54 3 -1
BITMAP
00007C00
0000F800
0001F000
0001E000
0003C000
00038000
00078000
00000000
00000000
000F8000
003FE000
007DF000
00F8F800
01F07C00
03C01E00
00000000
00000000
00000000
001FC000
00FFF800
03FFFE00
07FFFF00
0FFDFF80
1FC01FC0
3F800FE0
3F0007E0
7E0003F0
7E0003F0
7C0001F0
7C0001F0
FC0001F8
FC0001F8
FC0001F8
FC0001F8
FC0001F8
FC0001F8
FC0001F8
FC0001F8
FC0001F8
FC0001F8
FC0001F8
FC0001F8
7C0001F0
7C0001F0
7E0003F0
7E0003E0
3F0007E0
3F800FE0
1FC01FC0
0FFFFF80
07FFFF00
03FFFE00
00FFF800
00070000
ENDCHAR
STARTCHAR 1ED1
ENCODING 7889
SWIDTH 580 0
DWIDTH 29 0
BBX 24 47 3 -1
BITMAP
0003E0
0007C0
000780
000F00
000F00
001E00
003C00
000000
000000
007C00
00FE00
01FF00
01EF80
03C7C0
0783E0
0F01F0
100008
000000
000000
000000
00FF00
07FFC0
0FFFE0
1FFFF0
3F01F8
3E00FC
7C007C
7C003E
F8003E
F8003E
F8003E
F8003F
F8003F
F8003F
F8003F
F8003F
F8003E
F8003E
7C003E
7C007E
7E007C
3F00F8
1F83F8
0FFFF0
07FFE0
01FF80
001000
ENDCHAR
STARTCHAR 1ED2
ENCODING 7890
SWIDTH 700 0
DWIDTH 35 0
BBX 29 54 3 -1
BITMAP
01F00000
00F80000
007C0000
003C0000
001E0000
000E0000
000F0000
00000000
00000000
000F8000
003FC000
007DF000
00F8F800
01F07C00
03C01E00
00000000
00000000
00000000
001FC000
00FFF800
03FFFE00
07FFFF00
0FFDFF80
1FC01FC0
3F800FE0
3F0007E0
7E0003F0
7E0003F0
7C0001F0
7C0001F0
FC0001F8
FC0001F8
FC0001F8
FC0001F8
FC0001F8
FC0001F8
FC0001F8
FC0001F8
FC0001F8
FC0001F8
FC0001F8
FC0001F8
7C0001F0
7C0001F0
7E0003F0
7E0003E0
3F0007E0
3F800FE0
1FC01FC0
0FFFFF80
07FFFF00
03FFFE00
00FFF800
00070000
ENDCHAR
STARTCHAR 1ED3
ENCODING 7891
SWIDTH 580 0
DWIDTH 29 0
BBX 24 47 3 -1
BITMAP
0F8000
07C000
03E000
01E000
00F000
007800
003C00
000000
000000
007C00
00FE00
01FF00
01E780
03C3C0
0781E0
0F00F0
100008
000000
000000
000000
00FF00
07FFC0
0FFFE0
1FFFF0
3F01F8
3E00FC
7C007C
7C003E
F8003E
F8003E
F8003E
F8003F
F8003F
F8003F
F8003F
F8003F
F8003E
F8003E
7C003E
7C007E
7E007C
3F00F8
1F83F8
0FFFF0
07FFE0
01FF80
001000
ENDCHAR
STARTCHAR 1ED4
ENCODING 7892
SWIDTH 700 0
DWIDTH 35 0
BBX 29 56 3 -1
BITMAP
000F8000
000FE000
000FE000
0000E000
00006000
0000E000
0001E000
0003C000
00030000
00000000
00000000
000F8000
003FE000
007DF000
00F8F800
01F07C00
03C01E00
00000000
00000000
00000000
001FC000
00FFF800
03FFFE00
07FFFF00
0FFDFF80
1FC01FC0
3F800FE0
3F0007E0
7E0003F0
7E0003F0
7C0001F0
7C0001F0
FC0001F8
FC0001F8
FC0001F8
FC0001F8
FC0001F8
FC0001F8
FC0001F8
FC0001F8
FC0001F8
FC0001F8
FC0001F8
FC0001F8
7C0001F0
7C0001F0
7E0003F0
7E0003E0
3F0007E0
3F800FE0
1FC01FC0
0FFFFF80
07FFFF00
03FFFE00
00FFF800
00070000
ENDCHAR
STARTCHAR 1ED5
ENCODING 7893
SWIDTH 580 0
DWIDTH 29 0
BBX 24 49 3 -1
BITMAP
007E00
007F00
007F00
000300
000380
000700
000F00
001E00
001800
000000
000000
007C00
00FE00
01FF00
01E780
03C3C0
0781E0
0F00F0
100008
000000
000000
000000
00FF00
07FFC0
0FFFE0
1FFFF0
3F01F8
3E00FC
7C007C
7C003E
F8003E
F8003E
F8003E
F8003F
F8003F
F8003F
F8003F
F8003F
F8003E
F8003E
7C003E
7C007E
7E007C
3F00F8
1F83F8
0FFFF0
07FFE0
01FF80
001000
ENDCHAR
STARTCHAR 1ED6
ENCODING 7894
SWIDTH 700 0
DWIDTH 35 0
BBX 29 53 3 -1
BITMAP
00200700
01FE0700
03FFFE00
03FFFE00
0787FC00
0700F000
00000000
00000000
000F8000
001FC000
007DF000
00F8F800
01F07C00
03C03E00
00000000
00000000
00000000
001FC000
00FFF800
03FFFE00
07FFFF00
0FFDFF80
1FC01FC0
3F800FE0
3F0007E0
7E0003F0
7E0003F0
7C0001F0
7C0001F0
FC0001F8
FC0001F8
FC0001F8
FC0001F8
FC0001F8
FC0001F8
FC0001F8
FC0001F8
FC0001F8
FC0001F8
FC0001F8
FC0001F8
7C0001F0
7C0001F0
7E0003F0
7E0003E0
3F0007E0
3F800FE0
1FC01FC0
0FFFFF80
07FFFF00
03FFFE00
00FFF800
00070000
ENDCHAR
STARTCHAR 1ED7
ENCODING 7895
SWIDTH 580 0
DWIDTH 29 0
BBX 24 45 3 -1
BITMAP
07F038
0FFEF8
1FFFF0
1E7FE0
380FC0
000000
000000
007C00
00FE00
01FF00
01EF80
03C7C0
0783E0
0F01F0
100008
000000
000000
000000
00FF00
07FFC0
0FFFE0
1FFFF0
3F01F8
3E00FC
7C007C
7C003E
F8003E
F8003E
F8003E
F8003F
F8003F
F8003F
F8003F
F8003F
F8003E
F8003E
7C003E
7C007E
7E007C
3F00F8
1F83F8
0FFFF0
07FFE0
01FF80
001000
ENDCHAR
STARTCHAR 1ED8
ENCODING 7896
SWIDTH 700 0
DWIDTH 35 0
BBX 29 53 3 -9
BITMAP
001FC000
003FE000
007DF000
00F8F800
01F07800
03E03E00
00000000
00000000
00000000
001FC000
00FFF800
03FFFE00
07FFFF00
0FFDFF80
1FC01FC0
3F800FE0
3F0007E0
7E0003F0
7E0003F0
7C0001F0
7C0001F0
FC0001F8
FC0001F8
FC0001F8
FC0001F8
FC0001F8
FC0001F8
FC0001F8
FC0001F8
FC0001F8
FC0001F8
FC0001F8
FC0001F8
7C0001F0
7C0001F0
7E0003F0
7E0003E0
3F0007E0
3F800FE0
1FC01FC0
0FFFFF80
07FFFF00
03FFFE00
00FFF800
00070000
00000000
00000000
00000000
000F8000
000F8000
000F8000
000F8000
000F8000
ENDCHAR
STARTCHAR 1ED9
ENCODING 7897
SWIDTH 580 0
DWIDTH 29 0
BBX 24 47 3 -9
BITMAP
007C00
007E00
00FF00
01EF00
03E780
03C3C0
0783E0
0F01E0
1F00F0
000000
000000
000000
00FF00
07FFC0
0FFFE0
1FFFF0
3F01F8
3E00FC
7C007C
7C003E
F8003E
F8003E
F8003E
F8003F
F8003F
F8003F
F8003F
F8003F
F8003E
F8003E
7C003E
7C007E
7E007C
3F00F8
1F83F8
0FFFF0
07FFE0
01FF80
001000
000000
000000
000000
007C00
007C00
007C00
007C00
007C00
ENDCHAR
ENDFONT
